<?xml version="1.0" standalone="no"?>
<!DOCTYPE svg PUBLIC "-//W3C//DTD SVG 1.1//EN" "http://www.w3.org/Graphics/SVG/1.1/DTD/svg11.dtd" >
<svg xmlns="http://www.w3.org/2000/svg" width="100%" height="100%">
<metadata>
Created by FontXChange 20110222 at Fri Aug  2 14:43:40 2013
 By Barrel iMac 25
Copyright (c) 2011 by Dave Whitley. All rights reserved.
</metadata>
<defs>
<font id="Outage-Regular" horiz-adv-x="833" >
  <font-face 
    font-family="Outage"
    font-weight="700"
    font-stretch="normal"
    units-per-em="1000"
    panose-1="2 0 0 0 0 0 0 0 0 0"
    ascent="750"
    descent="-250"
    x-height="700"
    cap-height="700"
    bbox="12 -233 1025 934"
    underline-thickness="50"
    underline-position="-50"
    unicode-range="U+0020-2212"
  />
<missing-glyph horiz-adv-x="340" 
 />
    <glyph glyph-name=".notdef" horiz-adv-x="340" 
 />
    <glyph glyph-name=".null" horiz-adv-x="0" 
 />
    <glyph glyph-name="nonmarkingreturn" horiz-adv-x="340" 
 />
    <glyph glyph-name="space" unicode=" " horiz-adv-x="340" 
 />
    <glyph glyph-name="space" unicode="&#xa0;" horiz-adv-x="340" 
 />
    <glyph glyph-name="E" unicode="E" horiz-adv-x="691" 
d="M258 537q-5 0 -5 -5v-109q0 -4 5 -4h285q8 0 13.5 -5.5t5.5 -13.5v-100q0 -19 -19 -19h-285q-5 0 -5 -5v-108q0 -5 5 -5h335q8 0 13.5 -5.5t5.5 -13.5v-125q0 -8 -5.5 -13.5t-13.5 -5.5h-399q-24 0 -45.5 9t-37.5 25t-25 37.5t-9 45.5v466q0 24 9 45.5t25 37t37.5 25
t45.5 9.5h399q8 0 13.5 -5.5t5.5 -13.5v-126q0 -8 -5.5 -13t-13.5 -5h-335v0z" />
    <glyph glyph-name="F" unicode="F" horiz-adv-x="635" 
d="M596 700q8 0 13.5 -5.5t5.5 -13.5v-132q0 -8 -5.5 -13.5t-13.5 -5.5h-335q-5 0 -5 -4v-109q0 -5 5 -5h254q8 0 13 -5.5t5 -13.5v-125q0 -8 -5 -13.5t-13 -5.5h-254q-5 0 -5 -5v-225q0 -19 -19 -19h-138q-19 0 -19 19v662q0 19 19 19h497v0z" />
    <glyph glyph-name="G" unicode="G" horiz-adv-x="737" 
d="M647 382q8 0 13.5 -5.5t5.5 -13.5v-246q0 -24 -9.5 -45.5t-25 -37.5t-37 -25t-45.5 -9h-354q-24 0 -45.5 9t-37.5 25t-25 37.5t-9 45.5v466q0 24 9 45.5t25 37t37.5 25t45.5 9.5h413q8 0 13.5 -5.5t5.5 -13.5v-132q0 -8 -5.5 -13.5t-13.5 -5.5h-335q-8 0 -13.5 -5
t-5.5 -13v-324q0 -8 5.5 -13t13.5 -5h198q8 0 13 5t5 13v175q0 8 5.5 13.5t13.5 5.5h139v0z" />
    <glyph glyph-name="H" unicode="H" horiz-adv-x="747" 
d="M649 700q8 0 13.5 -5.5t5.5 -13.5v-662q0 -8 -5.5 -13.5t-13.5 -5.5h-139q-8 0 -13.5 5.5t-5.5 13.5v231q0 8 -5 13t-13 5h-198q-8 0 -13.5 -5t-5.5 -13v-231q0 -19 -19 -19h-138q-19 0 -19 19v662q0 19 19 19h138q19 0 19 -19v-224q0 -19 19 -19h198q8 0 13 5.5t5 13.5
v224q0 8 5.5 13.5t13.5 5.5h139z" />
    <glyph glyph-name="I" unicode="I" horiz-adv-x="333" 
d="M256 19q0 -19 -19 -19h-138q-19 0 -19 19v662q0 19 19 19h138q19 0 19 -19v-662z" />
    <glyph glyph-name="J" unicode="J" horiz-adv-x="635" 
d="M538 700q8 0 13.5 -5.5t5.5 -13.5v-564q0 -24 -9.5 -45.5t-25 -37.5t-37 -25t-45.5 -9h-301q-24 0 -45.5 9t-37.5 25t-25 37.5t-9 45.5v214q0 19 19 19h138q19 0 19 -19v-143q0 -8 5.5 -13t13.5 -5h145q8 0 13.5 5t5.5 13v493q0 8 5 13.5t13 5.5h139v0z" />
    <glyph glyph-name="K" unicode="K" horiz-adv-x="761" 
d="M478 405q-3 -3 -1 -7l234 -382q4 -7 1 -11.5t-11 -4.5h-166q-8 0 -16 4.5t-12 11.5l-151 273q-3 5 -5 1l-83 -91q-5 -5 -8.5 -14.5t-3.5 -17.5v-148q0 -19 -19 -19h-138q-19 0 -19 19v662q0 19 19 19h138q19 0 19 -19v-297l258 302q5 6 14 10t17 4h166q8 0 9.5 -4
t-3.5 -10z" />
    <glyph glyph-name="L" unicode="L" horiz-adv-x="567" 
d="M531 170q8 0 13 -5.5t5 -13.5v-132q0 -8 -5 -13.5t-13 -5.5h-432q-19 0 -19 19v662q0 19 19 19h138q19 0 19 -19v-493q0 -8 5.5 -13t13.5 -5h256z" />
    <glyph glyph-name="M" unicode="M" horiz-adv-x="897" 
d="M702 700q24 0 45.5 -9.5t37 -25t25 -37t9.5 -45.5v-564q0 -8 -5.5 -13.5t-13.5 -5.5h-139q-8 0 -13 5.5t-5 13.5v511h-112v-511q0 -8 -5 -13.5t-13 -5.5h-126q-8 0 -13.5 5.5t-5.5 13.5v511h-112v-511q0 -19 -19 -19h-138q-19 0 -19 19v662q0 19 19 19h603v0z" />
    <glyph glyph-name="N" unicode="N" horiz-adv-x="746" 
d="M551 700q24 0 45.5 -9.5t37 -25t25 -37t9.5 -45.5v-564q0 -8 -5.5 -13.5t-13.5 -5.5h-139q-8 0 -13 5.5t-5 13.5v493q0 8 -5.5 13t-13.5 5h-198q-8 0 -13.5 -5t-5.5 -13v-493q0 -19 -19 -19h-138q-19 0 -19 19v662q0 19 19 19h452v0z" />
    <glyph glyph-name="O" unicode="O" horiz-adv-x="743" 
d="M549 700q24 0 45.5 -9.5t37 -25t25 -37t9.5 -45.5v-466q0 -24 -9.5 -45.5t-25 -37.5t-37 -25t-45.5 -9h-354q-24 0 -45.5 9t-37.5 25t-25 37.5t-9 45.5v466q0 24 9 45.5t25 37t37.5 25t45.5 9.5h354zM489 530h-235v-360h235v360z" />
    <glyph glyph-name="P" unicode="P" horiz-adv-x="651" 
d="M498 700q24 0 45.5 -9.5t37 -25t25 -37t9.5 -45.5v-265q0 -24 -9.5 -45.5t-25 -37t-37 -25t-45.5 -9.5h-223q-8 0 -13.5 -5t-5.5 -13v-164q0 -19 -19 -19h-138q-19 0 -19 19v662q0 19 19 19h399zM445 364v177h-195v-177h195z" />
    <glyph glyph-name="R" unicode="R" horiz-adv-x="752" 
d="M680 16q4 -7 1 -11.5t-11 -4.5h-159q-8 0 -16 4.5t-12 11.5l-106 190q-2 4 -7 4h-119q-5 0 -5 -5v-186q0 -19 -19 -19h-138q-19 0 -19 19v662q0 19 19 19h452q24 0 45.5 -9.5t37 -25t25 -37t9.5 -45.5v-263q0 -38 -22.5 -68.5t-57.5 -41.5l-3 -1q-7 -2 -3 -6l1 -2z
M481 537h-241v-170h241v170z" />
    <glyph glyph-name="S" unicode="S" horiz-adv-x="684" 
d="M495 421q24 0 45.5 -9t37 -25t25 -37t9.5 -45v-188q0 -24 -9.5 -45.5t-25 -37.5t-37 -25t-45.5 -9h-399q-19 0 -19 19v121q0 8 5.5 13.5t13.5 5.5h340q8 0 13.5 5t5.5 13v83q0 8 -5.5 13.5t-13.5 5.5h-242q-24 0 -45.5 9t-37.5 25t-25 37t-9 45v188q0 24 9 45.5t25 37
t37.5 25t45.5 9.5h377q19 0 19 -19v-123q0 -8 -5.5 -13t-13.5 -5h-319q-8 0 -13 -5.5t-5 -13.5v-81q0 -8 5 -13.5t13 -5.5h243v0z" />
    <glyph glyph-name="T" unicode="T" horiz-adv-x="615" 
d="M575 549q0 -8 -5.5 -13.5t-13.5 -5.5h-142q-8 0 -13.5 -5t-5.5 -13v-493q0 -8 -5 -13.5t-13 -5.5h-139q-8 0 -13.5 5.5t-5.5 13.5v493q0 8 -5 13t-13 5h-142q-8 0 -13.5 5.5t-5.5 13.5v132q0 19 19 19h142h37h139h37h142q8 0 13.5 -5.5t5.5 -13.5v-132z" />
    <glyph glyph-name="U" unicode="U" horiz-adv-x="745" 
d="M648 700q8 0 13.5 -5.5t5.5 -13.5v-564q0 -24 -9.5 -45.5t-25 -37.5t-37 -25t-45.5 -9h-354q-24 0 -45.5 9t-37.5 25t-25 37.5t-9 45.5v564q0 19 19 19h138q19 0 19 -19v-493q0 -8 5.5 -13t13.5 -5h198q8 0 13 5t5 13v493q0 8 5.5 13.5t13.5 5.5h139v0z" />
    <glyph glyph-name="V" unicode="V" horiz-adv-x="746" 
d="M551 0h-452q-19 0 -19 19v662q0 19 19 19h138q19 0 19 -19v-493q0 -8 5.5 -13t13.5 -5h198q8 0 13 5t5 13v493q0 8 5.5 13.5t13.5 5.5h139q8 0 13.5 -5.5t5.5 -13.5v-564q0 -24 -9.5 -45.5t-25 -37.5t-37 -25t-45.5 -9z" />
    <glyph glyph-name="W" unicode="W" horiz-adv-x="896" 
d="M799 700q8 0 13.5 -5.5t5.5 -13.5v-564q0 -24 -9.5 -45.5t-25 -37.5t-37 -25t-45.5 -9h-505q-24 0 -45.5 9t-37.5 25t-25 37.5t-9 45.5v564q0 19 19 19h138q19 0 19 -19v-511h111v511q0 8 5.5 13.5t13.5 5.5h126q8 0 13.5 -5.5t5.5 -13.5v-511h112v511q0 8 5 13.5t13 5.5
h139v0z" />
    <glyph glyph-name="X" unicode="X" horiz-adv-x="809" 
d="M738 16q5 -7 2 -11.5t-11 -4.5h-150q-8 0 -16 4.5t-12 11.5l-146 209l-147 -209q-4 -7 -12 -11.5t-16 -4.5h-150q-8 0 -11 4.5t2 11.5l215 329q4 7 4 16t-4 16l-202 307q-5 7 -2 11.5t11 4.5h150q8 0 16 -4.5t12 -11.5l134 -188l133 188q4 7 12 11.5t16 4.5h150
q8 0 11 -4.5t-2 -11.5l-202 -307q-4 -7 -4 -16t4 -16l215 -329v0z" />
    <glyph glyph-name="Y" unicode="Y" horiz-adv-x="671" 
d="M598 700q8 0 13.5 -5.5t5.5 -13.5v-357q0 -24 -9.5 -45.5t-25 -37t-37 -25t-45.5 -9.5h-76v-188q0 -8 -5.5 -13.5t-13.5 -5.5h-139q-8 0 -13 5.5t-5 13.5v188h-76q-24 0 -45.5 9.5t-37.5 25t-25 37t-9 45.5v357q0 19 19 19h132q8 0 13.5 -5.5t5.5 -13.5v-298
q0 -8 5 -13.5t13 -5.5h185q19 0 19 19v298q0 19 19 19h132v0z" />
    <glyph glyph-name="Z" unicode="Z" horiz-adv-x="692" 
d="M613 555q0 -8 -4 -17t-9 -15l-325 -366h319q8 0 13.5 -5.5t5.5 -13.5v-119q0 -8 -5.5 -13.5t-13.5 -5.5h-497q-19 0 -19 19v125q0 8 3.5 17.5t8.5 15.5l332 366h-319q-8 0 -13.5 5.5t-5.5 13.5v119q0 8 5.5 13.5t13.5 5.5h491q8 0 13.5 -5.5t5.5 -13.5v-126z" />
    <glyph glyph-name="D" unicode="D" horiz-adv-x="745" 
d="M551 700q24 0 45.5 -9.5t37 -25t25 -37t9.5 -45.5v-466q0 -24 -9.5 -45.5t-25 -37.5t-37 -25t-45.5 -9h-452q-19 0 -19 19v662q0 19 19 19h452zM256 170h235v360h-235v-360z" />
    <glyph glyph-name="Q" unicode="Q" horiz-adv-x="718" 
d="M537 700q24 0 45 -9.5t37 -25t25 -37t9 -45.5v-466q0 -24 -9 -45.5t-25 -37.5t-37 -25t-45 -9h-89v-95q0 -8 -5.5 -13.5t-13.5 -5.5h-139q-8 0 -13 5.5t-5 13.5v95h-89q-24 0 -45.5 9t-37.5 25t-25 37.5t-9 45.5v466q0 24 9 45.5t25 37t37.5 25t45.5 9.5h354zM477 530
h-235v-367h235v367z" />
    <glyph glyph-name="l" unicode="l" horiz-adv-x="567" 
d="M531 170q8 0 13 -5.5t5 -13.5v-132q0 -8 -5 -13.5t-13 -5.5h-432q-19 0 -19 19v662q0 19 19 19h138q19 0 19 -19v-493q0 -8 5.5 -13t13.5 -5h256z" />
    <glyph glyph-name="m" unicode="m" horiz-adv-x="958" 
d="M864 700q6 -2 10.5 -7t4.5 -12v-662q0 -8 -5.5 -13.5t-13.5 -5.5h-134q-8 0 -13 5.5t-5 13.5v351l-70 -170q-13 -32 -26 -63t-23 -55.5t-16.5 -40.5t-7.5 -17l-2 -7q-3 -7 -10.5 -12t-15.5 -5h-116q-8 0 -15.5 5t-10.5 12l-3 7q-1 1 -7.5 17t-16.5 40.5t-22.5 55.5
t-25.5 63q-31 75 -69 170v-351q0 -19 -19 -19h-133q-19 0 -19 19v662q0 11 9 16q3 3 9 3h1h138h11q8 0 15.5 -5t10.5 -12l205 -469l205 469q3 7 10.5 12t15.5 5h11h139h1h3v0z" />
    <glyph glyph-name="q" unicode="q" horiz-adv-x="721" 
d="M533 700q24 0 45.5 -9.5t37 -25t25 -37t9.5 -45.5v-466q0 -24 -9 -45t-24.5 -37t-36 -25t-44.5 -10h-19q-4 0 -2 -4l54 -94q4 -7 1.5 -11.5t-10.5 -4.5h-166q-8 0 -16 4.5t-12 11.5l-54 94q-4 4 -7 4h-126q-24 0 -45.5 9t-37.5 25t-25 37.5t-9 45.5v466q0 24 9 45.5
t25 37t37.5 25t45.5 9.5h354zM238 163h235v367h-235v-367z" />
    <glyph glyph-name="n" unicode="n" horiz-adv-x="747" 
d="M649 700q8 0 13.5 -5.5t5.5 -13.5v-662q0 -8 -5.5 -13.5t-13.5 -5.5h-132h-12q-8 0 -16 4.5t-12 11.5l-221 408v-405q0 -19 -19 -19h-138q-19 0 -19 19v662q0 19 19 19h142q8 0 16 -4.5t12 -11.5l222 -409v406q0 8 5.5 13.5t13.5 5.5h139v0z" />
    <glyph glyph-name="k" unicode="k" horiz-adv-x="761" 
d="M478 405q-3 -3 -1 -7l234 -382q4 -7 1 -11.5t-11 -4.5h-166q-8 0 -16 4.5t-12 11.5l-151 273q-3 5 -5 1l-83 -91q-5 -5 -8.5 -14.5t-3.5 -17.5v-148q0 -19 -19 -19h-138q-19 0 -19 19v662q0 19 19 19h138q19 0 19 -19v-297l258 302q5 6 14 10t17 4h166q8 0 9.5 -4
t-3.5 -10z" />
    <glyph glyph-name="j" unicode="j" horiz-adv-x="635" 
d="M538 700q8 0 13.5 -5.5t5.5 -13.5v-564q0 -24 -9.5 -45.5t-25 -37.5t-37 -25t-45.5 -9h-301q-24 0 -45.5 9t-37.5 25t-25 37.5t-9 45.5v214q0 19 19 19h138q19 0 19 -19v-143q0 -8 5.5 -13t13.5 -5h145q8 0 13.5 5t5.5 13v493q0 8 5 13.5t13 5.5h139v0z" />
    <glyph glyph-name="i" unicode="i" horiz-adv-x="333" 
d="M256 19q0 -19 -19 -19h-138q-19 0 -19 19v662q0 19 19 19h138q19 0 19 -19v-662z" />
    <glyph glyph-name="h" unicode="h" horiz-adv-x="747" 
d="M649 700q8 0 13.5 -5.5t5.5 -13.5v-662q0 -8 -5.5 -13.5t-13.5 -5.5h-139q-8 0 -13.5 5.5t-5.5 13.5v231q0 8 -5 13t-13 5h-198q-8 0 -13.5 -5t-5.5 -13v-231q0 -19 -19 -19h-138q-19 0 -19 19v662q0 19 19 19h138q19 0 19 -19v-224q0 -19 19 -19h198q8 0 13 5.5t5 13.5
v224q0 8 5.5 13.5t13.5 5.5h139z" />
    <glyph glyph-name="g" unicode="g" horiz-adv-x="737" 
d="M647 382q8 0 13.5 -5.5t5.5 -13.5v-246q0 -24 -9.5 -45.5t-25 -37.5t-37 -25t-45.5 -9h-354q-24 0 -45.5 9t-37.5 25t-25 37.5t-9 45.5v466q0 24 9 45.5t25 37t37.5 25t45.5 9.5h413q8 0 13.5 -5.5t5.5 -13.5v-132q0 -8 -5.5 -13.5t-13.5 -5.5h-335q-8 0 -13.5 -5
t-5.5 -13v-324q0 -8 5.5 -13t13.5 -5h198q8 0 13 5t5 13v175q0 8 5.5 13.5t13.5 5.5h139v0z" />
    <glyph glyph-name="f" unicode="f" horiz-adv-x="635" 
d="M596 700q8 0 13.5 -5.5t5.5 -13.5v-132q0 -8 -5.5 -13.5t-13.5 -5.5h-335q-5 0 -5 -4v-119q0 -5 5 -5h254q8 0 13 -5.5t5 -13.5v-115q0 -8 -5 -13.5t-13 -5.5h-254q-5 0 -5 -5v-225q0 -19 -19 -19h-138q-19 0 -19 19v662q0 8 5.5 13.5t13.5 5.5h497v0z" />
    <glyph glyph-name="e" unicode="e" horiz-adv-x="694" 
d="M596 700q8 0 13.5 -5.5t5.5 -13.5v-57v-30v-39q0 -8 -5.5 -13t-13.5 -5h-71h-208h-56q-5 0 -5 -5v-109q0 -4 5 -4h286q8 0 13 -5.5t5 -13.5v-100q0 -8 -5 -13.5t-13 -5.5h-286q-5 0 -5 -5v-49v-1v-58q0 -5 5 -5h42h226h67q8 0 13.5 -5.5t5.5 -13.5v-40v-52v-33
q0 -8 -5.5 -13.5t-13.5 -5.5h-57h-380h-60q-19 0 -19 19v34v580v48q0 8 5.5 13.5t13.5 5.5h73h392h32v0z" />
    <glyph glyph-name="d" unicode="d" horiz-adv-x="745" 
d="M551 700q24 0 45.5 -9.5t37 -25t25 -37t9.5 -45.5v-466q0 -24 -9.5 -45.5t-25 -37.5t-37 -25t-45.5 -9h-452q-19 0 -19 19v662q0 19 19 19h452zM256 170h235v360h-235v-360z" />
    <glyph glyph-name="c" unicode="c" horiz-adv-x="691" 
d="M272 530q-8 0 -13.5 -5t-5.5 -13v-324q0 -8 5.5 -13t13.5 -5h321q8 0 13.5 -5.5t5.5 -13.5v-132q0 -8 -5.5 -13.5t-13.5 -5.5h-209h-172h-18q-24 0 -45.5 9t-37.5 25t-25 37.5t-9 45.5v18v73v233v65v77q0 24 9 45.5t25 37t37.5 25t45.5 9.5h18h381q8 0 13.5 -5.5
t5.5 -13.5v-132q0 -8 -5.5 -13.5t-13.5 -5.5h-321v0z" />
    <glyph glyph-name="b" unicode="b" horiz-adv-x="743" 
d="M613 365q-5 -6 -4.5 -15t5.5 -14l42 -50q5 -6 8.5 -15.5t3.5 -17.5v-136q0 -24 -9.5 -45.5t-25 -37.5t-37 -25t-45.5 -9h-452q-19 0 -19 19v662q0 19 19 19h452q24 0 45.5 -9.5t37 -25t25 -37t9.5 -45.5v-130q0 -8 -3.5 -17.5t-8.5 -15.5zM508 290h-269v-137h269v137z
M508 548h-269v-125h269v125z" />
    <glyph glyph-name="a" unicode="a" horiz-adv-x="745" 
d="M550 700q24 0 45.5 -9.5t37 -25t25 -37t9.5 -45.5v-564q0 -8 -5.5 -13.5t-13.5 -5.5h-139q-8 0 -13.5 5.5t-5.5 13.5v179q0 8 -5 13.5t-13 5.5h-198q-8 0 -13.5 -5.5t-5.5 -13.5v-179q0 -19 -19 -19h-138q-19 0 -19 19v564q0 24 9 45.5t25 37t37.5 25t45.5 9.5h354z
M490 367v176h-235v-176h235z" />
    <glyph glyph-name="o" unicode="o" horiz-adv-x="743" 
d="M549 700q24 0 45.5 -9.5t37 -25t25 -37t9.5 -45.5v-466q0 -24 -9.5 -45.5t-25 -37.5t-37 -25t-45.5 -9h-354q-24 0 -45.5 9t-37.5 25t-25 37.5t-9 45.5v466q0 24 9 45.5t25 37t37.5 25t45.5 9.5h354zM489 530h-235v-360h235v360z" />
    <glyph glyph-name="p" unicode="p" horiz-adv-x="651" 
d="M498 700q24 0 45.5 -9.5t37 -25t25 -37t9.5 -45.5v-265q0 -24 -9.5 -45.5t-25 -37t-37 -25t-45.5 -9.5h-223q-8 0 -13.5 -5t-5.5 -13v-164q0 -19 -19 -19h-138q-19 0 -19 19v662q0 19 19 19h399zM445 364v177h-195v-177h195z" />
    <glyph glyph-name="r" unicode="r" horiz-adv-x="762" 
d="M690 16q4 -7 1 -11.5t-11 -4.5h-159q-8 0 -16 4.5t-12 11.5l-106 190q-2 4 -7 4h-119q-5 0 -5 -5v-186q0 -19 -19 -19h-138q-19 0 -19 19v662q0 19 19 19h452q24 0 45.5 -9.5t37 -25t25 -37t9.5 -45.5v-263q0 -38 -22.5 -68.5t-57.5 -41.5l-3 -1q-7 -2 -3 -6l1 -2z
M491 537h-241v-170h241v170z" />
    <glyph glyph-name="s" unicode="s" horiz-adv-x="684" 
d="M495 421q24 0 45.5 -9t37 -25t25 -37t9.5 -45v-188q0 -24 -9.5 -45.5t-25 -37.5t-37 -25t-45.5 -9h-399q-19 0 -19 19v121q0 8 5.5 13.5t13.5 5.5h340q8 0 13.5 5t5.5 13v83q0 8 -5.5 13.5t-13.5 5.5h-242q-24 0 -45.5 9t-37.5 25t-25 37t-9 45v188q0 24 9 45.5t25 37
t37.5 25t45.5 9.5h377q19 0 19 -19v-123q0 -8 -5.5 -13t-13.5 -5h-319q-8 0 -13 -5.5t-5 -13.5v-81q0 -8 5 -13.5t13 -5.5h243v0z" />
    <glyph glyph-name="t" unicode="t" horiz-adv-x="615" 
d="M575 549q0 -8 -5.5 -13.5t-13.5 -5.5h-142q-8 0 -13.5 -5t-5.5 -13v-493q0 -8 -5 -13.5t-13 -5.5h-139q-8 0 -13.5 5.5t-5.5 13.5v493q0 8 -5 13t-13 5h-142q-8 0 -13.5 5.5t-5.5 13.5v132q0 19 19 19h142h37h139h37h142q8 0 13.5 -5.5t5.5 -13.5v-132z" />
    <glyph glyph-name="u" unicode="u" horiz-adv-x="745" 
d="M648 700q8 0 13.5 -5.5t5.5 -13.5v-564q0 -24 -9.5 -45.5t-25 -37.5t-37 -25t-45.5 -9h-354q-24 0 -45.5 9t-37.5 25t-25 37.5t-9 45.5v564q0 19 19 19h138q19 0 19 -19v-493q0 -8 5.5 -13t13.5 -5h198q8 0 13 5t5 13v493q0 8 5.5 13.5t13.5 5.5h139v0z" />
    <glyph glyph-name="v" unicode="v" horiz-adv-x="737" 
d="M680 700q8 0 11.5 -5t1.5 -13l-208 -664q-2 -8 -9 -13t-15 -5h-186q-8 0 -15 5t-9 13l-207 664q-2 8 1.5 13t11.5 5h150q8 0 15 -5t9 -13l137 -493l138 493q2 8 8.5 13t14.5 5h151v0z" />
    <glyph glyph-name="w" unicode="w" horiz-adv-x="1038" 
d="M990 700q8 0 11.5 -5t1.5 -13l-195 -664q-2 -8 -9 -13t-15 -5h-9h-102h-10q-8 0 -14 5t-8 13l-120 472l-120 -472q-2 -8 -8.5 -13t-14.5 -5h-9h-102h-10q-8 0 -14.5 5t-8.5 13l-195 664q-2 8 1.5 13t11.5 5h144q8 0 14.5 -5t8.5 -13l98 -420l119 420q3 14 19 18h4h124h4
q16 -4 19 -18l119 -420l98 420q2 8 8.5 13t14.5 5h144v0z" />
    <glyph glyph-name="x" unicode="x" horiz-adv-x="763" 
d="M715 16q5 -7 2 -11.5t-11 -4.5h-150q-8 0 -16 4.5t-12 11.5l-146 209l-147 -209q-4 -7 -12 -11.5t-16 -4.5h-150q-8 0 -11 4.5t2 11.5l215 329q4 7 4 16t-4 16l-202 307q-5 7 -2 11.5t11 4.5h150q8 0 16 -4.5t12 -11.5l134 -188l133 188q4 7 12 11.5t16 4.5h150
q8 0 11 -4.5t-2 -11.5l-202 -307q-4 -7 -4 -16t4 -16l215 -329v0z" />
    <glyph glyph-name="y" unicode="y" horiz-adv-x="717" 
d="M670 700q8 0 11 -4.5t-1 -11.5l-225 -408q-4 -7 -6.5 -17t-2.5 -18v-222q0 -8 -5 -13.5t-13 -5.5h-139q-8 0 -13.5 5.5t-5.5 13.5v222q0 8 -2.5 18t-6.5 17l-224 408q-4 7 -1 11.5t11 4.5h150q8 0 15.5 -4.5t11.5 -11.5l134 -263l134 263q4 7 12 11.5t16 4.5h150v0z" />
    <glyph glyph-name="z" unicode="z" horiz-adv-x="692" 
d="M613 555q0 -8 -4 -17t-9 -15l-325 -366h319q8 0 13.5 -5.5t5.5 -13.5v-119q0 -8 -5.5 -13.5t-13.5 -5.5h-497q-19 0 -19 19v125q0 8 3.5 17.5t8.5 15.5l332 366h-319q-8 0 -13.5 5.5t-5.5 13.5v119q0 8 5.5 13.5t13.5 5.5h491q8 0 13.5 -5.5t5.5 -13.5v-126z" />
    <glyph glyph-name="ampersand" unicode="&#x26;" horiz-adv-x="723" 
d="M645 423q8 0 13.5 -5t5.5 -13v-110q0 -8 -5.5 -13t-13.5 -5h-14h-1q-8 0 -13 -5.5t-5 -13.5v-141q0 -24 -9.5 -45.5t-25 -37.5t-37 -25t-45.5 -9h-302q-24 0 -45.5 9t-37.5 25t-25 37.5t-9 45.5v117v19q0 8 3.5 17.5t8.5 15.5l12 14l9 11l9 10q5 6 10 14t5 16q1 8 -4 15
t-10 13l-32 41q-5 6 -8 15.5t-3 17.5v130q0 24 9 45.5t25 37t37.5 25t45.5 9.5h400q8 0 13.5 -5.5t5.5 -13.5v-115q0 -8 -5.5 -13t-13.5 -5h-332q-8 0 -13.5 -5.5t-5.5 -13.5v-87q0 -8 5.5 -13.5t13.5 -5.5h384zM451 290h-215v-137h215v137z" />
    <glyph glyph-name="one" unicode="1" horiz-adv-x="373" 
d="M276 700q19 0 19 -19v-662q0 -19 -19 -19h-138q-19 0 -19 19v494q0 4 -4.5 3.5t-10.5 -5.5l-49 -38q-6 -5 -10.5 -2.5t-4.5 10.5v140q0 8 4.5 16.5t10.5 13.5l49 38q6 5 16 8t18 3h23h115v0z" />
    <glyph glyph-name="two" unicode="2" horiz-adv-x="682" 
d="M250 279q-14 0 -18 -16v-89q3 -15 18 -15h20h316q8 0 13 -5.5t5 -13.5v-121q0 -8 -5 -13.5t-13 -5.5h-314h-43h-37h-1h-97q-19 0 -19 19v97v1v11v170v7q0 24 9 45t25 37t37.5 25t45.5 9h40h40h108h49q8 0 13.5 5.5t5.5 13.5v81q0 8 -5.5 13.5t-13.5 5.5h-53h-261
q-8 0 -13 5t-5 13v123q0 8 5 13.5t13 5.5h293h38h42q24 0 45 -9.5t37 -25t25 -37t9 -45.5v-5v-23q1 -1 1 -3v-255q0 -8 -5.5 -13t-13.5 -5h-98h-21h-19h-40h-146h-12v0z" />
    <glyph glyph-name="three" unicode="3" horiz-adv-x="690" 
d="M573 379q-5 -5 -10 -12.5t-5 -15.5q1 -8 6 -16t10 -14l9 -10l8 -11l12 -14q5 -6 9 -15.5t4 -17.5v-136q0 -24 -9.5 -45.5t-25 -37.5t-37 -25t-45.5 -9h-155h-198h-47q-19 0 -19 19v45v8v63q0 8 5.5 13t13.5 5h80h180h72q8 0 13 5.5t5 13.5v86q0 8 -5 13.5t-13 5.5h-79
h-127h-62q-8 0 -13 5t-5 13v110q0 8 5 13t13 5h199h69q8 0 13 5.5t5 13.5v87q0 8 -5 13.5t-13 5.5h-332q-8 0 -13.5 5t-5.5 13v115q0 19 19 19h400q24 0 45.5 -9.5t37 -25t25 -37t9.5 -45.5v-130q0 -8 -3.5 -17.5t-8.5 -15.5l-21 -28z" />
    <glyph glyph-name="four" unicode="4" horiz-adv-x="651" 
d="M553 700q8 0 13.5 -5.5t5.5 -13.5v-178v-59v-425q0 -8 -5.5 -13.5t-13.5 -5.5h-139q-8 0 -13 5.5t-5 13.5v164q0 8 -5.5 13t-13.5 5h-223q-24 0 -45.5 9.5t-37.5 25t-25 37t-9 45.5v111v15v112v27v98q0 19 19 19h138q19 0 19 -19v-109v-35v-93v-48q0 -8 5.5 -13.5
t13.5 -5.5h145q8 0 13.5 5.5t5.5 13.5v48v22v98v117q0 8 5 13.5t13 5.5h139v0z" />
    <glyph glyph-name="five" unicode="5" horiz-adv-x="682" 
d="M493 421q24 0 45.5 -9t37 -25t25 -37t9.5 -45v-7v-170v-11q0 -24 -9.5 -45.5t-25 -37.5t-37 -25t-45.5 -9h-37h-43h-314q-8 0 -13.5 5.5t-5.5 13.5v121q0 8 5.5 13.5t13.5 5.5h316h20q8 0 13 5t5 13v83q0 8 -5 13.5t-13 5.5h-12h-146h-40h-19h-21h-98q-8 0 -13.5 5
t-5.5 13v384q0 19 19 19h98h21h21h38h293q8 0 13 -5.5t5 -13.5v-123q0 -8 -5 -13t-13 -5h-261h-53q-8 0 -13.5 -5.5t-5.5 -13.5v-81q0 -8 5.5 -13.5t13.5 -5.5h49h108h40h40v0z" />
    <glyph glyph-name="six" unicode="6" horiz-adv-x="650" 
d="M497 499q24 0 45.5 -9.5t37 -25t25 -37t9.5 -45.5v-265q0 -24 -9.5 -45.5t-25 -37.5t-37 -25t-45.5 -9h-301q-24 0 -45.5 9t-37.5 25t-25 37.5t-9 45.5v50v30v484q0 19 19 19h138q19 0 19 -19v-164q0 -8 5.5 -13t13.5 -5h223zM444 335h-195v-176h195v176z" />
    <glyph glyph-name="seven" unicode="7" horiz-adv-x="607" 
d="M555 700q8 0 13 -5.5t5 -13.5v-132q0 -8 -2.5 -18t-6.5 -17l-48 -93l-198 -375l-16 -30q-3 -7 -11 -11.5t-16 -4.5h-159q-18 0 -11 16l34 65l237 456h-65h-166h-81q-8 0 -13.5 5t-5.5 13v126q0 19 19 19h44h212h235v0z" />
    <glyph glyph-name="eight" unicode="8" horiz-adv-x="685" 
d="M568 379q-5 -5 -10 -12.5t-5 -15.5q1 -8 6 -16t10 -14l9 -10l8 -11l13 -14q5 -6 8.5 -15.5t3.5 -17.5v-93v-43q0 -5 -0.5 -9.5t-1.5 -9.5q0 -3 -1 -5q-1 -8 -5 -17q-1 -3 -3 -7q-3 -7 -7 -14q-2 -2 -2 -4q-1 -1 -1.5 -1t-1.5 -1q-2 -4 -4 -6q-1 -3 -4 -4q-1 -2 -4 -5
l-4 -4q-2 -1 -4 -3t-3 -2.5t-3 -2.5q-1 -1 -1.5 -1t-1.5 -1l-4 -2q-8 -5 -17.5 -9.5t-20.5 -6.5h-5q-5 -1 -9 -1.5t-9 -0.5h-302q-8 0 -12 1q-22 2 -41 12t-33.5 25.5t-22.5 35.5t-8 43v43v93q0 8 3.5 17.5t8.5 15.5l12 14l9 11l9 10q5 6 10 14t5 16q1 8 -4 15.5t-10 12.5
l-10 13l-22 28q-5 6 -8 15.5t-3 17.5v130q0 24 9 45.5t25 37t37.5 25t45.5 9.5h108h39h74h81q24 0 45.5 -9.5t37 -25t25 -37t9.5 -45.5v-130q0 -8 -3.5 -17.5t-8.5 -15.5l-21 -28zM444 290h-203v-13v-117v-7h203v7v117v13zM444 548h-203v-26v-80v-19h19h88h78h18v19v80v26z
" />
    <glyph glyph-name="nine" unicode="9" horiz-adv-x="649" 
d="M454 700q24 0 45.5 -9.5t37 -25t25 -37t9.5 -45.5v-50v-30v-484q0 -8 -5.5 -13.5t-13.5 -5.5h-139q-8 0 -13 5.5t-5 13.5v164q0 8 -5.5 13t-13.5 5h-223q-24 0 -45.5 9.5t-37.5 25t-25 37t-9 45.5v265q0 24 9 45.5t25 37t37.5 25t45.5 9.5h207h94zM401 541h-195v-176h195
v176z" />
    <glyph glyph-name="zero" unicode="0" horiz-adv-x="689" 
d="M495 700q24 0 45.5 -9.5t37 -25t25 -37t9.5 -45.5v-466q0 -24 -9.5 -45.5t-25 -37.5t-37 -25t-45.5 -9h-100h-31h-33h-47h-90q-24 0 -45.5 9t-37.5 25t-25 37.5t-9 45.5v466q0 24 9 45.5t25 37t37.5 25t45.5 9.5h90h47h33h31h100zM442 530h-195v-360h195v360z" />
    <glyph glyph-name="Oslash" unicode="&#xd8;" horiz-adv-x="689" 
d="M495 700q24 0 45.5 -9.5t37 -25t25 -37t9.5 -45.5v-466q0 -24 -9.5 -45.5t-25 -37.5t-37 -25t-45.5 -9h-100h-31h-33h-47h-90q-24 0 -45.5 9t-37.5 25t-25 37.5t-9 45.5v466q0 24 9 45.5t25 37t37.5 25t45.5 9.5h90h47h33h31h100zM240 537v-297l148 297h-148zM449 163
v297l-148 -297h148z" />
    <glyph glyph-name="threesuperior" unicode="&#xb3;" 
 />
    <glyph glyph-name="twosuperior" unicode="&#xb2;" 
 />
    <glyph glyph-name="sterling" unicode="&#xa3;" horiz-adv-x="567" 
d="M531 170q8 0 13 -5.5t5 -13.5v-132q0 -8 -5 -13.5t-13 -5.5h-432q-19 0 -19 19v662q0 19 19 19h138q19 0 19 -19v-493q0 -8 5.5 -13t13.5 -5h256z" />
    <glyph glyph-name="currency" unicode="&#xa4;" 
 />
    <glyph glyph-name="yen" unicode="&#xa5;" horiz-adv-x="671" 
d="M598 700q8 0 13.5 -5.5t5.5 -13.5v-357q0 -24 -9.5 -45.5t-25 -37t-37 -25t-45.5 -9.5h-76v-188q0 -8 -5.5 -13.5t-13.5 -5.5h-139q-8 0 -13 5.5t-5 13.5v188h-76q-24 0 -45.5 9.5t-37.5 25t-25 37t-9 45.5v357q0 19 19 19h132q8 0 13.5 -5.5t5.5 -13.5v-298
q0 -8 5 -13.5t13 -5.5h185q19 0 19 19v298q0 19 19 19h132v0z" />
    <glyph glyph-name="section" unicode="&#xa7;" 
 />
    <glyph glyph-name="brokenbar" unicode="&#xa6;" 
 />
    <glyph glyph-name="copyright" unicode="&#xa9;" horiz-adv-x="430" 
d="M398 467q8 0 10.5 -4.5t-1.5 -11.5l-127 -218l-119 -201l-9 -16q-4 -7 -12 -11.5t-16 -4.5h-19h-31h-19q-8 0 -11 5t0 12l144 349q3 7 -0.5 12t-11.5 5h-105h-18q-8 0 -11 4.5t1 11.5l9 17l70 125l78 143q4 6 12 11t16 5h75h57h19q8 0 10.5 -4.5t-1.5 -11.5l-61 -109
l-53 -92q-4 -7 -1 -11.5t11 -4.5h95h19v0z" />
    <glyph glyph-name="registered" unicode="&#xae;" 
 />
    <glyph glyph-name="guillemotleft" unicode="&#xab;" 
 />
    <glyph glyph-name="question" unicode="?" horiz-adv-x="537" 
d="M287 19q0 -8 -5 -13.5t-13 -5.5h-139q-8 0 -13.5 5.5t-5.5 13.5v138q0 8 5.5 13.5t13.5 5.5h139q8 0 13 -5.5t5 -13.5v-138zM377 700q24 0 45 -9.5t37 -25t25 -37t9 -45.5v-339q0 -8 -5 -13.5t-13 -5.5h-345q-8 0 -13.5 5.5t-5.5 13.5v119q0 8 5.5 13.5t13.5 5.5h168
q19 0 19 19v111q0 8 -5.5 13t-13.5 5h-213q-8 0 -13.5 5.5t-5.5 13.5v132q0 19 19 19h292z" />
    <glyph glyph-name="questiondown" unicode="&#xbf;" horiz-adv-x="538" 
d="M251 681q0 8 5 13.5t13 5.5h139q8 0 13.5 -5.5t5.5 -13.5v-139q0 -8 -5.5 -13t-13.5 -5h-139q-8 0 -13 5t-5 13v139zM162 0h292q8 0 13 5.5t5 13.5v132q0 8 -5 13.5t-13 5.5h-214q-8 0 -13.5 5t-5.5 13v111q0 8 5.5 13.5t13.5 5.5h168q8 0 13.5 5.5t5.5 13.5v119
q0 8 -5.5 13t-13.5 5h-344q-8 0 -13.5 -5t-5.5 -13v-339q0 -24 9 -45.5t25 -37.5t37.5 -25t45.5 -9z" />
    <glyph glyph-name="exclam" unicode="!" horiz-adv-x="331" 
d="M254 19q0 -19 -19 -19h-138q-19 0 -19 19v138q0 19 19 19h138q19 0 19 -19v-138zM235 245q0 -8 -5.5 -13.5t-13.5 -5.5h-100q-8 0 -13.5 5.5t-5.5 13.5l-18 436q-1 8 4.5 13.5t13.5 5.5h138q8 0 13.5 -5.5t4.5 -13.5z" />
    <glyph glyph-name="exclamdown" unicode="&#xa1;" horiz-adv-x="330" 
d="M253 542q0 -8 -5.5 -13t-13.5 -5h-138q-8 0 -13.5 5t-5.5 13v139q0 19 19 19h138q19 0 19 -19v-139zM252 19q1 -8 -4.5 -13.5t-13.5 -5.5h-138q-8 0 -13.5 5.5t-4.5 13.5l18 436q0 8 5.5 13.5t13.5 5.5h100q8 0 13.5 -5.5t5.5 -13.5z" />
    <glyph glyph-name="at" unicode="@" horiz-adv-x="743" 
d="M549 698q24 0 45.5 -9.5t37 -25t25 -37t9.5 -45.5v-247q0 -8 -5.5 -13.5t-13.5 -5.5h-233q-19 0 -19 19v176q0 8 -5.5 13t-13.5 5h-103q-8 0 -13.5 -5t-5.5 -13v-324q0 -8 5.5 -13t13.5 -5h374q8 0 13.5 -5.5t5.5 -13.5v-132q0 -8 -5.5 -13.5t-13.5 -5.5h-452
q-24 0 -45.5 9t-37.5 25t-25 37.5t-9 45.5v18v430v18q0 24 9 45.5t25 37t37.5 25t45.5 9.5h354v0z" />
    <glyph glyph-name="dollar" unicode="$" horiz-adv-x="650" 
d="M477 421q24 0 45.5 -9t37 -25t25 -37t9.5 -45v-7v-170v-11q0 -24 -9.5 -45.5t-25 -37.5t-37 -25t-45.5 -9h-94v-49q0 -8 -5.5 -13.5t-13.5 -5.5h-76q-8 0 -13 5.5t-5 13.5v49h-192q-19 0 -19 19v121q0 8 5.5 13.5t13.5 5.5h198v120h-20h-40h-40q-24 0 -45.5 9t-37.5 25
t-25 37t-9 45v9v175v5q0 24 9 45t25 37t37.5 25t45.5 9h94v49q0 8 5 13.5t13 5.5h76q8 0 13.5 -5.5t5.5 -13.5v-49h171q8 0 13 -5t5 -13v-124q0 -8 -5 -13t-13 -5h-177v-119h20h40h40zM276 421v119h-42q-8 0 -13 -5.5t-5 -13.5v-81q0 -8 5 -13.5t13 -5.5h42zM437 260
q0 8 -5 13.5t-13 5.5h-42v-120h42q8 0 13 5t5 13v83z" />
    <glyph glyph-name="hyphen" unicode="-" horiz-adv-x="412" 
d="M334 254q0 -8 -5.5 -13.5t-13.5 -5.5h-216q-8 0 -13.5 5.5t-5.5 13.5v132q0 19 19 19h216q8 0 13.5 -5.5t5.5 -13.5v-132z" />
    <glyph glyph-name="endash" unicode="&#x2013;" horiz-adv-x="747" 
d="M668 254q0 -8 -5.5 -13.5t-13.5 -5.5h-550q-8 0 -13.5 5.5t-5.5 13.5v132q0 19 19 19h550q8 0 13.5 -5.5t5.5 -13.5v-132z" />
    <glyph glyph-name="OE" unicode="&#x152;" horiz-adv-x="1104" 
d="M1006 700q8 0 13.5 -5.5t5.5 -13.5v-57v-30v-39q0 -8 -5.5 -13t-13.5 -5h-71h-208h-56q-4 0 -4 -5v-109q0 -4 4 -4h286q8 0 13.5 -5.5t5.5 -13.5v-100q0 -8 -5.5 -13.5t-13.5 -5.5h-286q-4 0 -4 -5v-49v-1v-58q0 -5 4 -5h42h227h66q19 0 19 -19v-40v-52v-33
q0 -19 -19 -19h-57h-399h-354q-24 0 -45.5 9t-37.5 25t-25 37.5t-9 45.5v466q0 24 9 45.5t25 37t37.5 25t45.5 9.5h779h31zM255 169h235v361h-235v-361z" />
    <glyph glyph-name="guilsinglleft" unicode="&#x2039;" 
 />
    <glyph glyph-name="emdash" unicode="&#x2014;" horiz-adv-x="899" 
d="M820 254q0 -8 -5.5 -13.5t-13.5 -5.5h-702q-8 0 -13.5 5.5t-5.5 13.5v132q0 19 19 19h702q8 0 13.5 -5.5t5.5 -13.5v-132z" />
    <glyph glyph-name="tilde" unicode="&#x2dc;" horiz-adv-x="361" 
d="M323 862q4 -4 4 -10l-3 -24q-2 -11 -12 -16l-8 -3l-134 -59q-4 -2 -6 -2t-3 1q-6 0 -9 4q-4 4 -3 10l4 34l-101 -26q-1 -1 -4 -1q-6 0 -10 4q-4 6 -3 11l3 23q2 13 12 16l7 4l134 59q2 1 6 1h3q4 0 10 -4q3 -5 3 -11l-5 -34l102 27q1 0 1.5 0.5t2.5 0.5q6 0 9 -5z" />
    <glyph glyph-name="AE" unicode="&#xc6;" horiz-adv-x="1104" 
d="M1006 700q8 0 13.5 -5.5t5.5 -13.5v-57v-30v-39q0 -8 -5.5 -13t-13.5 -5h-71h-208h-56q-4 0 -4 -5v-109q0 -4 4 -4h286q8 0 13.5 -5.5t5.5 -13.5v-100q0 -8 -5.5 -13.5t-13.5 -5.5h-286q-4 0 -4 -5v-49v-1v-58q0 -5 4 -5h42h227h66q19 0 19 -19v-40v-52v-33
q0 -19 -19 -19h-57h-440q-5 0 -7 1q-12 5 -12 18v34v145q0 8 -5 13t-13 5h-198q-8 0 -13.5 -5t-5.5 -13v-179q0 -19 -19 -19h-138q-19 0 -19 19v564q0 24 9 45.5t25 37t37.5 25t45.5 9.5h779h31zM490 367v176h-235v-176h235z" />
    <glyph glyph-name="florin" unicode="&#x192;" horiz-adv-x="635" 
d="M596 700q8 0 13.5 -5.5t5.5 -13.5v-132q0 -8 -5.5 -13.5t-13.5 -5.5h-335q-5 0 -5 -4v-109q0 -5 5 -5h254q8 0 13 -5.5t5 -13.5v-125q0 -8 -5 -13.5t-13 -5.5h-254q-5 0 -5 -5v-225q0 -19 -19 -19h-138q-19 0 -19 19v662q0 19 19 19h497v0z" />
    <glyph glyph-name="Euro" unicode="&#x20ac;" 
 />
    <glyph glyph-name="dagger" unicode="&#x2020;" horiz-adv-x="412" 
d="M334 254q0 -8 -5.5 -13.5t-13.5 -5.5h-216q-8 0 -13.5 5.5t-5.5 13.5v132q0 19 19 19h216q8 0 13.5 -5.5t5.5 -13.5v-132z" />
    <glyph glyph-name="daggerdbl" unicode="&#x2021;" horiz-adv-x="340" 
 />
    <glyph glyph-name="trademark" unicode="&#x2122;" horiz-adv-x="830" 
d="M332 624q0 -10 -10 -10h-71q-9 0 -9 -8v-248q0 -10 -10 -10h-70q-9 0 -9 10v248q0 3 -3 5.5t-6 2.5h-72q-9 0 -9 10v66q0 10 9 10h72h18h70h19h71q10 0 10 -10v-66zM743 700q8 -2 8 -10v-331q0 -10 -9 -10h-70q-8 0 -8 10v174q-19 -47 -33 -84q-13 -32 -23 -59t-11 -29
l-2 -3q-1 -3 -5 -6t-8 -3h-58q-4 0 -7.5 3t-5.5 6l-1 3q-1 2 -11.5 29t-22.5 59l-32 84v-175q0 -5 -3 -7.5t-6 -2.5h-70q-10 0 -10 10v332q0 5 4 9q1 0 2.5 0.5t2.5 0.5h1h70h4q5 0 8.5 -3t5.5 -6l101 -235l100 235q2 3 5 6t8 3h5h70h1z" />
    <glyph glyph-name="onequarter" unicode="&#xbc;" horiz-adv-x="1666" 
 />
    <glyph glyph-name="onehalf" unicode="&#xbd;" horiz-adv-x="1666" 
 />
    <glyph glyph-name="threequarters" unicode="&#xbe;" horiz-adv-x="1666" 
 />
    <glyph glyph-name="Eth" unicode="&#xd0;" horiz-adv-x="680" 
 />
    <glyph glyph-name="divide" unicode="&#xf7;" 
 />
    <glyph glyph-name="oslash" unicode="&#xf8;" 
 />
    <glyph glyph-name="minus" unicode="&#x2212;" horiz-adv-x="747" 
d="M668 254q0 -8 -5.5 -13.5t-13.5 -5.5h-550q-8 0 -13.5 5.5t-5.5 13.5v132q0 19 19 19h550q8 0 13.5 -5.5t5.5 -13.5v-132z" />
    <glyph glyph-name="plus" unicode="+" horiz-adv-x="636" 
d="M612 254q0 -8 -5.5 -13.5t-13.5 -5.5h-169q-8 0 -13 -5t-5 -13v-175q0 -8 -5.5 -13.5t-13.5 -5.5h-139q-8 0 -13 5.5t-5 13.5v175q0 8 -5.5 13t-13.5 5h-168q-8 0 -13.5 5.5t-5.5 13.5v132q0 19 19 19h168q8 0 13.5 5.5t5.5 13.5v168q0 8 5 13.5t13 5.5h139
q8 0 13.5 -5.5t5.5 -13.5v-168q0 -8 5 -13.5t13 -5.5h169q8 0 13.5 -5.5t5.5 -13.5v-132z" />
    <glyph glyph-name="equal" unicode="=" horiz-adv-x="686" 
d="M607 129q0 -8 -5.5 -13.5t-13.5 -5.5h-489q-8 0 -13.5 5.5t-5.5 13.5v119q0 19 19 19h489q8 0 13.5 -5.5t5.5 -13.5v-119zM607 386q0 -8 -5.5 -13.5t-13.5 -5.5h-489q-19 0 -19 19v119q0 8 5.5 13.5t13.5 5.5h489q8 0 13.5 -5.5t5.5 -13.5v-119z" />
    <glyph glyph-name="plusminus" unicode="&#xb1;" 
 />
    <glyph glyph-name="degree" unicode="&#xb0;" 
 />
    <glyph glyph-name="underscore" unicode="_" horiz-adv-x="786" 
d="M707 -151q0 -8 -5.5 -13.5t-13.5 -5.5h-589q-8 0 -13.5 5.5t-5.5 13.5v132q0 19 19 19h589q8 0 13.5 -5.5t5.5 -13.5v-132z" />
    <glyph glyph-name="semicolon" unicode=";" horiz-adv-x="309" 
d="M223 470q8 0 13.5 -5.5t5.5 -13.5v-139q0 -8 -5.5 -13t-13.5 -5h-138q-8 0 -13.5 5t-5.5 13v139q0 8 5.5 13.5t13.5 5.5h138zM223 176q19 0 19 -19v-116v-22q0 -8 -3 -18t-7 -17l-40 -60q-5 -7 -13 -11.5t-16 -4.5h-69q-8 0 -10.5 4.5t2.5 11.5l40 60q4 7 4.5 11.5
t-3.5 4.5h-42q-19 0 -19 19v138q0 19 19 19h138z" />
    <glyph glyph-name="comma" unicode="," horiz-adv-x="308" 
d="M226 176q19 0 19 -19v-116v-22q0 -8 -3 -18t-7 -17l-40 -60q-5 -7 -13 -11.5t-16 -4.5h-69q-8 0 -10.5 4.5t2.5 11.5l40 60q4 7 4.5 11.5t-3.5 4.5h-42q-19 0 -19 19v138q0 19 19 19h138v0z" />
    <glyph glyph-name="period" unicode="." horiz-adv-x="333" 
d="M237 176q19 0 19 -19v-138q0 -19 -19 -19h-138q-19 0 -19 19v138q0 19 19 19h138v0z" />
    <glyph glyph-name="ellipsis" unicode="&#x2026;" horiz-adv-x="807" 
d="M237 176q19 0 19 -19v-138q0 -19 -19 -19h-138q-19 0 -19 19v138q0 19 19 19h138zM473 176q19 0 19 -19v-138q0 -19 -19 -19h-138q-19 0 -19 19v138q0 19 19 19h138zM709 176q19 0 19 -19v-138q0 -19 -19 -19h-138q-19 0 -19 19v138q0 19 19 19h138z" />
    <glyph glyph-name="quotesinglbase" unicode="&#x201a;" 
 />
    <glyph glyph-name="colon" unicode=":" horiz-adv-x="333" 
d="M237 176q19 0 19 -19v-138q0 -19 -19 -19h-138q-19 0 -19 19v138q0 19 19 19h138zM237 470q8 0 13.5 -5.5t5.5 -13.5v-139q0 -8 -5.5 -13t-13.5 -5h-138q-8 0 -13.5 5t-5.5 13v139q0 8 5.5 13.5t13.5 5.5h138z" />
    <glyph glyph-name="bullet" unicode="&#x2022;" horiz-adv-x="333" 
d="M237 352q8 0 13.5 -5t5.5 -13v-139q0 -8 -5.5 -13.5t-13.5 -5.5h-138q-8 0 -13.5 5.5t-5.5 13.5v139q0 8 5.5 13t13.5 5h138v0z" />
    <glyph glyph-name="quotedblright" unicode="&#x201d;" horiz-adv-x="544" 
d="M94 524q-8 0 -13.5 5t-5.5 13v139q0 19 19 19h138q19 0 19 -19v-116v-23q0 -8 -2.5 -17.5t-7.5 -16.5l-40 -61q-5 -6 -13 -10.5t-16 -4.5h-69q-8 0 -10.5 4.5t2.5 10.5l40 61q4 7 4.5 11.5t-3.5 4.5h-42zM314 524q-8 0 -13.5 5t-5.5 13v139q0 8 5.5 13.5t13.5 5.5h139
q8 0 13.5 -5.5t5.5 -13.5v-116v-23q0 -8 -3 -17.5t-8 -16.5l-39 -61q-5 -6 -13 -10.5t-16 -4.5h-69q-8 0 -10.5 4.5t1.5 10.5l40 61q5 7 5 11.5t-4 4.5h-42z" />
    <glyph glyph-name="quoteright" unicode="&#x2019;" horiz-adv-x="307" 
d="M87 524q-8 0 -13.5 5t-5.5 13v139q0 19 19 19h138q19 0 19 -19v-116v-23q0 -8 -2.5 -17.5t-7.5 -16.5l-40 -61q-5 -6 -13 -10.5t-16 -4.5h-69q-8 0 -10.5 4.5t2.5 10.5l40 61q4 7 4.5 11.5t-3.5 4.5h-42v0z" />
    <glyph glyph-name="quotedblleft" unicode="&#x201c;" horiz-adv-x="544" 
d="M451 608q8 0 13.5 -5.5t5.5 -13.5v-139q0 -8 -5.5 -13t-13.5 -5h-139q-8 0 -13.5 5t-5.5 13v116v23q0 8 3 18t8 17l40 60q4 7 12 11.5t16 4.5h69q8 0 10.5 -4.5t-1.5 -11.5l-40 -60q-5 -7 -5 -11.5t4 -4.5h42zM230 608q8 0 13.5 -5.5t5.5 -13.5v-139q0 -8 -5.5 -13
t-13.5 -5h-138q-8 0 -13.5 5t-5.5 13v116v23q0 8 3 18t7 17l40 60q5 7 13 11.5t16 4.5h69q8 0 10.5 -4.5t-2.5 -11.5l-40 -60q-4 -7 -4.5 -11.5t3.5 -4.5h42z" />
    <glyph glyph-name="quoteleft" unicode="&#x2018;" horiz-adv-x="309" 
d="M222 608q8 0 13.5 -5.5t5.5 -13.5v-139q0 -8 -5.5 -13t-13.5 -5h-138q-8 0 -13.5 5t-5.5 13v116v23q0 8 3 18t7 17l40 60q5 7 13 11.5t16 4.5h69q8 0 10.5 -4.5t-2.5 -11.5l-40 -60q-4 -7 -4.5 -11.5t3.5 -4.5h42v0z" />
    <glyph glyph-name="quotedbl" unicode="&#x22;" horiz-adv-x="499" 
d="M218 523q-1 -8 -6.5 -13t-13.5 -5h-87q-8 0 -13.5 5t-6.5 13l-17 231q-1 8 4 13.5t13 5.5h126q8 0 13 -5.5t5 -13.5zM409 523q-1 -8 -6.5 -13t-13.5 -5h-87q-8 0 -13.5 5t-6.5 13l-17 231q0 19 18 19h125q8 0 13.5 -5.5t4.5 -13.5z" />
    <glyph glyph-name="quotesingle" unicode="'" horiz-adv-x="291" 
d="M208 523q-1 -8 -6.5 -13t-13.5 -5h-87q-8 0 -13.5 5t-6.5 13l-17 231q-1 8 4 13.5t13 5.5h126q8 0 13 -5.5t5 -13.5z" />
    <glyph glyph-name="numbersign" unicode="#" horiz-adv-x="875" 
d="M324 18q-1 -8 -7 -13t-14 -5h-136q-8 0 -12.5 5t-3.5 13l11 88h-92q-8 0 -13 5.5t-4 13.5l16 126q1 8 7 13t14 5h92l17 156h-92q-8 0 -13 5.5t-3 13.5l16 125q2 19 21 19h92l11 93q2 8 7.5 13.5t13.5 5.5h136q8 0 13 -5.5t3 -13.5l-11 -93l-21 -169l-6 -52l-37 -304z
M805 588q8 0 13 -5t4 -13l-16 -126q-1 -8 -7 -13.5t-14 -5.5h-94l-17 -156h94q8 0 12.5 -5t3.5 -13l-16 -126q-1 -8 -7 -13t-14 -5h-93l-11 -89q-1 -8 -7 -13t-14 -5h-136q-8 0 -12.5 5t-3.5 13l11 88l20 170l17 143l21 169l11 93q1 8 7 13.5t14 5.5h136q8 0 12.5 -5.5
t3.5 -13.5l-11 -93h93z" />
    <glyph glyph-name="asterisk" unicode="*" horiz-adv-x="401" 
d="M363 664q3 -8 0 -14t-11 -8l-105 -22l81 -71q5 -5 5 -12t-6 -12l-48 -40q-6 -5 -13 -3.5t-11 8.5l-52 93l-45 -97q-3 -8 -9.5 -10t-13.5 3l-51 35q-15 10 -3 24l74 77l-106 14q-8 2 -11.5 7.5t-1.5 13.5l18 59q2 8 8.5 10.5t13.5 -1.5l96 -48l-18 106q-2 8 3 13t13 5h62
q8 0 12.5 -5t2.5 -13l-17 -101l87 54q7 4 13.5 2t9.5 -10l23 -57v0z" />
    <glyph glyph-name="asciicircum" unicode="^" horiz-adv-x="504" 
d="M461 437q7 -17 -12 -17h-63q-8 0 -15.5 4.5t-9.5 12.5l-109 269l-109 -269q-2 -8 -9.5 -12.5t-15.5 -4.5h-63q-19 0 -12 17l142 340q3 8 10.5 12.5t15.5 4.5h19h44h19q8 0 15.5 -4.5t10.5 -12.5l142 -340v0z" />
    <glyph glyph-name="greater" unicode="&#x3e;" horiz-adv-x="632" 
d="M603 406q17 -7 17 -26v-27v-81v-27q0 -19 -17 -26l-508 -212q-7 -3 -12 0.5t-5 11.5v108q0 8 5 15t12 10l397 161l-397 160q-7 3 -12 10t-5 15v108q0 8 5 11.5t12 0.5l508 -212v0z" />
    <glyph glyph-name="less" unicode="&#x3c;" horiz-adv-x="631" 
d="M554 498q0 -8 -4.5 -15t-12.5 -10l-397 -160l397 -161q8 -3 12.5 -10t4.5 -15v-108q0 -19 -17 -12l-508 212q-7 3 -12 10.5t-5 15.5v27v81v27q0 8 5 15.5t12 10.5l508 212q17 7 17 -12v-108v0z" />
    <glyph glyph-name="bar" unicode="|" horiz-adv-x="325" 
d="M248 -101q0 -8 -5 -13t-13 -5h-131q-8 0 -13.5 5t-5.5 13v898q0 8 5.5 13t13.5 5h131q8 0 13 -5t5 -13v-898z" />
    <glyph glyph-name="slash" unicode="/" horiz-adv-x="391" 
d="M350 766q8 -2 12.5 -8t2.5 -14l-172 -822q-2 -8 -8 -12.5t-14 -2.5l-129 27q-8 2 -12.5 8t-2.5 14l172 823q2 8 8 12t14 2l129 -27v0z" />
    <glyph glyph-name="backslash" unicode="\" horiz-adv-x="391" 
d="M364 -44q2 -8 -2.5 -14t-12.5 -8l-129 -27q-8 -2 -14 2.5t-8 12.5l-172 822q-2 8 2.5 14t12.5 8l129 27q8 2 14 -2t8 -12z" />
    <glyph glyph-name="braceright" unicode="}" horiz-adv-x="469" 
d="M432 362q-2 -11 -4 -16q-2 -4 -4 -6q-1 -1 -1.5 -2t-1.5 -2q-3 -6 -8 -11l-5 -6q-3 -3 -4 -5l-2 -2q-2 -2 -4 -5q-2 -2 -3.5 -4t-2.5 -3l-2 -2l-6 -7q-3 -4 -10 -16t-9 -18t-2.5 -16t-0.5 -18v-160v-7v-11v-12v-7v-14v-18v-19v-44v-19v-14v-15q0 -24 -9.5 -45t-25 -37
t-37 -25t-45.5 -9h-15h-15h-19h-7h-18h-19h-45h-18q-8 0 -13.5 5t-5.5 13v19v87v19q0 8 5.5 13.5t13.5 5.5h18h68q8 0 13.5 5t5.5 13v806q0 8 -5.5 13.5t-13.5 5.5h-68h-18q-8 0 -13.5 5t-5.5 13v19v87v19q0 8 5.5 13.5t13.5 5.5h18h45h19h18h7h19h15h15q24 0 45.5 -9.5
t37 -25t25 -37t9.5 -45.5v-8v-8v-18v-45v-7v-12v-11v-7v-196q0 -8 2 -23.5t5 -21.5t8.5 -14.5t10.5 -14.5l3 -4q5 -6 10 -13t7 -10q3 -3 8.5 -9.5t10.5 -12.5q2 -3 3 -6t1.5 -6t0.5 -8z" />
    <glyph glyph-name="braceleft" unicode="{" horiz-adv-x="466" 
d="M36 362q-1 5 0 8t3 6t3 6q5 6 10 12.5t8 9.5q2 3 7 10t10 13l4 4q5 6 10 14.5t8 14.5t5 21.5t2 23.5v196v7v11v12v7v45v18v8v8q0 24 9.5 45.5t25 37t37 25t45.5 9.5h15h15h19h7h18h19h45h18q8 0 13.5 -5.5t5.5 -13.5v-19v-87v-19q0 -8 -5.5 -13t-13.5 -5h-18h-68
q-8 0 -13 -5.5t-5 -13.5v-806q0 -8 5 -13t13 -5h68h18q8 0 13.5 -5.5t5.5 -13.5v-19v-87v-19q0 -8 -5.5 -13t-13.5 -5h-18h-45h-19h-18h-7h-19h-15h-15q-24 0 -45.5 9t-37 25t-25 37t-9.5 45v15v14v19v44v19v18v14v7v12v11v7v160q0 8 -0.5 18t-2.5 16t-9 18t-10 16l-6 7
l-2 2q-2 1 -6 7q-2 3 -4 5l-2 2q-1 2 -4 5l-5 6q-5 5 -8 11q-1 1 -1.5 2t-1.5 2q-2 2 -4 6q-4 8 -4 16z" />
    <glyph glyph-name="parenright" unicode=")" horiz-adv-x="435" 
d="M242 934q24 0 45.5 -9.5t37 -25t25 -37t9.5 -45.5v-8v-8v-18v-58v-18v-19v-676v-18v-19v-44v-19v-14v-15q0 -24 -9.5 -45t-25 -37t-37 -25t-45.5 -9h-15h-15h-19h-7h-18h-19h-45h-18q-8 0 -13.5 5t-5.5 13v19v87v19q0 8 5.5 13.5t13.5 5.5h18h68q8 0 13.5 5t5.5 13v806
q0 8 -5.5 13.5t-13.5 5.5h-68h-18q-8 0 -13.5 5t-5.5 13v19v87v19q0 8 5.5 13.5t13.5 5.5h18h45h19h18h7h19h15h15v0z" />
    <glyph glyph-name="parenleft" unicode="(" horiz-adv-x="436" 
d="M195 934h15h15h19h6h19h19h45h18q8 0 13.5 -5.5t5.5 -13.5v-19v-87v-19q0 -8 -5.5 -13t-13.5 -5h-18h-68q-8 0 -13.5 -5.5t-5.5 -13.5v-806q0 -8 5.5 -13t13.5 -5h68h18q8 0 13.5 -5.5t5.5 -13.5v-19v-87v-19q0 -8 -5.5 -13t-13.5 -5h-18h-45h-19h-19h-6h-19h-15h-15
q-24 0 -45.5 9t-37.5 25t-25 37t-9 45v15v14v19v44v19v18v676v19v18v58v18v8v8q0 24 9 45.5t25 37t37.5 25t45.5 9.5z" />
    <glyph glyph-name="bracketright" unicode="]" horiz-adv-x="437" 
d="M340 934q8 0 13.5 -5.5t5.5 -13.5v-17v-17v-19v-60v-18v-19v-830v-19v-18v-65v-19v-14v-15q0 -8 -5.5 -13t-13.5 -5h-18h-218h-18q-8 0 -13.5 5t-5.5 13v19v87v19q0 8 5.5 13.5t13.5 5.5h18h68q8 0 13.5 5t5.5 13v806q0 8 -5.5 13.5t-13.5 5.5h-68h-18q-8 0 -13.5 5
t-5.5 13v19v87v19q0 8 5.5 13.5t13.5 5.5h18h218h18v0z" />
    <glyph glyph-name="bracketleft" unicode="[" horiz-adv-x="438" 
d="M99 934h18h218h18q8 0 13.5 -5.5t5.5 -13.5v-19v-87v-19q0 -8 -5.5 -13t-13.5 -5h-18h-68q-8 0 -13.5 -5.5t-5.5 -13.5v-806q0 -8 5.5 -13t13.5 -5h68h18q8 0 13.5 -5.5t5.5 -13.5v-19v-87v-19q0 -8 -5.5 -13t-13.5 -5h-18h-218h-18q-8 0 -13.5 5t-5.5 13v15v14v19v65v18
v19v830v19v18v60v19v17v17q0 8 5.5 13.5t13.5 5.5z" />
    <glyph glyph-name="percent" unicode="%" horiz-adv-x="786" 
d="M121 384q-22 0 -37.5 15t-15.5 37v211q0 22 15.5 37.5t37.5 15.5h41h21h15h13h46q22 0 37.5 -15.5t15.5 -37.5v-211q0 -22 -15.5 -37t-37.5 -15h-46h-13h-15h-21h-41zM151 617v-150h75v150h-75zM665 316q22 0 37.5 -15.5t15.5 -37.5v-210q0 -22 -15.5 -37.5t-37.5 -15.5
h-45h-14h-15h-21h-41q-22 0 -37.5 15.5t-15.5 37.5v210q0 22 15.5 37.5t37.5 15.5h41h21h15h14h45zM635 233h-76v-150h76v150zM664 700q8 0 10.5 -4.5t-1.5 -11.5l-385 -668q-4 -7 -12 -11.5t-16 -4.5h-139q-8 0 -11 4.5t2 11.5l385 668q4 7 12 11.5t16 4.5h139z" />
    <glyph glyph-name="fraction" unicode="&#x2044;" horiz-adv-x="597" 
d="M570 700q8 0 11 -4.5t-1 -11.5l-386 -668q-4 -7 -12 -11.5t-16 -4.5h-139q-8 0 -10.5 4.5t1.5 11.5l386 668q4 7 12 11.5t16 4.5h138v0z" />
    <glyph glyph-name="multiply" unicode="&#xd7;" 
 />
    <glyph glyph-name="Aacute" unicode="&#xc1;" horiz-adv-x="702" 
d="M527 700h-354q-24 0 -45.5 -9.5t-37.5 -25t-25 -37t-9 -45.5v-564q0 -19 19 -19h138q19 0 19 19v179q0 8 5.5 13t13.5 5h198q8 0 13 -5t5 -13v-179q0 -8 5.5 -13.5t13.5 -5.5h139q8 0 13.5 5.5t5.5 13.5v564q0 24 -9.5 45.5t-25 37t-37 25t-45.5 9.5zM232 367v176h235
v-176h-235zM271 760q-8 -2 -15 1.5t-10 11.5l-8 20q-3 7 -0.5 14.5t9.5 12.5l156 96q7 4 13.5 2t9.5 -10l35 -88q3 -7 0 -13t-11 -8z" />
    <glyph glyph-name="Agrave" unicode="&#xc0;" horiz-adv-x="701" 
d="M529 700q24 0 45.5 -9.5t37 -25t25 -37t9.5 -45.5v-564q0 -8 -5.5 -13.5t-13.5 -5.5h-139q-8 0 -13.5 5.5t-5.5 13.5v179q0 8 -5 13t-13 5h-198q-8 0 -13.5 -5t-5.5 -13v-179q0 -19 -19 -19h-138q-19 0 -19 19v564q0 24 9 45.5t25 37t37.5 25t45.5 9.5h354zM469 367v176
h-235v-176h235zM251 800q-8 2 -11 8t0 14l36 87q2 8 9 10t13 -2l156 -96q7 -4 9.5 -12t-0.5 -15l-8 -20q-3 -7 -10 -11t-15 -2z" />
    <glyph glyph-name="Acircumflex" unicode="&#xc2;" horiz-adv-x="713" 
d="M534 700q24 0 45.5 -9.5t37 -25t25 -37t9.5 -45.5v-564q0 -8 -5.5 -13.5t-13.5 -5.5h-139q-8 0 -13.5 5.5t-5.5 13.5v179q0 8 -5 13t-13 5h-198q-8 0 -13.5 -5t-5.5 -13v-179q0 -19 -19 -19h-138q-19 0 -19 19v564q0 24 9 45.5t25 37t37.5 25t45.5 9.5h354zM474 367v176
h-235v-176h235zM529 774q-2 -7 -9 -10t-15 -1l-131 45q-7 3 -17 3t-18 -3l-130 -45q-8 -2 -15 1t-10 10l-8 20q-3 7 -0.5 15t9.5 12l156 96q7 4 16 4t16 -4l156 -96q6 -4 8.5 -12t-0.5 -15z" />
    <glyph glyph-name="Adieresis" unicode="&#xc4;" horiz-adv-x="710" 
d="M532 700q24 0 45.5 -9.5t37 -25t25 -37t9.5 -45.5v-564q0 -8 -5.5 -13.5t-13.5 -5.5h-139q-8 0 -13.5 5.5t-5.5 13.5v179q0 8 -5 13t-13 5h-198q-8 0 -13.5 -5t-5.5 -13v-179q0 -19 -19 -19h-138q-19 0 -19 19v564q0 24 9 45.5t25 37t37.5 25t45.5 9.5h354zM472 367v176
h-235v-176h235zM435 860q20 0 35 -15t15 -36q0 -20 -15 -35t-35 -15q-21 0 -36 15t-15 35q0 21 15 36t36 15zM275 860q20 0 35 -15t15 -36q0 -20 -15 -35t-35 -15q-21 0 -36 15t-15 35q0 21 15 36t36 15z" />
    <glyph glyph-name="Atilde" unicode="&#xc3;" horiz-adv-x="709" 
d="M532 700q24 0 45.5 -9.5t37 -25t25 -37t9.5 -45.5v-564q0 -8 -5.5 -13.5t-13.5 -5.5h-139q-8 0 -13.5 5.5t-5.5 13.5v179q0 8 -5 13t-13 5h-198q-8 0 -13.5 -5t-5.5 -13v-179q0 -19 -19 -19h-138q-19 0 -19 19v564q0 24 9 45.5t25 37t37.5 25t45.5 9.5h354zM472 367v176
h-235v-176h235zM497 862q4 -4 4 -10l-3 -24q-2 -11 -12 -16l-8 -3l-134 -59q-4 -2 -6 -2t-3 1q-6 0 -9 4q-4 4 -3 10l4 34l-101 -26q-1 -1 -4 -1q-6 0 -10 4q-5 5 -3 11l3 23q0 5 3.5 9.5t8.5 6.5l7 4l134 59q2 1 6 1h3q4 0 10 -4q3 -5 3 -11l-5 -34l102 27q1 0 1.5 0.5
t2.5 0.5q6 0 9 -5z" />
    <glyph glyph-name="asciitilde" unicode="~" horiz-adv-x="361" 
d="M323 862q4 -4 4 -10l-3 -24q-2 -11 -12 -16l-8 -3l-134 -59q-4 -2 -6 -2t-3 1q-6 0 -9 4q-4 4 -3 10l4 34l-101 -26q-1 -1 -4 -1q-6 0 -10 4q-5 5 -3 11l3 23q0 5 3.5 9.5t8.5 6.5l7 4l134 59q2 1 6 1h3q4 0 10 -4q3 -5 3 -11l-5 -34l102 27q1 0 1.5 0.5t2.5 0.5
q6 0 9 -5z" />
    <glyph glyph-name="Aring" unicode="&#xc5;" horiz-adv-x="703" 
d="M529 700q24 0 45.5 -9.5t37 -25t25 -37t9.5 -45.5v-564q0 -8 -5.5 -13.5t-13.5 -5.5h-139q-8 0 -13.5 5.5t-5.5 13.5v179q0 8 -5 13t-13 5h-198q-8 0 -13.5 -5t-5.5 -13v-179q0 -19 -19 -19h-138q-19 0 -19 19v564q0 24 9 45.5t25 37t37.5 25t45.5 9.5h354zM469 367v176
h-235v-176h235zM352 899q32 0 54 -22.5t22 -54.5t-22 -54t-54 -22t-54.5 22t-22.5 54t22.5 54.5t54.5 22.5zM352 791q13 0 22 9t9 22q0 14 -9 22.5t-22 8.5t-22 -8.5t-9 -22.5q0 -13 9 -22t22 -9z" />
    <glyph glyph-name="ring" unicode="&#x2da;" horiz-adv-x="262" 
d="M132 899q32 0 54 -22.5t22 -54.5t-22 -54t-54 -22t-54.5 22t-22.5 54t22.5 54.5t54.5 22.5zM132 791q13 0 22 9t9 22q0 14 -9 22.5t-22 8.5t-22 -8.5t-9 -22.5q0 -13 9 -22t22 -9z" />
    <glyph glyph-name="Ccedilla" unicode="&#xc7;" horiz-adv-x="633" 
d="M250 530q-8 0 -13.5 -5t-5.5 -13v-324q0 -8 5.5 -13.5t13.5 -5.5h321q8 0 13.5 -5t5.5 -13v-132q0 -8 -5.5 -13.5t-13.5 -5.5h-182l-17 -29h27q7 0 11 -7q3 -5 0 -13l-73 -121l-3 -5q-5 -10 -17 -10h-22q-8 0 -11 6q-5 5 -1 12l37 92h-32q-8 0 -12 6q-4 7 1 13l30 56
h-117h-18q-24 0 -45.5 9t-37.5 25t-25 37.5t-9 45.5v18v73v233v65v77q0 24 9 45.5t25 37t37.5 25t45.5 9.5h18h381q8 0 13.5 -5.5t5.5 -13.5v-132q0 -8 -5.5 -13.5t-13.5 -5.5h-321v0z" />
    <glyph glyph-name="cedilla" unicode="&#xb8;" horiz-adv-x="209" 
d="M63 -185q-8 0 -11 6q-5 5 -1 12l37 92h-32q-8 0 -12 6q-4 7 1 13l50 91q2 5 7 7.5t10 2.5l49 1q7 0 11 -7q3 -6 0 -13l-32 -55h27q7 0 11 -7q3 -5 0 -13l-73 -121l-3 -5q-5 -10 -17 -10h-22z" />
    <glyph glyph-name="Eacute" unicode="&#xc9;" horiz-adv-x="642" 
d="M574 700h-32h-392h-73q-8 0 -13.5 -5.5t-5.5 -13.5v-48v-580v-34q0 -19 19 -19h60h380h57q8 0 13.5 5.5t5.5 13.5v33v52v40q0 8 -5.5 13.5t-13.5 5.5h-67h-226h-42q-5 0 -5 5v58v1v49q0 5 5 5h286q8 0 13 5.5t5 13.5v100q0 8 -5 13.5t-13 5.5h-286q-5 0 -5 4v109q0 5 5 5
h56h208h71q8 0 13.5 5t5.5 13v39v30v57q0 8 -5.5 13.5t-13.5 5.5zM247 760q-8 -2 -15 1.5t-10 11.5l-8 20q-3 7 -0.5 14.5t9.5 12.5l156 96q6 4 13 2t9 -10l36 -88q3 -7 0 -13t-11 -8z" />
    <glyph glyph-name="Egrave" unicode="&#xc8;" horiz-adv-x="640" 
d="M576 700q8 0 13.5 -5.5t5.5 -13.5v-57v-30v-39q0 -8 -5.5 -13t-13.5 -5h-71h-208h-56q-5 0 -5 -5v-109q0 -4 5 -4h286q8 0 13 -5.5t5 -13.5v-100q0 -8 -5 -13.5t-13 -5.5h-286q-5 0 -5 -5v-49v-1v-58q0 -5 5 -5h42h226h67q8 0 13.5 -5.5t5.5 -13.5v-40v-52v-33
q0 -8 -5.5 -13.5t-13.5 -5.5h-57h-380h-60q-19 0 -19 19v34v580v48q0 8 5.5 13.5t13.5 5.5h73h392h32zM227 800q-8 2 -11 8t0 14l35 88q3 7 9.5 9t13.5 -2l156 -96q7 -4 9.5 -12t-0.5 -15l-8 -20q-3 -7 -10 -11t-15 -2z" />
    <glyph glyph-name="Ecircumflex" unicode="&#xca;" horiz-adv-x="655" 
d="M505 774q-3 -7 -10 -10t-15 -1l-130 45q-8 3 -18 3t-17 -3l-131 -45q-8 -2 -15 1t-10 10l-7 20q-3 7 -0.5 15t8.5 12l156 96q7 4 16 4t16 -4l156 -96q7 -4 9.5 -12t-0.5 -15zM581 700q8 0 13.5 -5.5t5.5 -13.5v-57v-30v-39q0 -8 -5.5 -13t-13.5 -5h-71h-208h-56
q-5 0 -5 -5v-109q0 -4 5 -4h286q8 0 13 -5.5t5 -13.5v-100q0 -8 -5 -13.5t-13 -5.5h-286q-5 0 -5 -5v-49v-1v-58q0 -5 5 -5h42h226h67q8 0 13.5 -5.5t5.5 -13.5v-40v-52v-33q0 -8 -5.5 -13.5t-13.5 -5.5h-57h-380h-60q-19 0 -19 19v34v580v48q0 8 5.5 13.5t13.5 5.5h73h392
h32z" />
    <glyph glyph-name="circumflex" unicode="&#x2c6;" horiz-adv-x="451" 
d="M398 774q-3 -7 -10 -10t-15 -1l-130 45q-8 3 -18 3t-17 -3l-131 -45q-8 -2 -15 1t-10 10l-7 20q-3 7 -0.5 15t8.5 12l156 96q7 4 16 4t16 -4l156 -96q7 -4 9.5 -12t-0.5 -15z" />
    <glyph glyph-name="Edieresis" unicode="&#xcb;" horiz-adv-x="646" 
d="M580 700q8 0 13.5 -5.5t5.5 -13.5v-57v-30v-39q0 -8 -5.5 -13t-13.5 -5h-71h-208h-56q-5 0 -5 -5v-109q0 -4 5 -4h286q8 0 13 -5.5t5 -13.5v-100q0 -8 -5 -13.5t-13 -5.5h-286q-5 0 -5 -5v-49v-1v-58q0 -5 5 -5h42h226h67q8 0 13.5 -5.5t5.5 -13.5v-40v-52v-33
q0 -8 -5.5 -13.5t-13.5 -5.5h-57h-380h-60q-19 0 -19 19v34v580v48q0 8 5.5 13.5t13.5 5.5h73h392h32zM411 860q21 0 35.5 -15t14.5 -36q0 -20 -14.5 -35t-35.5 -15t-35.5 15t-14.5 35q0 21 14.5 36t35.5 15zM251 860q21 0 35.5 -15t14.5 -36q0 -20 -14.5 -35t-35.5 -15
t-35.5 15t-14.5 35q0 21 14.5 36t35.5 15z" />
    <glyph glyph-name="dieresis" unicode="&#xa8;" horiz-adv-x="400" 
d="M280 860q21 0 35.5 -15t14.5 -36q0 -20 -14.5 -35t-35.5 -15t-35.5 15t-14.5 35q0 21 14.5 36t35.5 15zM120 860q21 0 35.5 -15t14.5 -36q0 -20 -14.5 -35t-35.5 -15t-35.5 15t-14.5 35q0 21 14.5 36t35.5 15z" />
    <glyph glyph-name="Iacute" unicode="&#xcd;" horiz-adv-x="327" 
d="M249 19q0 -19 -19 -19h-138q-19 0 -19 19v662q0 8 5.5 13.5t13.5 5.5h138q8 0 13.5 -5.5t5.5 -13.5v-662zM83 760q-8 -2 -15.5 1.5t-10.5 11.5l-8 20q-2 7 0.5 14.5t8.5 12.5l156 96q7 4 13.5 2t9.5 -10l36 -88q2 -7 -1 -13t-11 -8z" />
    <glyph glyph-name="acute" unicode="&#xb4;" horiz-adv-x="291" 
d="M63 760q-8 -2 -15.5 1.5t-10.5 11.5l-8 20q-3 7 -0.5 14.5t9.5 12.5l156 96q7 4 13.5 2t9.5 -10l36 -88q2 -7 -1 -13t-11 -8z" />
    <glyph glyph-name="Igrave" unicode="&#xcc;" horiz-adv-x="325" 
d="M253 19q0 -19 -19 -19h-138q-19 0 -19 19v662q0 8 5.5 13.5t13.5 5.5h138q8 0 13.5 -5.5t5.5 -13.5v-662zM64 800q-8 2 -11 8t0 14l36 87q3 8 9.5 10t13.5 -2l156 -96q6 -4 8.5 -12t-0.5 -15l-7 -20q-3 -7 -10.5 -11t-15.5 -2z" />
    <glyph glyph-name="grave" unicode="`" horiz-adv-x="290" 
d="M51 800q-8 2 -11 8t0 14l36 87q3 8 9.5 10t13.5 -2l156 -96q6 -4 8.5 -12t-0.5 -15l-8 -20q-2 -7 -9.5 -11t-15.5 -2z" />
    <glyph glyph-name="Icircumflex" unicode="&#xce;" horiz-adv-x="432" 
d="M304 19q0 -19 -19 -19h-138q-19 0 -19 19v662q0 8 5.5 13.5t13.5 5.5h138q8 0 13.5 -5.5t5.5 -13.5v-662zM389 774q-3 -7 -10 -10t-15 -1l-130 45q-8 3 -18 3t-18 -3l-130 -45q-8 -2 -15 1t-10 10l-8 20q-3 7 -0.5 15t9.5 12l156 96q7 4 16 4t16 -4l156 -96q6 -4 8.5 -12
t0.5 -15z" />
    <glyph glyph-name="Idieresis" unicode="&#xcf;" horiz-adv-x="342" 
d="M259 19q0 -19 -19 -19h-138q-19 0 -19 19v662q0 8 5.5 13.5t13.5 5.5h138q8 0 13.5 -5.5t5.5 -13.5v-662zM251 860q21 0 35.5 -15t14.5 -36q0 -20 -14.5 -35t-35.5 -15t-35.5 15t-14.5 35q0 21 14.5 36t35.5 15zM91 860q21 0 35.5 -15t14.5 -36q0 -20 -14.5 -35
t-35.5 -15t-35.5 15t-14.5 35q0 21 14.5 36t35.5 15z" />
    <glyph glyph-name="Ntilde" unicode="&#xd1;" horiz-adv-x="712" 
d="M631 700q8 0 13.5 -5.5t5.5 -13.5v-662q0 -8 -5.5 -13.5t-13.5 -5.5h-132h-12q-8 0 -16 4.5t-12 11.5l-221 408v-405q0 -19 -19 -19h-138q-19 0 -19 19v662q0 8 5.5 13.5t13.5 5.5h142q8 0 16 -4.5t12 -11.5l222 -409v406q0 8 5.5 13.5t13.5 5.5h139zM498 862q4 -4 4 -10
l-3 -24q-2 -11 -12 -16l-8 -3l-134 -59q-4 -2 -6 -2t-3 1q-6 0 -9 4q-4 4 -3 10l4 34l-101 -26q-1 -1 -4 -1q-6 0 -10 4q-5 5 -3 11l3 23q0 5 3.5 9.5t8.5 6.5l7 4l134 59q2 1 6 1h3q4 0 10 -4q3 -5 3 -11l-5 -34l102 27q1 0 1.5 0.5t2.5 0.5q6 0 9 -5z" />
    <glyph glyph-name="Uacute" unicode="&#xda;" horiz-adv-x="703" 
d="M626 700h-139q-8 0 -13.5 -5.5t-5.5 -13.5v-493q0 -8 -5 -13.5t-13 -5.5h-198q-8 0 -13.5 5.5t-5.5 13.5v493q0 8 -5.5 13.5t-13.5 5.5h-138q-8 0 -13.5 -5.5t-5.5 -13.5v-564q0 -24 9 -45.5t25 -37.5t37.5 -25t45.5 -9h354q24 0 45.5 9t37 25t25 37.5t9.5 45.5v564
q0 8 -5.5 13.5t-13.5 5.5zM272 760q-8 -2 -15 1.5t-10 11.5l-8 20q-3 7 -0.5 14.5t9.5 12.5l156 96q7 4 13.5 2t9.5 -10l35 -88q3 -7 0 -13t-11 -8z" />
    <glyph glyph-name="Ugrave" unicode="&#xd9;" horiz-adv-x="703" 
d="M628 700q8 0 13.5 -5.5t5.5 -13.5v-564q0 -24 -9.5 -45.5t-25 -37.5t-37 -25t-45.5 -9h-354q-24 0 -45.5 9t-37.5 25t-25 37.5t-9 45.5v564q0 8 5.5 13.5t13.5 5.5h138q8 0 13.5 -5.5t5.5 -13.5v-493q0 -8 5.5 -13.5t13.5 -5.5h198q8 0 13 5.5t5 13.5v493q0 8 5.5 13.5
t13.5 5.5h139zM252 800q-8 2 -11 8t0 14l36 87q2 8 9 10t13 -2l156 -96q7 -4 9.5 -12t-0.5 -15l-8 -20q-3 -7 -10 -11t-15 -2z" />
    <glyph glyph-name="Ucircumflex" unicode="&#xdb;" horiz-adv-x="714" 
d="M632 700q8 0 13.5 -5.5t5.5 -13.5v-564q0 -24 -9.5 -45.5t-25 -37.5t-37 -25t-45.5 -9h-354q-24 0 -45.5 9t-37.5 25t-25 37.5t-9 45.5v564q0 8 5.5 13.5t13.5 5.5h138q8 0 13.5 -5.5t5.5 -13.5v-493q0 -8 5.5 -13.5t13.5 -5.5h198q8 0 13 5.5t5 13.5v493q0 8 5.5 13.5
t13.5 5.5h139zM529 774q-2 -7 -9 -10t-15 -1l-131 45q-7 3 -17 3t-18 -3l-130 -45q-8 -2 -15 1t-10 10l-8 20q-3 7 -0.5 15t9.5 12l156 96q7 4 16 4t16 -4l156 -96q6 -4 8.5 -12t-0.5 -15z" />
    <glyph glyph-name="Udieresis" unicode="&#xdc;" horiz-adv-x="711" 
d="M631 700q8 0 13.5 -5.5t5.5 -13.5v-564q0 -24 -9.5 -45.5t-25 -37.5t-37 -25t-45.5 -9h-354q-24 0 -45.5 9t-37.5 25t-25 37.5t-9 45.5v564q0 8 5.5 13.5t13.5 5.5h138q8 0 13.5 -5.5t5.5 -13.5v-493q0 -8 5.5 -13.5t13.5 -5.5h198q8 0 13 5.5t5 13.5v493q0 8 5.5 13.5
t13.5 5.5h139zM436 860q20 0 35 -15t15 -36q0 -20 -15 -35t-35 -15q-21 0 -36 15t-15 35q0 21 15 36t36 15zM276 860q20 0 35 -15t15 -36q0 -20 -15 -35t-35 -15q-21 0 -36 15t-15 35q0 21 15 36t36 15z" />
    <glyph glyph-name="Scaron" unicode="&#x160;" horiz-adv-x="654" 
d="M480 421q24 0 45.5 -9t37 -25t25 -37t9.5 -45v-188q0 -24 -9.5 -45.5t-25 -37.5t-37 -25t-45.5 -9h-399q-19 0 -19 19v121q0 8 5.5 13.5t13.5 5.5h340q8 0 13.5 5t5.5 13v83q0 8 -5.5 13.5t-13.5 5.5h-242q-24 0 -45.5 9t-37.5 25t-25 37t-9 45v188q0 24 9 45.5t25 37
t37.5 25t45.5 9.5h377q8 0 13.5 -5.5t5.5 -13.5v-123q0 -8 -5.5 -13.5t-13.5 -5.5h-319q-8 0 -13.5 -5t-5.5 -13v-81q0 -8 5.5 -13.5t13.5 -5.5h243zM156 909q3 7 10 10t15 1l131 -45q7 -3 17 -3t18 3l130 45q8 2 15 -1t10 -10l8 -20q3 -7 0.5 -15t-9.5 -12l-156 -96
q-7 -4 -16 -4t-16 4l-156 96q-6 4 -8.5 12t0.5 15z" />
    <glyph glyph-name="caron" unicode="&#x2c7;" horiz-adv-x="444" 
d="M49 909q3 7 10 10t15 1l130 -45q8 -3 18 -3t18 3l130 45q8 2 15 -1t10 -10l8 -20q3 -7 0.5 -15t-9.5 -12l-156 -96q-7 -4 -16 -4t-16 4l-156 96q-7 4 -9.5 12t0.5 15z" />
    <glyph glyph-name="Zcaron" unicode="&#x17d;" horiz-adv-x="648" 
d="M591 555q0 -8 -4 -17.5t-9 -14.5l-325 -366h319q8 0 13.5 -5.5t5.5 -13.5v-119q0 -8 -5.5 -13.5t-13.5 -5.5h-497q-19 0 -19 19v125q0 8 3.5 17.5t8.5 15.5l332 366h-319q-8 0 -13.5 5.5t-5.5 13.5v119q0 8 5.5 13.5t13.5 5.5h491q8 0 13.5 -5.5t5.5 -13.5v-126zM150 909
q3 7 10 10t15 1l131 -45q7 -3 17 -3t18 3l130 45q8 2 15 -1t10 -10l8 -20q3 -7 0.5 -15t-9.5 -12l-156 -96q-7 -4 -16 -4t-16 4l-156 96q-6 4 -8.5 12t0.5 15z" />
    <glyph glyph-name="Oacute" unicode="&#xd3;" horiz-adv-x="701" 
d="M271 760q-8 -2 -15 1.5t-10 11.5l-8 20q-3 7 -0.5 14.5t9.5 12.5l156 96q7 4 13.5 2t9.5 -10l35 -88q3 -7 0 -13t-11 -8zM527 700h-354q-24 0 -45.5 -9.5t-37.5 -25t-25 -37t-9 -45.5v-466q0 -24 9 -45.5t25 -37.5t37.5 -25t45.5 -9h354q24 0 45.5 9t37 25t25 37.5
t9.5 45.5v466q0 24 -9.5 45.5t-25 37t-37 25t-45.5 9.5zM467 169h-235v361h235v-361z" />
    <glyph glyph-name="Ograve" unicode="&#xd2;" horiz-adv-x="700" 
d="M250 800q-8 2 -11 8t0 14l36 87q2 8 9 10t13 -2l156 -96q7 -4 9.5 -12t-0.5 -15l-8 -20q-3 -7 -10 -11t-15 -2zM528 700q24 0 45.5 -9.5t37 -25t25 -37t9.5 -45.5v-466q0 -24 -9.5 -45.5t-25 -37.5t-37 -25t-45.5 -9h-354q-24 0 -45.5 9t-37.5 25t-25 37.5t-9 45.5v466
q0 24 9 45.5t25 37t37.5 25t45.5 9.5h354zM468 530h-235v-361h235v361z" />
    <glyph glyph-name="Ocircumflex" unicode="&#xd4;" horiz-adv-x="711" 
d="M528 774q-2 -7 -9 -10t-15 -1l-131 45q-7 3 -17 3t-18 -3l-130 -45q-8 -2 -15 1t-10 10l-8 20q-3 7 -0.5 15t9.5 12l156 96q7 4 16 4t16 -4l156 -96q6 -4 8.5 -12t-0.5 -15zM533 700q24 0 45.5 -9.5t37 -25t25 -37t9.5 -45.5v-466q0 -24 -9.5 -45.5t-25 -37.5t-37 -25
t-45.5 -9h-354q-24 0 -45.5 9t-37.5 25t-25 37.5t-9 45.5v466q0 24 9 45.5t25 37t37.5 25t45.5 9.5h354zM473 530h-235v-361h235v361z" />
    <glyph glyph-name="Odieresis" unicode="&#xd6;" horiz-adv-x="708" 
d="M434 860q20 0 35 -15t15 -36q0 -20 -15 -35t-35 -15q-21 0 -36 15t-15 35q0 21 15 36t36 15zM274 860q20 0 35 -15t15 -36q0 -20 -15 -35t-35 -15q-21 0 -36 15t-15 35q0 21 15 36t36 15zM531 700q24 0 45.5 -9.5t37 -25t25 -37t9.5 -45.5v-466q0 -24 -9.5 -45.5
t-25 -37.5t-37 -25t-45.5 -9h-354q-24 0 -45.5 9t-37.5 25t-25 37.5t-9 45.5v466q0 24 9 45.5t25 37t37.5 25t45.5 9.5h354zM471 530h-235v-361h235v361z" />
    <glyph glyph-name="Ydieresis" unicode="&#x178;" horiz-adv-x="692" 
d="M658 700q8 0 10.5 -4.5t-1.5 -11.5l-224 -408q-4 -7 -6.5 -17t-2.5 -18v-222q0 -19 -19 -19h-138q-19 0 -19 19v222q0 8 -2.5 18t-6.5 17l-224 408q-4 7 -1.5 11.5t10.5 4.5h150q8 0 16 -4.5t12 -11.5l134 -263l134 263q4 7 12 11.5t16 4.5h150zM426 860q21 0 35.5 -15
t14.5 -36q0 -20 -14.5 -35t-35.5 -15t-35.5 15t-14.5 35q0 21 14.5 36t35.5 15zM266 860q21 0 35.5 -15t14.5 -36q0 -20 -14.5 -35t-35.5 -15t-35.5 15t-14.5 35q0 21 14.5 36t35.5 15z" />
    <glyph glyph-name="Otilde" unicode="&#xd5;" horiz-adv-x="705" 
d="M495 881q4 -4 4 -11l-3 -23q-2 -11 -12 -16l-8 -3l-134 -60q-2 -1 -6 -1h-3q-6 0 -9 5q-5 3 -3 10l4 34l-101 -27h-4q-7 0 -10 4q-5 5 -3 11l3 23q2 11 12 16l7 3l134 60q2 1 6 1h3q4 0 10 -4q3 -5 3 -11l-5 -34l102 27h4q6 0 9 -4zM530 700q24 0 45.5 -9.5t37 -25
t25 -37t9.5 -45.5v-466q0 -24 -9.5 -45.5t-25 -37.5t-37 -25t-45.5 -9h-354q-24 0 -45.5 9t-37.5 25t-25 37.5t-9 45.5v466q0 24 9 45.5t25 37t37.5 25t45.5 9.5h354zM470 530h-235v-361h235v361z" />
    <glyph glyph-name="Yacute" unicode="&#xdd;" horiz-adv-x="692" 
d="M267 765q-8 -2 -15 2t-10 11l-8 20q-3 7 -0.5 15t9.5 12l156 96q6 4 13 2t10 -10l35 -88q3 -7 0 -13t-11 -8zM657 700h-150q-8 0 -16 -4.5t-12 -11.5l-134 -263l-134 263q-4 7 -11.5 11.5t-15.5 4.5h-150q-8 0 -11 -4.5t1 -11.5l224 -408q4 -7 6.5 -17t2.5 -18v-222
q0 -8 5.5 -13.5t13.5 -5.5h139q8 0 13 5.5t5 13.5v222q0 8 2.5 18t6.5 17l225 408q4 7 1 11.5t-11 4.5z" />
    <glyph glyph-name="A" unicode="A" horiz-adv-x="745" 
d="M550 700q24 0 45.5 -9.5t37 -25t25 -37t9.5 -45.5v-564q0 -8 -5.5 -13.5t-13.5 -5.5h-139q-8 0 -13.5 5.5t-5.5 13.5v179q0 8 -5 13.5t-13 5.5h-198q-8 0 -13.5 -5.5t-5.5 -13.5v-179q0 -19 -19 -19h-138q-19 0 -19 19v564q0 24 9 45.5t25 37t37.5 25t45.5 9.5h354z
M490 367v176h-235v-176h235z" />
    <glyph glyph-name="B" unicode="B" horiz-adv-x="743" 
d="M613 365q-5 -6 -4.5 -15t5.5 -14l42 -50q5 -6 8.5 -15.5t3.5 -17.5v-136q0 -24 -9.5 -45.5t-25 -37.5t-37 -25t-45.5 -9h-452q-19 0 -19 19v662q0 19 19 19h452q24 0 45.5 -9.5t37 -25t25 -37t9.5 -45.5v-130q0 -8 -3.5 -17.5t-8.5 -15.5zM508 290h-269v-137h269v137z
M508 548h-269v-125h269v125z" />
    <glyph glyph-name="C" unicode="C" horiz-adv-x="691" 
d="M272 530q-8 0 -13.5 -5t-5.5 -13v-324q0 -8 5.5 -13t13.5 -5h321q8 0 13.5 -5.5t5.5 -13.5v-132q0 -8 -5.5 -13.5t-13.5 -5.5h-209h-172h-18q-24 0 -45.5 9t-37.5 25t-25 37.5t-9 45.5v18v73v233v65v77q0 24 9 45.5t25 37t37.5 25t45.5 9.5h18h381q8 0 13.5 -5.5
t5.5 -13.5v-132q0 -8 -5.5 -13.5t-13.5 -5.5h-321v0z" />
    </font>
</defs>
</svg>
