<?xml version="1.0" encoding="utf-8"?>
<!-- Generator: Adobe Illustrator 17.0.0, SVG Export Plug-In . SVG Version: 6.00 Build 0)  -->
<!DOCTYPE svg PUBLIC "-//W3C//DTD SVG 1.1//EN" "http://www.w3.org/Graphics/SVG/1.1/DTD/svg11.dtd">
<svg version="1.1" id="Layer_1" xmlns="http://www.w3.org/2000/svg" xmlns:xlink="http://www.w3.org/1999/xlink" x="0px" y="0px"
	 width="797.799px" height="394.499px" viewBox="0 0 797.799 394.499" enable-background="new 0 0 797.799 394.499"
	 xml:space="preserve">
<g>
	<g>
		<g enable-background="new    ">
			<g>
				<polygon fill="#550865" points="144.762,180.682 119.604,166.996 119.646,144.58 144.803,158.266 				"/>
			</g>
			<g>
				<polygon fill="#550865" points="144.844,136.508 119.687,122.822 119.725,102.362 144.882,116.048 				"/>
			</g>
			<g>
				<polygon fill="#760B8C" points="103.985,186.413 78.826,172.727 119.604,166.996 144.762,180.682 				"/>
			</g>
			<g enable-background="new    ">
				<defs>
					<path id="SVGID_1_" enable-background="new    " d="M135.764,78.287c8.387,4.562,16.773,9.124,25.159,13.687
						c-0.808-0.44-1.669-0.814-2.585-1.124c-2.172-0.726-4.461-0.928-6.893-0.586l-25.159-13.686
						c2.432-0.342,4.721-0.139,6.894,0.587C134.095,77.474,134.957,77.847,135.764,78.287z"/>
				</defs>
				<clipPath id="SVGID_2_">
					<use xlink:href="#SVGID_1_"  overflow="visible"/>
				</clipPath>
				<g clip-path="url(#SVGID_2_)" enable-background="new    ">
					<path fill="#6E0B83" d="M151.445,90.264l-25.159-13.686c2.078-0.292,4.051-0.186,5.937,0.303l25.157,13.687
						C155.496,90.077,153.522,89.972,151.445,90.264"/>
					<path fill="#6B0A7F" d="M157.38,90.567L132.223,76.88c0.321,0.084,0.64,0.179,0.957,0.285c0.706,0.238,1.379,0.516,2.022,0.831
						l25.159,13.686c-0.644-0.316-1.316-0.593-2.023-0.832C158.022,90.744,157.703,90.649,157.38,90.567"/>
					<path fill="#680A7B" d="M160.361,91.682l-25.159-13.686c0.19,0.094,0.377,0.191,0.561,0.291l25.159,13.687
						C160.737,91.871,160.55,91.775,160.361,91.682"/>
				</g>
			</g>
			<g enable-background="new    ">
				<defs>
					<path id="SVGID_3_" enable-background="new    " d="M80.911,214.223c-8.387-4.562-16.773-9.124-25.159-13.686
						c-0.72-0.391-1.08-1.222-1.078-2.491l25.159,13.686C79.831,213.001,80.191,213.83,80.911,214.223z"/>
				</defs>
				<clipPath id="SVGID_4_">
					<use xlink:href="#SVGID_3_"  overflow="visible"/>
				</clipPath>
				<g clip-path="url(#SVGID_4_)" enable-background="new    ">
					<path fill="#570867" d="M80.911,214.223l-25.159-13.686c-0.72-0.391-1.08-1.222-1.078-2.491l25.159,13.686
						C79.831,213.001,80.191,213.83,80.911,214.223"/>
				</g>
			</g>
			<g>
				<polygon fill="#760B8C" points="104.067,142.24 78.909,128.554 119.687,122.822 144.844,136.508 				"/>
			</g>
			<g>
				<polygon fill="#760B8C" points="82.922,99.893 57.765,86.207 126.286,76.578 151.445,90.264 				"/>
			</g>
			<g>
				<polygon fill="#550865" points="79.833,211.732 54.674,198.046 54.877,89.724 80.034,103.409 				"/>
			</g>
			<g enable-background="new    ">
				<defs>
					<path id="SVGID_5_" enable-background="new    " d="M80.034,103.409L54.877,89.724c0.003-2.072,0.97-3.247,2.888-3.517
						l25.158,13.686C81.004,100.162,80.038,101.339,80.034,103.409z"/>
				</defs>
				<clipPath id="SVGID_6_">
					<use xlink:href="#SVGID_5_"  overflow="visible"/>
				</clipPath>
				<g clip-path="url(#SVGID_6_)" enable-background="new    ">
					<path fill="#570867" d="M80.034,103.409L54.877,89.724c0.001-0.606,0.084-1.136,0.25-1.589l25.158,13.684
						C80.119,102.273,80.035,102.804,80.034,103.409"/>
					<path fill="#5A096B" d="M80.285,101.82L55.127,88.136c0.051-0.141,0.11-0.274,0.178-0.401l25.159,13.686
						C80.396,101.547,80.336,101.681,80.285,101.82"/>
					<path fill="#5E096F" d="M80.464,101.421L55.306,87.735c0.052-0.099,0.11-0.193,0.174-0.283l25.158,13.686
						C80.575,101.228,80.517,101.321,80.464,101.421"/>
					<path fill="#610973" d="M80.638,101.137L55.48,87.452c0.057-0.081,0.119-0.159,0.183-0.233l25.159,13.686
						C80.756,100.978,80.695,101.056,80.638,101.137"/>
					<path fill="#640A77" d="M80.822,100.905L55.663,87.219c0.066-0.076,0.138-0.146,0.212-0.215l25.158,13.686
						C80.959,100.758,80.888,100.829,80.822,100.905"/>
					<path fill="#680A7B" d="M81.033,100.69L55.876,87.004c0.086-0.077,0.176-0.148,0.273-0.216l25.159,13.688
						C81.211,100.541,81.119,100.613,81.033,100.69"/>
					<path fill="#6B0A7F" d="M81.308,100.475L56.149,86.788c0.133-0.091,0.277-0.173,0.43-0.245l25.159,13.686
						C81.584,100.301,81.441,100.383,81.308,100.475"/>
					<path fill="#6E0B83" d="M81.738,100.228L56.579,86.543c0.344-0.161,0.739-0.273,1.186-0.335l25.158,13.686
						C82.477,99.956,82.081,100.068,81.738,100.228"/>
				</g>
			</g>
			<g>
				<path fill="#B10FD8" d="M167.283,133.84l-6.542,9.917c-0.505,0.729-0.736,1.572-0.685,2.549c0.051,0.975,0.324,1.7,0.835,2.172
					l6.351,7.293c0.503,0.579,0.925,1.368,1.277,2.349c0.352,0.991,0.527,1.92,0.524,2.798l-0.041,22.244
					c-0.004,2.625-0.487,5.173-1.446,7.655c-0.969,2.482-2.237,4.704-3.805,6.669c-1.569,1.967-3.445,3.585-5.622,4.874
					c-2.176,1.289-4.468,2.106-6.899,2.448l-68.523,9.63c-1.918,0.27-2.88-0.633-2.877-2.705l0.202-108.323
					c0.004-2.07,0.97-3.247,2.888-3.516l68.522-9.629c2.432-0.342,4.721-0.139,6.893,0.586c2.173,0.734,4.045,1.836,5.607,3.305
					c1.561,1.47,2.822,3.305,3.781,5.517c0.951,2.214,1.424,4.628,1.418,7.243l-0.039,21.271c-0.002,0.877-0.181,1.857-0.536,2.937
					C168.214,132.213,167.789,133.112,167.283,133.84z M144.762,180.682l0.041-22.416l-40.777,5.731l-0.041,22.416L144.762,180.682
					 M144.844,136.508l0.038-20.46l-40.777,5.731l-0.038,20.461L144.844,136.508"/>
			</g>
		</g>
		<g enable-background="new    ">
			<g enable-background="new    ">
				<defs>
					<path id="SVGID_7_" enable-background="new    " d="M262.033,188.774c-8.386-4.562-16.771-9.123-25.157-13.686
						c-0.181-0.098-0.351-0.222-0.511-0.372c-0.556-0.515-0.829-1.22-0.827-2.088l25.158,13.686
						c-0.001,0.868,0.272,1.574,0.827,2.086C261.683,188.552,261.854,188.676,262.033,188.774z"/>
				</defs>
				<clipPath id="SVGID_8_">
					<use xlink:href="#SVGID_7_"  overflow="visible"/>
				</clipPath>
				<g clip-path="url(#SVGID_8_)" enable-background="new    ">
					<path fill="#570867" d="M262.033,188.774l-25.157-13.686c-0.181-0.098-0.351-0.222-0.511-0.372
						c-0.556-0.515-0.829-1.22-0.827-2.088l25.158,13.686c-0.001,0.868,0.272,1.574,0.827,2.086
						C261.683,188.552,261.854,188.676,262.033,188.774"/>
				</g>
			</g>
			<g>
				<polygon fill="#550865" points="260.696,186.314 235.538,172.628 235.592,143.341 260.751,157.026 				"/>
			</g>
			<g enable-background="new    ">
				<defs>
					<path id="SVGID_9_" enable-background="new    " d="M234.316,140.828c2.935,1.598,5.87,3.194,8.806,4.791
						c0.378,0.205,0.88,0.479,1.258,0.684c5.032,2.737,10.062,5.475,15.094,8.211c0.189,0.103,0.362,0.237,0.521,0.405
						c0.503,0.529,0.758,1.229,0.757,2.106l-25.159-13.685c0.001-0.878-0.252-1.578-0.756-2.107
						C234.678,141.066,234.504,140.931,234.316,140.828z"/>
				</defs>
				<clipPath id="SVGID_10_">
					<use xlink:href="#SVGID_9_"  overflow="visible"/>
				</clipPath>
				<g clip-path="url(#SVGID_10_)" enable-background="new    ">
					<path fill="#570867" d="M260.751,157.026l-25.159-13.685c0.001-0.878-0.252-1.578-0.756-2.107
						c-0.159-0.167-0.333-0.303-0.52-0.406l25.158,13.686c0.189,0.103,0.362,0.237,0.521,0.405
						C260.497,155.449,260.752,156.148,260.751,157.026"/>
				</g>
			</g>
			<g>
				<polygon fill="#550865" points="260.802,129.37 235.644,115.684 235.698,86.884 260.855,100.57 				"/>
			</g>
			<g enable-background="new    ">
				<defs>
					<path id="SVGID_11_" enable-background="new    " d="M254.301,61.616c8.386,4.562,16.772,9.124,25.159,13.687
						c-0.801-0.436-1.656-0.808-2.564-1.115c-2.173-0.726-4.473-0.927-6.894-0.586l-25.159-13.686
						c2.423-0.34,4.721-0.139,6.894,0.586C252.645,60.809,253.5,61.181,254.301,61.616z"/>
				</defs>
				<clipPath id="SVGID_12_">
					<use xlink:href="#SVGID_11_"  overflow="visible"/>
				</clipPath>
				<g clip-path="url(#SVGID_12_)" enable-background="new    ">
					<path fill="#6E0B83" d="M270.002,73.601l-25.159-13.686c2.072-0.291,4.053-0.186,5.942,0.305l25.159,13.685
						C274.054,73.415,272.072,73.31,270.002,73.601"/>
					<path fill="#6B0A7F" d="M275.943,73.906l-25.159-13.685c0.32,0.082,0.637,0.177,0.952,0.281
						c0.701,0.237,1.368,0.512,2.005,0.824L278.9,75.013c-0.636-0.313-1.305-0.587-2.004-0.825
						C276.58,74.083,276.263,73.99,275.943,73.906"/>
					<path fill="#680A7B" d="M278.9,75.013l-25.158-13.687c0.189,0.094,0.376,0.19,0.559,0.29l25.159,13.687
						C279.275,75.202,279.089,75.106,278.9,75.013"/>
				</g>
			</g>
			<g enable-background="new    ">
				<defs>
					<path id="SVGID_13_" enable-background="new    " d="M199.463,197.561c-8.385-4.562-16.771-9.123-25.158-13.685
						c-0.719-0.392-1.076-1.224-1.074-2.492l25.159,13.686C198.387,196.339,198.744,197.17,199.463,197.561z"/>
				</defs>
				<clipPath id="SVGID_14_">
					<use xlink:href="#SVGID_13_"  overflow="visible"/>
				</clipPath>
				<g clip-path="url(#SVGID_14_)" enable-background="new    ">
					<path fill="#570867" d="M199.463,197.561l-25.158-13.685c-0.719-0.392-1.076-1.224-1.074-2.492l25.159,13.686
						C198.387,196.339,198.744,197.17,199.463,197.561"/>
				</g>
			</g>
			<g>
				<polygon fill="#760B8C" points="225.18,134.377 200.022,120.691 235.644,115.684 260.802,129.37 				"/>
			</g>
			<g>
				<polygon fill="#760B8C" points="216.333,81.143 191.175,67.457 244.843,59.915 270.002,73.601 				"/>
			</g>
			<g>
				<polygon fill="#550865" points="198.39,195.07 173.232,181.384 173.402,89.094 198.561,102.78 				"/>
			</g>
			<g enable-background="new    ">
				<defs>
					<path id="SVGID_15_" enable-background="new    " d="M198.561,102.78l-25.159-13.686c0.005-2.614,0.46-5.159,1.376-7.634
						c0.915-2.476,2.183-4.666,3.804-6.584c1.613-1.915,3.516-3.547,5.693-4.893c2.168-1.335,4.476-2.185,6.899-2.525l25.158,13.686
						c-2.422,0.34-4.73,1.19-6.899,2.525c-2.177,1.346-4.08,2.977-5.692,4.893c-1.621,1.918-2.89,4.108-3.805,6.583
						C199.021,97.62,198.566,100.165,198.561,102.78z"/>
				</defs>
				<clipPath id="SVGID_16_">
					<use xlink:href="#SVGID_15_"  overflow="visible"/>
				</clipPath>
				<g clip-path="url(#SVGID_16_)" enable-background="new    ">
					<path fill="#570867" d="M198.561,102.78l-25.159-13.686c0.005-2.603,0.456-5.135,1.363-7.6l25.158,13.688
						C199.017,97.645,198.566,100.177,198.561,102.78"/>
					<path fill="#5A096B" d="M199.923,95.181l-25.158-13.688c0.004-0.011,0.009-0.023,0.013-0.034
						c0.377-1.021,0.815-1.995,1.313-2.92l25.158,13.686c-0.498,0.924-0.935,1.898-1.313,2.919
						C199.933,95.157,199.928,95.168,199.923,95.181"/>
					<path fill="#5E096F" d="M201.25,92.225l-25.158-13.686c0.403-0.75,0.846-1.469,1.329-2.157l25.158,13.686
						C202.097,90.756,201.654,91.475,201.25,92.225"/>
					<path fill="#610973" d="M202.578,90.068L177.42,76.383c0.365-0.519,0.752-1.022,1.162-1.507
						c0.118-0.14,0.237-0.278,0.358-0.414l25.157,13.686c-0.121,0.136-0.239,0.275-0.357,0.414
						C203.331,89.046,202.943,89.549,202.578,90.068"/>
					<path fill="#640A77" d="M204.098,88.147l-25.157-13.686c0.586-0.664,1.208-1.292,1.867-1.885l25.158,13.686
						C205.307,86.855,204.684,87.484,204.098,88.147"/>
					<path fill="#680A7B" d="M205.965,86.263l-25.158-13.686c0.75-0.676,1.545-1.304,2.387-1.886l25.159,13.686
						C207.512,84.958,206.715,85.586,205.965,86.263"/>
					<path fill="#6B0A7F" d="M208.354,84.376L183.195,70.69c0.353-0.244,0.713-0.479,1.081-0.708
						c0.612-0.377,1.238-0.717,1.873-1.016l25.159,13.686c-0.635,0.3-1.26,0.639-1.874,1.017
						C209.066,83.896,208.706,84.132,208.354,84.376"/>
					<path fill="#6E0B83" d="M211.307,82.652l-25.159-13.686c1.611-0.759,3.289-1.264,5.026-1.509l25.158,13.686
						C214.596,81.388,212.917,81.893,211.307,82.652"/>
				</g>
			</g>
			<g>
				<path fill="#B10FD8" d="M286.275,83.01c0.95,2.214,1.432,4.626,1.428,7.243l-0.172,92.29c-0.001,0.868-0.286,1.652-0.835,2.321
					c-0.558,0.679-1.248,1.082-2.052,1.194l-21.07,2.962c-0.813,0.114-1.493-0.096-2.049-0.619
					c-0.555-0.513-0.828-1.219-0.827-2.086l0.055-29.289c0.001-0.877-0.254-1.577-0.757-2.106c-0.503-0.531-1.157-0.735-1.97-0.621
					l-30.018,4.219c-0.804,0.113-1.494,0.506-2.044,1.185c-0.557,0.679-0.833,1.452-0.834,2.331l-0.054,29.287
					c-0.004,2.072-0.97,3.246-2.888,3.516l-20.919,2.939c-1.927,0.272-2.88-0.634-2.876-2.705l0.171-92.29
					c0.005-2.614,0.46-5.16,1.376-7.635c0.915-2.475,2.184-4.665,3.805-6.583c1.613-1.916,3.516-3.547,5.692-4.893
					c2.169-1.335,4.477-2.185,6.899-2.525l53.669-7.542c2.421-0.341,4.721-0.139,6.894,0.586c2.172,0.734,4.036,1.837,5.597,3.306
					C284.054,78.964,285.316,80.799,286.275,83.01z M260.802,129.37l0.053-28.8l-35.622,5.006l-0.053,28.801L260.802,129.37"/>
			</g>
		</g>
		<g enable-background="new    ">
			<g enable-background="new    ">
				<defs>
					<path id="SVGID_17_" enable-background="new    " d="M381.684,171.492c-8.385-4.563-16.771-9.124-25.158-13.686
						c-0.669-0.364-1.175-0.86-1.531-1.481l25.159,13.686C380.509,170.632,381.016,171.128,381.684,171.492z"/>
				</defs>
				<clipPath id="SVGID_18_">
					<use xlink:href="#SVGID_17_"  overflow="visible"/>
				</clipPath>
				<g clip-path="url(#SVGID_18_)" enable-background="new    ">
					<path fill="#570867" d="M381.684,171.492l-25.158-13.686c-0.669-0.364-1.175-0.86-1.531-1.481l25.159,13.686
						C380.509,170.632,381.016,171.128,381.684,171.492"/>
				</g>
			</g>
			<g>
				<polygon fill="#540863" points="380.154,170.011 354.996,156.325 338.988,127.493 364.146,141.179 				"/>
			</g>
			<g enable-background="new    ">
				<defs>
					<path id="SVGID_19_" enable-background="new    " d="M338.612,127.086c8.386,4.562,16.772,9.123,25.159,13.685
						c0.156,0.086,0.282,0.222,0.375,0.408l-25.157-13.687C338.895,127.307,338.769,127.171,338.612,127.086z"/>
				</defs>
				<clipPath id="SVGID_20_">
					<use xlink:href="#SVGID_19_"  overflow="visible"/>
				</clipPath>
				<g clip-path="url(#SVGID_20_)" enable-background="new    ">
					<path fill="#570867" d="M364.146,141.179l-25.157-13.687c-0.093-0.185-0.219-0.321-0.376-0.406l25.159,13.685
						C363.927,140.857,364.053,140.993,364.146,141.179"/>
				</g>
			</g>
			<g>
				<polygon fill="#550865" points="379.96,112.624 354.801,98.938 354.853,71.12 380.012,84.806 				"/>
			</g>
			<g enable-background="new    ">
				<defs>
					<path id="SVGID_21_" enable-background="new    " d="M373.461,44.872l25.158,13.686c-0.804-0.437-1.659-0.809-2.565-1.117
						c-2.174-0.726-4.472-0.927-6.896-0.587l-25.158-13.685c2.423-0.341,4.721-0.138,6.894,0.587
						C371.801,44.064,372.656,44.436,373.461,44.872z"/>
				</defs>
				<clipPath id="SVGID_22_">
					<use xlink:href="#SVGID_21_"  overflow="visible"/>
				</clipPath>
				<g clip-path="url(#SVGID_22_)" enable-background="new    ">
					<path fill="#6E0B83" d="M389.158,56.854l-25.158-13.685c2.072-0.292,4.052-0.186,5.942,0.305L395.1,57.159
						C393.211,56.669,391.231,56.563,389.158,56.854"/>
					<path fill="#6B0A7F" d="M395.1,57.159l-25.157-13.686c0.319,0.083,0.636,0.177,0.952,0.282c0.696,0.237,1.365,0.512,2,0.825
						l25.159,13.686c-0.637-0.312-1.305-0.588-2-0.825C395.738,57.336,395.42,57.243,395.1,57.159"/>
					<path fill="#680A7B" d="M398.054,58.266L372.895,44.58c0.19,0.094,0.379,0.192,0.565,0.292l25.158,13.686
						C398.433,58.458,398.244,58.36,398.054,58.266"/>
				</g>
			</g>
			<g enable-background="new    ">
				<defs>
					<path id="SVGID_23_" enable-background="new    " d="M318.622,180.817c-8.386-4.563-16.773-9.125-25.159-13.687
						c-0.719-0.391-1.076-1.223-1.074-2.493l25.158,13.686C317.545,179.593,317.902,180.424,318.622,180.817z"/>
				</defs>
				<clipPath id="SVGID_24_">
					<use xlink:href="#SVGID_23_"  overflow="visible"/>
				</clipPath>
				<g clip-path="url(#SVGID_24_)" enable-background="new    ">
					<path fill="#570867" d="M318.622,180.817l-25.159-13.687c-0.719-0.391-1.076-1.223-1.074-2.493l25.158,13.686
						C317.545,179.593,317.902,180.424,318.622,180.817"/>
				</g>
			</g>
			<g>
				<polygon fill="#760B8C" points="343.427,117.758 318.268,104.073 354.801,98.938 379.96,112.624 				"/>
			</g>
			<g>
				<polygon fill="#760B8C" points="320.628,66.486 295.47,52.801 364.001,43.169 389.158,56.854 				"/>
			</g>
			<g>
				<polygon fill="#550865" points="317.548,178.324 292.39,164.638 292.59,56.315 317.749,70.001 				"/>
			</g>
			<g enable-background="new    ">
				<defs>
					<path id="SVGID_25_" enable-background="new    " d="M317.749,70.001L292.59,56.315c0.005-2.071,0.961-3.245,2.88-3.515
						l25.158,13.686C318.71,66.756,317.753,67.931,317.749,70.001z"/>
				</defs>
				<clipPath id="SVGID_26_">
					<use xlink:href="#SVGID_25_"  overflow="visible"/>
				</clipPath>
				<g clip-path="url(#SVGID_26_)" enable-background="new    ">
					<path fill="#570867" d="M317.749,70.001L292.59,56.315c0.001-0.609,0.086-1.141,0.252-1.595L318,68.406
						C317.834,68.86,317.75,69.391,317.749,70.001"/>
					<path fill="#5A096B" d="M318,68.406L292.842,54.72c0.051-0.141,0.111-0.273,0.177-0.399l25.159,13.686
						C318.11,68.132,318.051,68.265,318,68.406"/>
					<path fill="#5E096F" d="M318.178,68.007L293.02,54.321c0.054-0.099,0.111-0.193,0.174-0.282l25.159,13.686
						C318.289,67.814,318.232,67.908,318.178,68.007"/>
					<path fill="#610973" d="M318.352,67.725l-25.159-13.686c0.057-0.081,0.119-0.159,0.183-0.232l25.159,13.686
						C318.47,67.566,318.409,67.643,318.352,67.725"/>
					<path fill="#640A77" d="M318.535,67.492l-25.159-13.686c0.066-0.075,0.137-0.146,0.211-0.213l25.158,13.686
						C318.671,67.347,318.601,67.417,318.535,67.492"/>
					<path fill="#680A7B" d="M318.746,67.28l-25.158-13.686c0.085-0.076,0.176-0.149,0.271-0.214l25.159,13.686
						C318.921,67.132,318.831,67.203,318.746,67.28"/>
					<path fill="#6B0A7F" d="M319.018,67.065l-25.159-13.686c0.133-0.091,0.276-0.172,0.429-0.245l25.159,13.686
						C319.293,66.893,319.15,66.974,319.018,67.065"/>
					<path fill="#6E0B83" d="M319.446,66.821l-25.159-13.686c0.341-0.161,0.736-0.272,1.182-0.334l25.158,13.686
						C320.183,66.549,319.788,66.66,319.446,66.821"/>
				</g>
			</g>
			<g>
				<path fill="#B10FD8" d="M410.021,165.814c0.397,0.706,0.447,1.329,0.147,1.858c-0.302,0.538-0.858,0.865-1.663,0.977
					l-24.111,3.389c-0.804,0.113-1.617-0.02-2.421-0.403c-0.814-0.373-1.413-0.918-1.817-1.624l-16.009-28.832
					c-0.202-0.403-0.554-0.572-1.059-0.501l-18.045,2.536c-0.504,0.071-0.761,0.384-0.762,0.928l-0.058,30.434
					c-0.003,2.07-0.96,3.244-2.879,3.513l-20.929,2.942c-1.917,0.27-2.872-0.636-2.867-2.706l0.201-108.322
					c0.004-2.07,0.961-3.246,2.879-3.515l68.531-9.632c2.424-0.34,4.722-0.139,6.896,0.587c2.163,0.735,4.035,1.837,5.597,3.305
					c1.562,1.471,2.823,3.306,3.782,5.518c0.951,2.212,1.432,4.625,1.427,7.241l-0.08,43.039c-0.008,4.142-1.154,8.042-3.434,11.684
					c-2.278,3.649-5.19,6.32-8.73,8.019l-0.451,0.226c-0.717,0.32-0.867,0.666-0.461,1.048l0.148,0.303L410.021,165.814z
					 M379.96,112.624l0.052-27.818l-36.535,5.134l-0.051,27.818L379.96,112.624"/>
			</g>
		</g>
		<g enable-background="new    ">
			<g enable-background="new    ">
				<defs>
					<path id="SVGID_27_" enable-background="new    " d="M503.281,154.411c-8.386-4.561-16.772-9.123-25.159-13.686
						c-0.67-0.364-1.188-0.862-1.547-1.488l25.16,13.686C502.092,153.55,502.61,154.047,503.281,154.411z"/>
				</defs>
				<clipPath id="SVGID_28_">
					<use xlink:href="#SVGID_27_"  overflow="visible"/>
				</clipPath>
				<g clip-path="url(#SVGID_28_)" enable-background="new    ">
					<path fill="#570867" d="M503.281,154.411l-25.159-13.686c-0.67-0.364-1.188-0.862-1.547-1.488l25.16,13.686
						C502.092,153.55,502.61,154.047,503.281,154.411"/>
				</g>
			</g>
			<g>
				<polygon fill="#540863" points="501.735,152.924 476.575,139.238 460.569,110.405 485.727,124.091 				"/>
			</g>
			<g enable-background="new    ">
				<defs>
					<path id="SVGID_29_" enable-background="new    " d="M460.191,109.998c8.386,4.563,16.772,9.124,25.159,13.686
						c0.157,0.086,0.283,0.222,0.376,0.406l-25.157-13.685C460.475,110.221,460.349,110.085,460.191,109.998z"/>
				</defs>
				<clipPath id="SVGID_30_">
					<use xlink:href="#SVGID_29_"  overflow="visible"/>
				</clipPath>
				<g clip-path="url(#SVGID_30_)" enable-background="new    ">
					<path fill="#570867" d="M485.727,124.091l-25.157-13.685c-0.095-0.185-0.221-0.32-0.378-0.407l25.159,13.686
						C485.508,123.771,485.634,123.906,485.727,124.091"/>
				</g>
			</g>
			<g>
				<polygon fill="#550865" points="501.54,95.536 476.382,81.851 476.433,54.034 501.591,67.718 				"/>
			</g>
			<g enable-background="new    ">
				<defs>
					<path id="SVGID_31_" enable-background="new    " d="M495.046,27.786c8.387,4.562,16.771,9.123,25.158,13.686
						c-0.804-0.438-1.66-0.81-2.572-1.118c-2.172-0.726-4.472-0.927-6.893-0.586L485.58,26.082c2.423-0.341,4.721-0.139,6.894,0.586
						C493.386,26.976,494.242,27.349,495.046,27.786z"/>
				</defs>
				<clipPath id="SVGID_32_">
					<use xlink:href="#SVGID_31_"  overflow="visible"/>
				</clipPath>
				<g clip-path="url(#SVGID_32_)" enable-background="new    ">
					<path fill="#6E0B83" d="M510.739,39.767L485.58,26.082c2.072-0.291,4.053-0.186,5.94,0.305l25.16,13.686
						C514.791,39.581,512.811,39.476,510.739,39.767"/>
					<path fill="#6B0A7F" d="M516.681,40.073l-25.16-13.686c0.321,0.083,0.639,0.176,0.953,0.281
						c0.703,0.237,1.372,0.513,2.01,0.826l25.158,13.687c-0.637-0.314-1.307-0.59-2.01-0.827
						C517.317,40.249,517,40.155,516.681,40.073"/>
					<path fill="#680A7B" d="M519.642,41.181l-25.158-13.687c0.189,0.094,0.377,0.191,0.562,0.292l25.158,13.686
						C520.019,41.372,519.831,41.274,519.642,41.181"/>
				</g>
			</g>
			<g enable-background="new    ">
				<defs>
					<path id="SVGID_33_" enable-background="new    " d="M440.2,163.728l-25.157-13.686c-0.72-0.391-1.076-1.224-1.074-2.492
						l25.159,13.686C439.125,162.505,439.481,163.336,440.2,163.728z"/>
				</defs>
				<clipPath id="SVGID_34_">
					<use xlink:href="#SVGID_33_"  overflow="visible"/>
				</clipPath>
				<g clip-path="url(#SVGID_34_)" enable-background="new    ">
					<path fill="#570867" d="M440.2,163.728l-25.157-13.686c-0.72-0.391-1.076-1.224-1.074-2.492l25.159,13.686
						C439.125,162.505,439.481,163.336,440.2,163.728"/>
				</g>
			</g>
			<g>
				<polygon fill="#760B8C" points="465.007,100.671 439.849,86.986 476.382,81.851 501.54,95.536 				"/>
			</g>
			<g>
				<polygon fill="#760B8C" points="442.216,49.397 417.059,35.711 485.58,26.082 510.739,39.767 				"/>
			</g>
			<g>
				<polygon fill="#550865" points="439.128,161.237 413.969,147.551 414.169,39.228 439.328,52.914 				"/>
			</g>
			<g enable-background="new    ">
				<defs>
					<path id="SVGID_35_" enable-background="new    " d="M439.328,52.914l-25.159-13.686c0.006-2.07,0.963-3.245,2.89-3.517
						l25.157,13.686C440.289,49.668,439.332,50.843,439.328,52.914z"/>
				</defs>
				<clipPath id="SVGID_36_">
					<use xlink:href="#SVGID_35_"  overflow="visible"/>
				</clipPath>
				<g clip-path="url(#SVGID_36_)" enable-background="new    ">
					<path fill="#570867" d="M439.328,52.914l-25.159-13.686c0.003-0.609,0.086-1.14,0.253-1.594l25.158,13.686
						C439.414,51.774,439.33,52.306,439.328,52.914"/>
					<path fill="#5A096B" d="M439.58,51.321l-25.158-13.686c0.052-0.14,0.11-0.274,0.177-0.399l25.159,13.686
						C439.691,51.047,439.632,51.181,439.58,51.321"/>
					<path fill="#5E096F" d="M439.758,50.922l-25.159-13.686c0.055-0.098,0.111-0.193,0.175-0.283l25.158,13.687
						C439.869,50.728,439.811,50.824,439.758,50.922"/>
					<path fill="#610973" d="M439.932,50.64l-25.158-13.687c0.056-0.081,0.117-0.158,0.183-0.231l25.158,13.686
						C440.049,50.481,439.987,50.558,439.932,50.64"/>
					<path fill="#640A77" d="M440.114,50.407l-25.158-13.686c0.065-0.075,0.137-0.146,0.212-0.213l25.158,13.686
						C440.251,50.261,440.18,50.332,440.114,50.407"/>
					<path fill="#680A7B" d="M440.326,50.194l-25.158-13.686c0.085-0.077,0.175-0.148,0.271-0.215l25.158,13.687
						C440.5,50.046,440.41,50.118,440.326,50.194"/>
					<path fill="#6B0A7F" d="M440.598,49.98L415.44,36.293c0.133-0.091,0.276-0.173,0.429-0.245l25.158,13.687
						C440.873,49.806,440.731,49.888,440.598,49.98"/>
					<path fill="#6E0B83" d="M441.026,49.735l-25.158-13.687c0.346-0.161,0.74-0.273,1.19-0.337l25.157,13.686
						C441.769,49.461,441.371,49.573,441.026,49.735"/>
				</g>
			</g>
			<g>
				<path fill="#B10FD8" d="M531.603,148.727c0.404,0.706,0.455,1.328,0.146,1.858c-0.302,0.538-0.86,0.865-1.664,0.977
					l-24.102,3.388c-0.814,0.115-1.619-0.021-2.432-0.403c-0.803-0.373-1.412-0.918-1.815-1.624l-16.009-28.833
					c-0.202-0.401-0.557-0.57-1.06-0.5l-18.046,2.537c-0.503,0.071-0.753,0.381-0.754,0.926l-0.056,30.433
					c-0.004,2.071-0.97,3.247-2.889,3.516l-20.918,2.939c-1.929,0.272-2.883-0.634-2.877-2.704l0.2-108.323
					c0.004-2.071,0.961-3.247,2.888-3.517l68.523-9.63c2.421-0.34,4.721-0.139,6.893,0.586c2.174,0.734,4.037,1.837,5.607,3.305
					c1.562,1.47,2.813,3.306,3.773,5.519c0.959,2.212,1.432,4.625,1.426,7.241l-0.08,43.038c-0.006,4.142-1.155,8.043-3.433,11.684
					c-2.278,3.649-5.191,6.32-8.73,8.019l-0.452,0.227c-0.708,0.319-0.858,0.663-0.463,1.048l0.16,0.3L531.603,148.727z
					 M501.54,95.536l0.051-27.818l-36.531,5.135l-0.053,27.818L501.54,95.536"/>
			</g>
		</g>
		<g enable-background="new    ">
			<g enable-background="new    ">
				<defs>
					<path id="SVGID_37_" enable-background="new    " d="M615.36,96.15c8.387,4.562,16.771,9.123,25.16,13.686
						c-0.45-0.244-0.963-0.324-1.538-0.242l-25.159-13.687C614.4,95.825,614.912,95.905,615.36,96.15z"/>
				</defs>
				<clipPath id="SVGID_38_">
					<use xlink:href="#SVGID_37_"  overflow="visible"/>
				</clipPath>
				<g clip-path="url(#SVGID_38_)" enable-background="new    ">
					<path fill="#6E0B83" d="M638.983,109.594l-25.159-13.687c0.373-0.053,0.717-0.037,1.036,0.045l25.158,13.685
						C639.698,109.556,639.354,109.54,638.983,109.594"/>
					<path fill="#6B0A7F" d="M640.018,109.638l-25.158-13.685c0.146,0.037,0.286,0.09,0.421,0.155l25.157,13.686
						C640.304,109.728,640.165,109.675,640.018,109.638"/>
					<path fill="#680A7B" d="M640.438,109.794L615.28,96.108c0.026,0.013,0.054,0.028,0.08,0.042l25.16,13.686
						C640.492,109.821,640.466,109.807,640.438,109.794"/>
				</g>
			</g>
			<g>
				<polygon fill="#760B8C" points="628.823,111.02 603.664,97.334 613.823,95.907 638.983,109.594 				"/>
			</g>
			<g enable-background="new    ">
				<defs>
					<path id="SVGID_39_" enable-background="new    " d="M607.926,55.282c8.386,4.562,16.771,9.124,25.157,13.686
						c-0.413-0.225-0.896-0.303-1.45-0.224l-25.159-13.686C607.028,54.98,607.512,55.057,607.926,55.282z"/>
				</defs>
				<clipPath id="SVGID_40_">
					<use xlink:href="#SVGID_39_"  overflow="visible"/>
				</clipPath>
				<g clip-path="url(#SVGID_40_)" enable-background="new    ">
					<path fill="#6E0B83" d="M631.633,68.744l-25.159-13.686c0.359-0.051,0.69-0.036,0.99,0.042l25.157,13.686
						C632.321,68.708,631.991,68.693,631.633,68.744"/>
					<path fill="#6B0A7F" d="M632.621,68.786l-25.157-13.686c0.136,0.036,0.265,0.083,0.387,0.143L633.01,68.93
						C632.886,68.868,632.757,68.82,632.621,68.786"/>
					<path fill="#680A7B" d="M633.01,68.93l-25.159-13.687c0.027,0.014,0.051,0.026,0.075,0.039l25.157,13.686
						C633.059,68.954,633.035,68.942,633.01,68.93"/>
				</g>
			</g>
			<g>
				<polygon fill="#760B8C" points="594.562,115.835 569.403,102.149 603.664,97.334 628.823,111.02 				"/>
			</g>
			<g>
				<polygon fill="#760B8C" points="588.195,116.73 563.037,103.045 569.403,102.149 594.562,115.835 				"/>
			</g>
			<g enable-background="new    ">
				<defs>
					<path id="SVGID_41_" enable-background="new    " d="M587.72,116.674c-2.935-1.596-5.87-3.192-8.805-4.79
						c-0.378-0.205-0.882-0.479-1.258-0.685c-5.033-2.737-10.064-5.475-15.097-8.211c0.12,0.066,0.279,0.085,0.477,0.058
						l25.158,13.685C587.997,116.758,587.839,116.739,587.72,116.674z"/>
				</defs>
				<clipPath id="SVGID_42_">
					<use xlink:href="#SVGID_41_"  overflow="visible"/>
				</clipPath>
				<g clip-path="url(#SVGID_42_)" enable-background="new    ">
					<path fill="#680A7B" d="M587.72,116.674l-25.159-13.686c0.007,0.003,0.013,0.007,0.02,0.01l25.157,13.686
						C587.732,116.681,587.726,116.677,587.72,116.674"/>
					<path fill="#6B0A7F" d="M587.737,116.683l-25.157-13.686c0.031,0.016,0.065,0.028,0.103,0.038l25.158,13.686
						C587.805,116.712,587.771,116.699,587.737,116.683"/>
					<path fill="#6E0B83" d="M587.841,116.722l-25.158-13.686c0.1,0.024,0.219,0.028,0.354,0.01l25.158,13.685
						C588.06,116.749,587.94,116.746,587.841,116.722"/>
				</g>
			</g>
			<g enable-background="new    ">
				<defs>
					<path id="SVGID_43_" enable-background="new    " d="M615.525,8.284c8.388,4.561,16.773,9.124,25.159,13.686
						c-0.449-0.245-0.962-0.33-1.541-0.248L613.986,8.036C614.565,7.953,615.077,8.039,615.525,8.284z"/>
				</defs>
				<clipPath id="SVGID_44_">
					<use xlink:href="#SVGID_43_"  overflow="visible"/>
				</clipPath>
				<g clip-path="url(#SVGID_44_)" enable-background="new    ">
					<path fill="#6E0B83" d="M639.144,21.722L613.986,8.036c0.369-0.052,0.712-0.036,1.028,0.045l25.158,13.687
						C639.857,21.685,639.513,21.669,639.144,21.722"/>
					<path fill="#6B0A7F" d="M640.173,21.768L615.015,8.081c0.148,0.039,0.291,0.093,0.429,0.16l25.159,13.686
						C640.463,21.858,640.322,21.806,640.173,21.768"/>
					<path fill="#680A7B" d="M640.603,21.927L615.443,8.241c0.029,0.014,0.056,0.028,0.082,0.043l25.159,13.686
						C640.657,21.954,640.63,21.94,640.603,21.927"/>
				</g>
			</g>
			<g>
				<polygon fill="#760B8C" points="634.292,22.404 609.133,8.718 613.986,8.036 639.144,21.722 				"/>
			</g>
			<g enable-background="new    ">
				<defs>
					<path id="SVGID_45_" enable-background="new    " d="M561.784,146.64c-8.387-4.562-16.772-9.124-25.158-13.686
						c-0.72-0.393-1.079-1.222-1.076-2.491l25.158,13.686C560.705,145.418,561.065,146.248,561.784,146.64z"/>
				</defs>
				<clipPath id="SVGID_46_">
					<use xlink:href="#SVGID_45_"  overflow="visible"/>
				</clipPath>
				<g clip-path="url(#SVGID_46_)" enable-background="new    ">
					<path fill="#570867" d="M561.784,146.64l-25.158-13.686c-0.72-0.393-1.079-1.222-1.076-2.491l25.158,13.686
						C560.705,145.418,561.065,146.248,561.784,146.64"/>
				</g>
			</g>
			<g>
				<polygon fill="#550865" points="560.708,144.149 535.55,130.463 535.56,124.9 560.719,138.586 				"/>
			</g>
			<g>
				<polygon fill="#760B8C" points="588.273,74.837 563.116,61.151 606.474,55.057 631.633,68.744 				"/>
			</g>
			<g enable-background="new    ">
				<defs>
					<path id="SVGID_47_" enable-background="new    " d="M587.748,74.783c-8.388-4.562-16.773-9.123-25.16-13.686
						c0.126,0.068,0.301,0.086,0.528,0.054l25.157,13.686C588.046,74.869,587.871,74.85,587.748,74.783z"/>
				</defs>
				<clipPath id="SVGID_48_">
					<use xlink:href="#SVGID_47_"  overflow="visible"/>
				</clipPath>
				<g clip-path="url(#SVGID_48_)" enable-background="new    ">
					<path fill="#680A7B" d="M587.748,74.783l-25.16-13.686c0.007,0.004,0.014,0.007,0.019,0.009l25.158,13.686
						C587.759,74.789,587.753,74.786,587.748,74.783"/>
					<path fill="#6B0A7F" d="M587.765,74.791l-25.158-13.686c0.031,0.017,0.065,0.028,0.103,0.038l25.158,13.685
						C587.831,74.819,587.796,74.807,587.765,74.791"/>
					<path fill="#6E0B83" d="M587.867,74.828l-25.158-13.685c0.109,0.028,0.244,0.03,0.407,0.007l25.157,13.686
						C588.112,74.859,587.977,74.857,587.867,74.828"/>
				</g>
			</g>
			<g>
				<polygon fill="#760B8C" points="574.868,30.755 549.709,17.07 609.133,8.718 634.292,22.404 				"/>
			</g>
			<g>
				<polygon fill="#550865" points="560.719,138.586 535.56,124.9 535.735,29.995 560.895,43.682 				"/>
			</g>
			<g>
				<polygon fill="#760B8C" points="563.798,32.311 538.64,18.624 549.709,17.07 574.868,30.755 				"/>
			</g>
			<g>
				<polygon fill="#550865" points="560.895,43.682 535.735,29.995 535.751,22.141 560.909,35.827 				"/>
			</g>
			<g enable-background="new    ">
				<defs>
					<path id="SVGID_49_" enable-background="new    " d="M560.909,35.827l-25.158-13.687c0.001-0.868,0.285-1.652,0.843-2.331
						c0.55-0.669,1.231-1.07,2.046-1.185l25.158,13.687c-0.815,0.114-1.496,0.515-2.045,1.185
						C561.196,34.174,560.911,34.958,560.909,35.827z"/>
				</defs>
				<clipPath id="SVGID_50_">
					<use xlink:href="#SVGID_49_"  overflow="visible"/>
				</clipPath>
				<g clip-path="url(#SVGID_50_)" enable-background="new    ">
					<path fill="#570867" d="M560.909,35.827l-25.158-13.687c0-0.44,0.074-0.858,0.219-1.252l25.16,13.685
						C560.983,34.969,560.909,35.388,560.909,35.827"/>
					<path fill="#5A096B" d="M561.128,34.574L535.97,20.889c0.058-0.156,0.126-0.309,0.206-0.458l25.158,13.687
						C561.255,34.265,561.185,34.418,561.128,34.574"/>
					<path fill="#5E096F" d="M561.334,34.118l-25.158-13.687c0.069-0.129,0.147-0.254,0.233-0.376l25.157,13.686
						C561.481,33.863,561.403,33.988,561.334,34.118"/>
					<path fill="#610973" d="M561.566,33.74l-25.157-13.686c0.058-0.083,0.12-0.166,0.185-0.245
						c0.032-0.038,0.062-0.074,0.095-0.111l25.159,13.685c-0.032,0.037-0.063,0.074-0.095,0.111
						C561.689,33.575,561.625,33.658,561.566,33.74"/>
					<path fill="#640A77" d="M561.848,33.384l-25.159-13.685c0.096-0.108,0.195-0.207,0.296-0.3l25.159,13.686
						C562.041,33.177,561.941,33.278,561.848,33.384"/>
					<path fill="#680A7B" d="M562.144,33.085l-25.159-13.686c0.105-0.095,0.216-0.181,0.331-0.26l25.157,13.686
						C562.358,32.904,562.249,32.99,562.144,33.085"/>
					<path fill="#6B0A7F" d="M562.473,32.825l-25.157-13.686c0.137-0.096,0.283-0.18,0.434-0.251l25.158,13.686
						C562.757,32.645,562.611,32.728,562.473,32.825"/>
					<path fill="#6E0B83" d="M562.907,32.574l-25.158-13.686c0.276-0.13,0.574-0.219,0.891-0.264l25.158,13.687
						C563.482,32.355,563.184,32.443,562.907,32.574"/>
				</g>
			</g>
			<g>
				<path fill="#B10FD8" d="M639.144,21.722c0.807-0.114,1.486,0.095,2.043,0.61c0.555,0.522,0.835,1.228,0.835,2.097l-0.017,9.322
					l-0.011,4.914l-0.011,6.375c-0.002,0.879-0.287,1.625-0.846,2.248c-0.556,0.63-1.238,0.994-2.043,1.107l-10.768,1.513
					l-31.529,4.432l-8.488,1.193c-0.514,0.071-0.762,0.383-0.762,0.928l-0.033,17.835c-0.001,0.43,0.246,0.614,0.759,0.542
					l43.359-6.093c0.806-0.113,1.459,0.1,1.97,0.62c0.502,0.54,0.75,1.24,0.747,2.108l-0.03,16.367
					c-0.002,0.869-0.25,1.638-0.756,2.31c-0.513,0.672-1.168,1.061-1.974,1.173l-43.358,6.093c-0.514,0.073-0.761,0.385-0.761,0.928
					l-0.016,8.017l-0.018,9.658c-0.001,0.544,0.248,0.785,0.759,0.712l6.366-0.895l34.262-4.815l10.159-1.427
					c0.805-0.114,1.483,0.087,2.039,0.609c0.557,0.523,0.839,1.218,0.837,2.087l-0.013,6.546l-0.015,8.512l-0.012,5.401
					c0,0.869-0.285,1.652-0.843,2.322c-0.559,0.679-1.239,1.08-2.044,1.194l-8.648,1.215l-57.602,8.095l-9.099,1.278
					c-1.919,0.27-2.88-0.634-2.876-2.706l0.011-5.563l0.176-94.905l0.015-7.854c0.002-0.869,0.287-1.653,0.844-2.332
					c0.549-0.669,1.23-1.07,2.045-1.185l11.07-1.556l59.424-8.351L639.144,21.722z"/>
			</g>
		</g>
		<g enable-background="new    ">
			<g enable-background="new    ">
				<defs>
					<path id="SVGID_51_" enable-background="new    " d="M716.689,80.726c8.388,4.562,16.771,9.123,25.159,13.685
						c-0.411-0.224-0.894-0.293-1.45-0.216l-25.158-13.685C715.795,80.432,716.278,80.502,716.689,80.726z"/>
				</defs>
				<clipPath id="SVGID_52_">
					<use xlink:href="#SVGID_51_"  overflow="visible"/>
				</clipPath>
				<g clip-path="url(#SVGID_52_)" enable-background="new    ">
					<path fill="#6E0B83" d="M740.398,94.196l-25.158-13.685c0.366-0.051,0.7-0.039,1.004,0.04l25.158,13.686
						C741.098,94.157,740.764,94.144,740.398,94.196"/>
					<path fill="#6B0A7F" d="M741.401,94.237l-25.158-13.686c0.131,0.033,0.256,0.08,0.375,0.139l25.158,13.686
						C741.658,94.316,741.531,94.27,741.401,94.237"/>
					<path fill="#680A7B" d="M741.776,94.376L716.618,80.69c0.024,0.011,0.048,0.023,0.07,0.037l25.159,13.685
						C741.824,94.399,741.8,94.388,741.776,94.376"/>
				</g>
			</g>
			<g>
				<polygon fill="#760B8C" points="701.591,99.65 676.433,85.964 715.239,80.511 740.398,94.196 				"/>
			</g>
			<g enable-background="new    ">
				<defs>
					<path id="SVGID_53_" enable-background="new    " d="M699.946,99.393l-25.158-13.685c0.472,0.256,1.02,0.344,1.645,0.255
						l25.158,13.686C700.966,99.738,700.419,99.651,699.946,99.393z"/>
				</defs>
				<clipPath id="SVGID_54_">
					<use xlink:href="#SVGID_53_"  overflow="visible"/>
				</clipPath>
				<g clip-path="url(#SVGID_54_)" enable-background="new    ">
					<path fill="#680A7B" d="M699.946,99.393l-25.158-13.685c0.027,0.015,0.057,0.029,0.085,0.043l25.158,13.686
						C700.002,99.423,699.974,99.409,699.946,99.393"/>
					<path fill="#6B0A7F" d="M700.031,99.437l-25.159-13.686c0.143,0.07,0.289,0.125,0.444,0.165l25.157,13.686
						C700.32,99.561,700.172,99.508,700.031,99.437"/>
					<path fill="#6E0B83" d="M700.474,99.602l-25.157-13.686c0.341,0.088,0.712,0.105,1.116,0.047l25.158,13.686
						C701.186,99.707,700.815,99.691,700.474,99.602"/>
				</g>
			</g>
			<g enable-background="new    ">
				<defs>
					<path id="SVGID_55_" enable-background="new    " d="M673.057,131.001c-8.387-4.562-16.772-9.124-25.158-13.685
						c-0.719-0.392-1.079-1.223-1.077-2.491l25.158,13.686C671.978,129.78,672.337,130.61,673.057,131.001z"/>
				</defs>
				<clipPath id="SVGID_56_">
					<use xlink:href="#SVGID_55_"  overflow="visible"/>
				</clipPath>
				<g clip-path="url(#SVGID_56_)" enable-background="new    ">
					<path fill="#570867" d="M673.057,131.001l-25.158-13.685c-0.719-0.392-1.079-1.223-1.077-2.491l25.158,13.686
						C671.978,129.78,672.337,130.61,673.057,131.001"/>
				</g>
			</g>
			<g enable-background="new    ">
				<defs>
					<path id="SVGID_57_" enable-background="new    " d="M672.628,0.262c8.386,4.562,16.772,9.125,25.158,13.686
						c-0.455-0.248-1.055-0.32-1.798-0.215L670.829,0.047C671.573-0.058,672.173,0.014,672.628,0.262z"/>
				</defs>
				<clipPath id="SVGID_58_">
					<use xlink:href="#SVGID_57_"  overflow="visible"/>
				</clipPath>
				<g clip-path="url(#SVGID_58_)" enable-background="new    ">
					<path fill="#6E0B83" d="M695.988,13.732L670.829,0.047c0.514-0.073,0.96-0.061,1.338,0.036l25.158,13.686
						C696.947,13.672,696.501,13.661,695.988,13.732"/>
					<path fill="#6B0A7F" d="M697.325,13.769L672.167,0.083c0.14,0.036,0.272,0.084,0.392,0.143l25.158,13.687
						C697.596,13.852,697.465,13.805,697.325,13.769"/>
					<path fill="#680A7B" d="M697.717,13.912L672.559,0.225c0.024,0.012,0.046,0.023,0.069,0.037l25.158,13.686
						C697.765,13.935,697.741,13.923,697.717,13.912"/>
				</g>
			</g>
			<g>
				<polygon fill="#760B8C" points="675.068,16.673 649.911,2.987 670.829,0.047 695.988,13.732 				"/>
			</g>
			<g>
				<polygon fill="#550865" points="671.979,128.511 646.821,114.825 647.023,6.503 672.18,20.189 				"/>
			</g>
			<g enable-background="new    ">
				<defs>
					<path id="SVGID_59_" enable-background="new    " d="M672.18,20.189L647.023,6.503c0.004-2.07,0.97-3.247,2.889-3.516
						l25.157,13.686C673.15,16.942,672.184,18.119,672.18,20.189z"/>
				</defs>
				<clipPath id="SVGID_60_">
					<use xlink:href="#SVGID_59_"  overflow="visible"/>
				</clipPath>
				<g clip-path="url(#SVGID_60_)" enable-background="new    ">
					<path fill="#570867" d="M672.18,20.189L647.023,6.503c0.002-0.606,0.084-1.136,0.25-1.589L672.431,18.6
						C672.266,19.053,672.182,19.582,672.18,20.189"/>
					<path fill="#5A096B" d="M672.433,18.6l-25.16-13.686c0.052-0.141,0.111-0.273,0.178-0.399L672.61,18.2
						c-0.068,0.125-0.128,0.259-0.18,0.4"/>
					<path fill="#5E096F" d="M672.61,18.2L647.45,4.515c0.055-0.1,0.113-0.194,0.175-0.284l25.158,13.686
						C672.721,18.006,672.662,18.101,672.61,18.2"/>
					<path fill="#610973" d="M672.783,17.917L647.625,4.231c0.059-0.082,0.119-0.159,0.185-0.233l25.157,13.684
						C672.901,17.757,672.841,17.835,672.783,17.917"/>
					<path fill="#640A77" d="M672.967,17.682L647.81,3.998c0.066-0.075,0.137-0.148,0.213-0.214L673.18,17.47
						C673.104,17.536,673.034,17.607,672.967,17.682"/>
					<path fill="#680A7B" d="M673.18,17.47L648.023,3.784c0.084-0.077,0.177-0.149,0.273-0.216l25.159,13.686
						C673.357,17.321,673.266,17.391,673.18,17.47"/>
					<path fill="#6B0A7F" d="M673.454,17.254L648.295,3.568c0.132-0.091,0.276-0.173,0.43-0.246l25.157,13.686
						C673.729,17.08,673.587,17.162,673.454,17.254"/>
					<path fill="#6E0B83" d="M673.882,17.008L648.725,3.322c0.343-0.16,0.738-0.273,1.187-0.336l25.157,13.686
						C674.622,16.735,674.228,16.848,673.882,17.008"/>
				</g>
			</g>
			<g>
				<path fill="#B10FD8" d="M695.988,13.732c1.919-0.269,2.88,0.636,2.876,2.707l-0.149,80.667
					c-0.002,0.877,0.279,1.545,0.826,2.012c0.557,0.464,1.237,0.646,2.05,0.532l38.807-5.454c0.812-0.115,1.467,0.089,1.971,0.62
					c0.501,0.53,0.756,1.229,0.755,2.098l-0.04,21.605c-0.002,0.868-0.26,1.648-0.766,2.312c-0.504,0.672-1.159,1.068-1.973,1.183
					l-65.49,9.204c-1.918,0.27-2.88-0.634-2.875-2.706l0.2-108.322c0.004-2.07,0.97-3.247,2.889-3.516L695.988,13.732z"/>
			</g>
		</g>
	</g>
	<g>
		<g enable-background="new    ">
			<g>
				<polygon fill="#550865" points="90.078,360.7 64.92,347.012 64.962,324.596 90.12,338.284 				"/>
			</g>
			<g>
				<polygon fill="#550865" points="90.16,316.524 65.002,302.839 65.039,282.378 90.198,296.064 				"/>
			</g>
			<g>
				<polygon fill="#760B8C" points="49.3,366.43 24.142,352.745 64.92,347.012 90.078,360.7 				"/>
			</g>
			<g enable-background="new    ">
				<defs>
					<path id="SVGID_61_" enable-background="new    " d="M81.068,258.292c8.386,4.562,16.772,9.124,25.159,13.687
						c-0.801-0.437-1.655-0.808-2.564-1.115c-2.173-0.725-4.471-0.927-6.893-0.586l-25.158-13.686
						c2.421-0.341,4.72-0.139,6.892,0.586C79.413,257.486,80.269,257.857,81.068,258.292z"/>
				</defs>
				<clipPath id="SVGID_62_">
					<use xlink:href="#SVGID_61_"  overflow="visible"/>
				</clipPath>
				<g clip-path="url(#SVGID_62_)" enable-background="new    ">
					<path fill="#6E0B83" d="M96.77,270.279l-25.158-13.686c2.071-0.293,4.052-0.187,5.94,0.304l25.159,13.686
						C100.821,270.092,98.841,269.986,96.77,270.279"/>
					<path fill="#6B0A7F" d="M102.711,270.582l-25.159-13.686c0.32,0.083,0.639,0.178,0.952,0.282
						c0.701,0.237,1.37,0.512,2.006,0.825l25.158,13.686c-0.635-0.312-1.304-0.587-2.005-0.825
						C103.348,270.76,103.031,270.665,102.711,270.582"/>
					<path fill="#680A7B" d="M105.669,271.689L80.51,258.003c0.189,0.093,0.375,0.19,0.56,0.289l25.157,13.687
						C106.044,271.879,105.857,271.783,105.669,271.689"/>
				</g>
			</g>
			<g enable-background="new    ">
				<defs>
					<path id="SVGID_63_" enable-background="new    " d="M26.232,394.239c-2.935-1.598-5.87-3.193-8.805-4.789
						c-5.451-2.969-10.902-5.932-16.353-8.898c-0.72-0.391-1.077-1.223-1.074-2.492l25.158,13.688
						C25.156,393.014,25.513,393.846,26.232,394.239z"/>
				</defs>
				<clipPath id="SVGID_64_">
					<use xlink:href="#SVGID_63_"  overflow="visible"/>
				</clipPath>
				<g clip-path="url(#SVGID_64_)" enable-background="new    ">
					<path fill="#570867" d="M26.232,394.239L1.074,380.551c-0.72-0.391-1.077-1.223-1.074-2.492l25.158,13.688
						C25.156,393.014,25.513,393.846,26.232,394.239"/>
				</g>
			</g>
			<g>
				<polygon fill="#760B8C" points="49.382,322.256 24.224,308.568 65.002,302.839 90.16,316.524 				"/>
			</g>
			<g>
				<polygon fill="#760B8C" points="28.247,279.908 3.088,266.223 71.611,256.593 96.77,270.279 				"/>
			</g>
			<g>
				<polygon fill="#550865" points="25.158,391.746 0,378.059 0.2,269.74 25.359,283.425 				"/>
			</g>
			<g enable-background="new    ">
				<defs>
					<path id="SVGID_65_" enable-background="new    " d="M25.359,283.425L0.2,269.74c0.004-2.072,0.96-3.247,2.888-3.517
						l25.159,13.686C26.319,280.179,25.363,281.353,25.359,283.425z"/>
				</defs>
				<clipPath id="SVGID_66_">
					<use xlink:href="#SVGID_65_"  overflow="visible"/>
				</clipPath>
				<g clip-path="url(#SVGID_66_)" enable-background="new    ">
					<path fill="#570867" d="M25.359,283.425L0.2,269.74c0.001-0.61,0.085-1.142,0.252-1.596l25.159,13.686
						C25.444,282.284,25.36,282.815,25.359,283.425"/>
					<path fill="#5A096B" d="M25.611,281.83L0.452,268.144c0.051-0.14,0.11-0.273,0.178-0.398l25.159,13.686
						C25.721,281.557,25.662,281.69,25.611,281.83"/>
					<path fill="#5E096F" d="M25.789,281.432L0.63,267.746c0.052-0.1,0.11-0.193,0.173-0.283l25.159,13.686
						C25.899,281.239,25.841,281.333,25.789,281.432"/>
					<path fill="#610973" d="M25.962,281.15L0.803,267.464c0.058-0.081,0.119-0.158,0.183-0.232l25.159,13.685
						C26.079,280.991,26.019,281.068,25.962,281.15"/>
					<path fill="#640A77" d="M26.145,280.917L0.986,267.232c0.066-0.076,0.137-0.146,0.212-0.214l25.158,13.686
						C26.282,280.771,26.211,280.843,26.145,280.917"/>
					<path fill="#680A7B" d="M26.356,280.705L1.198,267.018c0.084-0.076,0.176-0.148,0.272-0.214l25.159,13.686
						C26.531,280.557,26.441,280.629,26.356,280.705"/>
					<path fill="#6B0A7F" d="M26.629,280.49L1.47,266.805c0.132-0.092,0.276-0.174,0.43-0.246l25.158,13.686
						C26.903,280.317,26.76,280.399,26.629,280.49"/>
					<path fill="#6E0B83" d="M27.058,280.244L1.9,266.558c0.343-0.161,0.74-0.272,1.189-0.336l25.159,13.686
						C27.798,279.971,27.401,280.083,27.058,280.244"/>
				</g>
			</g>
			<g>
				<path fill="#B10FD8" d="M112.598,313.857l-6.532,9.917c-0.505,0.729-0.737,1.582-0.685,2.547
					c0.042,0.977,0.323,1.701,0.826,2.174l6.351,7.293c0.503,0.578,0.935,1.365,1.286,2.348c0.352,0.988,0.528,1.92,0.526,2.799
					l-0.042,22.242c-0.004,2.625-0.486,5.174-1.455,7.656c-0.968,2.483-2.236,4.705-3.804,6.672
					c-1.568,1.963-3.437,3.582-5.613,4.869c-2.177,1.289-4.478,2.107-6.9,2.449l-68.521,9.629c-1.928,0.272-2.881-0.633-2.877-2.705
					l0.201-108.322c0.004-2.071,0.961-3.246,2.888-3.517l68.522-9.629c2.422-0.341,4.72-0.139,6.893,0.586
					c2.173,0.734,4.037,1.836,5.598,3.306c1.562,1.468,2.824,3.305,3.783,5.517c0.96,2.212,1.432,4.626,1.427,7.242l-0.04,21.27
					c-0.002,0.879-0.18,1.858-0.536,2.939C113.539,312.226,113.105,313.128,112.598,313.857z M90.078,360.7l0.042-22.416
					l-40.777,5.73L49.3,366.43L90.078,360.7 M90.16,316.524l0.038-20.46l-40.777,5.73l-0.038,20.461L90.16,316.524"/>
			</g>
		</g>
		<g enable-background="new    ">
			<g enable-background="new    ">
				<defs>
					<path id="SVGID_67_" enable-background="new    " d="M188.564,327.278c8.387,4.564,16.773,9.127,25.159,13.688
						c-0.41-0.225-0.892-0.295-1.449-0.217l-25.159-13.686C187.672,326.985,188.154,327.057,188.564,327.278z"/>
				</defs>
				<clipPath id="SVGID_68_">
					<use xlink:href="#SVGID_67_"  overflow="visible"/>
				</clipPath>
				<g clip-path="url(#SVGID_68_)" enable-background="new    ">
					<path fill="#6E0B83" d="M212.274,340.748l-25.159-13.686c0.367-0.051,0.701-0.037,1.003,0.041l25.158,13.684
						C212.974,340.711,212.64,340.698,212.274,340.748"/>
					<path fill="#6B0A7F" d="M213.276,340.787l-25.158-13.684c0.131,0.033,0.257,0.08,0.375,0.137l25.159,13.688
						C213.532,340.87,213.408,340.823,213.276,340.787"/>
					<path fill="#680A7B" d="M213.652,340.928l-25.159-13.688c0.025,0.014,0.048,0.025,0.071,0.037l25.159,13.688
						C213.699,340.952,213.676,340.94,213.652,340.928"/>
				</g>
			</g>
			<g>
				<polygon fill="#760B8C" points="173.468,346.203 148.309,332.516 187.115,327.063 212.274,340.748 				"/>
			</g>
			<g enable-background="new    ">
				<defs>
					<path id="SVGID_69_" enable-background="new    " d="M171.822,345.948c-8.386-4.562-16.772-9.123-25.159-13.688
						c0.473,0.258,1.02,0.346,1.645,0.256l25.159,13.688C172.842,346.289,172.294,346.203,171.822,345.948z"/>
				</defs>
				<clipPath id="SVGID_70_">
					<use xlink:href="#SVGID_69_"  overflow="visible"/>
				</clipPath>
				<g clip-path="url(#SVGID_70_)" enable-background="new    ">
					<path fill="#680A7B" d="M171.822,345.948l-25.159-13.688c0.028,0.018,0.056,0.031,0.085,0.045l25.159,13.686
						C171.879,345.977,171.85,345.961,171.822,345.948"/>
					<path fill="#6B0A7F" d="M171.907,345.991l-25.159-13.686c0.141,0.068,0.29,0.123,0.443,0.164l25.159,13.685
						C172.195,346.116,172.048,346.061,171.907,345.991"/>
					<path fill="#6E0B83" d="M172.35,346.155l-25.159-13.685c0.34,0.088,0.713,0.105,1.118,0.047l25.159,13.688
						C173.062,346.26,172.69,346.243,172.35,346.155"/>
				</g>
			</g>
			<g enable-background="new    ">
				<defs>
					<path id="SVGID_71_" enable-background="new    " d="M144.933,377.555c-8.386-4.562-16.772-9.123-25.159-13.684
						c-0.72-0.393-1.079-1.225-1.077-2.492l25.158,13.686C143.853,376.332,144.213,377.164,144.933,377.555z"/>
				</defs>
				<clipPath id="SVGID_72_">
					<use xlink:href="#SVGID_71_"  overflow="visible"/>
				</clipPath>
				<g clip-path="url(#SVGID_72_)" enable-background="new    ">
					<path fill="#570867" d="M144.933,377.555l-25.159-13.684c-0.72-0.393-1.079-1.225-1.077-2.492l25.158,13.686
						C143.853,376.332,144.213,377.164,144.933,377.555"/>
				</g>
			</g>
			<g enable-background="new    ">
				<defs>
					<path id="SVGID_73_" enable-background="new    " d="M144.505,246.815c8.386,4.563,16.771,9.125,25.158,13.686
						c-0.456-0.247-1.055-0.319-1.799-0.215L142.706,246.6C143.449,246.496,144.05,246.567,144.505,246.815z"/>
				</defs>
				<clipPath id="SVGID_74_">
					<use xlink:href="#SVGID_73_"  overflow="visible"/>
				</clipPath>
				<g clip-path="url(#SVGID_74_)" enable-background="new    ">
					<path fill="#6E0B83" d="M167.864,260.286L142.706,246.6c0.515-0.072,0.961-0.06,1.337,0.036l25.159,13.687
						C168.825,260.226,168.379,260.213,167.864,260.286"/>
					<path fill="#6B0A7F" d="M169.201,260.323l-25.159-13.687c0.141,0.036,0.271,0.083,0.393,0.143l25.159,13.686
						C169.472,260.406,169.341,260.359,169.201,260.323"/>
					<path fill="#680A7B" d="M169.594,260.465l-25.159-13.686c0.023,0.012,0.047,0.024,0.07,0.036l25.158,13.686
						C169.641,260.489,169.616,260.477,169.594,260.465"/>
				</g>
			</g>
			<g>
				<polygon fill="#760B8C" points="146.945,263.226 121.786,249.54 142.706,246.6 167.864,260.286 				"/>
			</g>
			<g>
				<polygon fill="#550865" points="143.856,375.065 118.698,361.379 118.898,253.057 144.057,266.743 				"/>
			</g>
			<g enable-background="new    ">
				<defs>
					<path id="SVGID_75_" enable-background="new    " d="M144.057,266.743l-25.159-13.686c0.004-2.071,0.97-3.248,2.888-3.517
						l25.159,13.686C145.026,263.495,144.061,264.671,144.057,266.743z"/>
				</defs>
				<clipPath id="SVGID_76_">
					<use xlink:href="#SVGID_75_"  overflow="visible"/>
				</clipPath>
				<g clip-path="url(#SVGID_76_)" enable-background="new    ">
					<path fill="#570867" d="M144.057,266.743l-25.159-13.686c0.001-0.607,0.085-1.136,0.25-1.589l25.159,13.686
						C144.142,265.607,144.058,266.136,144.057,266.743"/>
					<path fill="#5A096B" d="M144.307,265.154l-25.159-13.686c0.052-0.142,0.112-0.275,0.179-0.4l25.159,13.686
						C144.419,264.879,144.359,265.013,144.307,265.154"/>
					<path fill="#5E096F" d="M144.486,264.753l-25.159-13.686c0.053-0.099,0.111-0.194,0.174-0.284l25.159,13.687
						C144.598,264.56,144.54,264.654,144.486,264.753"/>
					<path fill="#610973" d="M144.66,264.471l-25.159-13.687c0.057-0.081,0.119-0.159,0.184-0.232l25.159,13.685
						C144.779,264.311,144.717,264.389,144.66,264.471"/>
					<path fill="#640A77" d="M144.844,264.237l-25.159-13.685c0.066-0.076,0.138-0.147,0.213-0.214l25.159,13.685
						C144.982,264.09,144.911,264.161,144.844,264.237"/>
					<path fill="#680A7B" d="M145.057,264.022l-25.159-13.685c0.086-0.077,0.177-0.149,0.273-0.215l25.158,13.686
						C145.233,263.873,145.142,263.946,145.057,264.022"/>
					<path fill="#6B0A7F" d="M145.329,263.808l-25.158-13.686c0.133-0.093,0.276-0.175,0.431-0.246l25.158,13.685
						C145.606,263.635,145.462,263.716,145.329,263.808"/>
					<path fill="#6E0B83" d="M145.76,263.561l-25.158-13.685c0.343-0.162,0.737-0.273,1.184-0.336l25.159,13.686
						C146.498,263.288,146.103,263.4,145.76,263.561"/>
				</g>
			</g>
			<g>
				<path fill="#B10FD8" d="M167.864,260.286c1.919-0.27,2.88,0.635,2.876,2.706l-0.149,80.669c-0.002,0.877,0.28,1.543,0.828,2.012
					c0.555,0.465,1.235,0.646,2.049,0.531l38.806-5.455c0.813-0.113,1.468,0.09,1.97,0.621c0.503,0.529,0.759,1.23,0.757,2.098
					l-0.04,21.604c-0.002,0.869-0.26,1.648-0.765,2.314c-0.505,0.67-1.16,1.068-1.973,1.184l-65.49,9.201
					c-1.919,0.27-2.881-0.635-2.877-2.705l0.201-108.322c0.004-2.072,0.97-3.248,2.888-3.517L167.864,260.286z"/>
			</g>
		</g>
		<g enable-background="new    ">
			<g>
				<polygon fill="#550865" points="304.809,327.743 279.65,314.057 279.76,255.149 304.919,268.835 				"/>
			</g>
			<g>
				<polygon fill="#760B8C" points="269.177,332.752 244.02,319.066 279.65,314.057 304.809,327.743 				"/>
			</g>
			<g enable-background="new    ">
				<defs>
					<path id="SVGID_77_" enable-background="new    " d="M298.369,227.757c8.386,4.563,16.771,9.124,25.158,13.686
						c-0.803-0.437-1.658-0.81-2.565-1.117c-2.173-0.727-4.471-0.928-6.902-0.587l-25.159-13.686
						c2.431-0.342,4.729-0.14,6.902,0.587C296.711,226.947,297.566,227.32,298.369,227.757z"/>
				</defs>
				<clipPath id="SVGID_78_">
					<use xlink:href="#SVGID_77_"  overflow="visible"/>
				</clipPath>
				<g clip-path="url(#SVGID_78_)" enable-background="new    ">
					<path fill="#6E0B83" d="M314.06,239.739l-25.159-13.686c2.079-0.292,4.061-0.186,5.951,0.304l25.158,13.686
						C318.12,239.553,316.139,239.447,314.06,239.739"/>
					<path fill="#6B0A7F" d="M320.01,240.044l-25.158-13.686c0.32,0.083,0.636,0.176,0.951,0.282c0.697,0.236,1.365,0.512,2,0.825
						l25.159,13.686c-0.636-0.314-1.303-0.588-2-0.825C320.647,240.221,320.33,240.126,320.01,240.044"/>
					<path fill="#680A7B" d="M322.962,241.151l-25.159-13.686c0.191,0.094,0.379,0.192,0.566,0.292l25.158,13.686
						C323.342,241.342,323.153,241.244,322.962,241.151"/>
				</g>
			</g>
			<g enable-background="new    ">
				<defs>
					<path id="SVGID_79_" enable-background="new    " d="M250.56,360.17c-8.386-4.56-16.771-9.123-25.159-13.685
						c-1.07-0.58-2.054-1.293-2.953-2.139c-1.614-1.52-2.867-3.385-3.771-5.603c-0.907-2.221-1.362-4.637-1.357-7.262l25.159,13.686
						c-0.005,2.627,0.45,5.041,1.356,7.262c0.906,2.221,2.158,4.084,3.773,5.604C248.506,358.877,249.489,359.588,250.56,360.17z"/>
				</defs>
				<clipPath id="SVGID_80_">
					<use xlink:href="#SVGID_79_"  overflow="visible"/>
				</clipPath>
				<g clip-path="url(#SVGID_80_)" enable-background="new    ">
					<path fill="#570867" d="M250.56,360.17l-25.159-13.685c-1.07-0.58-2.054-1.293-2.953-2.139
						c-1.614-1.52-2.867-3.385-3.771-5.603c-0.907-2.221-1.362-4.637-1.357-7.262l25.159,13.686
						c-0.005,2.627,0.45,5.041,1.356,7.262c0.906,2.221,2.158,4.084,3.773,5.604C248.506,358.877,249.489,359.588,250.56,360.17"/>
				</g>
			</g>
			<g>
				<polygon fill="#760B8C" points="260.4,247.28 235.241,233.596 288.901,226.054 314.06,239.739 				"/>
			</g>
			<g>
				<polygon fill="#550865" points="242.478,345.166 217.319,331.481 217.462,255.233 242.619,268.919 				"/>
			</g>
			<g>
				<path fill="#B10FD8" d="M330.342,249.148c0.95,2.213,1.432,4.625,1.426,7.241l-0.142,76.248
					c-0.004,2.627-0.495,5.174-1.454,7.654c-0.968,2.484-2.237,4.705-3.805,6.67c-1.568,1.967-3.444,3.586-5.612,4.873
					c-2.177,1.289-4.478,2.109-6.91,2.451l-53.658,7.541c-2.432,0.34-4.73,0.168-6.903-0.508c-2.172-0.678-4.062-1.77-5.677-3.287
					c-1.615-1.52-2.867-3.383-3.773-5.604c-0.906-2.221-1.361-4.635-1.356-7.262l0.141-76.247c0.005-2.616,0.47-5.162,1.385-7.637
					c0.915-2.476,2.173-4.666,3.794-6.583c1.622-1.915,3.516-3.546,5.693-4.892c2.176-1.338,4.477-2.186,6.908-2.528l53.66-7.541
					c2.431-0.341,4.729-0.14,6.902,0.587c2.164,0.735,4.037,1.835,5.598,3.305C328.122,245.1,329.383,246.935,330.342,249.148z
					 M304.809,327.743l0.109-58.908l-35.632,5.008l-0.109,58.909L304.809,327.743"/>
			</g>
			<g enable-background="new    ">
				<defs>
					<path id="SVGID_81_" enable-background="new    " d="M242.619,268.919l-25.157-13.686c0.005-2.616,0.468-5.162,1.383-7.637
						c0.915-2.476,2.174-4.667,3.795-6.583c1.622-1.915,3.516-3.546,5.693-4.892c2.176-1.337,4.477-2.186,6.907-2.526L260.4,247.28
						c-2.432,0.342-4.732,1.19-6.908,2.528c-2.177,1.345-4.071,2.976-5.693,4.892c-1.621,1.916-2.88,4.107-3.794,6.583
						C243.089,263.757,242.625,266.303,242.619,268.919z"/>
				</defs>
				<clipPath id="SVGID_82_">
					<use xlink:href="#SVGID_81_"  overflow="visible"/>
				</clipPath>
				<g clip-path="url(#SVGID_82_)" enable-background="new    ">
					<path fill="#570867" d="M242.619,268.919l-25.157-13.686c0.005-2.603,0.464-5.138,1.37-7.602l25.159,13.686
						C243.084,263.782,242.625,266.316,242.619,268.919"/>
					<path fill="#5A096B" d="M243.991,261.318l-25.159-13.686c0.005-0.012,0.009-0.023,0.013-0.035
						c0.382-1.032,0.822-2.015,1.325-2.948l25.159,13.686c-0.503,0.933-0.944,1.915-1.325,2.948
						C244,261.294,243.995,261.307,243.991,261.318"/>
					<path fill="#5E096F" d="M245.329,258.334l-25.159-13.686c0.401-0.746,0.842-1.46,1.321-2.144l25.159,13.686
						C246.17,256.874,245.73,257.588,245.329,258.334"/>
					<path fill="#610973" d="M246.65,256.19l-25.159-13.686c0.361-0.514,0.743-1.011,1.15-1.491c0.109-0.128,0.22-0.257,0.331-0.382
						l25.158,13.686c-0.112,0.125-0.222,0.254-0.331,0.382C247.393,255.179,247.01,255.676,246.65,256.19"/>
					<path fill="#640A77" d="M248.13,254.317l-25.158-13.686c0.598-0.678,1.232-1.318,1.902-1.922l25.159,13.686
						C249.363,252.999,248.729,253.639,248.13,254.317"/>
					<path fill="#680A7B" d="M250.033,252.395l-25.159-13.686c0.751-0.675,1.547-1.304,2.389-1.887l25.159,13.686
						C251.58,251.09,250.784,251.72,250.033,252.395"/>
					<path fill="#6B0A7F" d="M252.422,250.508l-25.159-13.686c0.349-0.242,0.706-0.474,1.071-0.7
						c0.614-0.377,1.239-0.715,1.873-1.015l25.159,13.686c-0.635,0.299-1.259,0.637-1.874,1.015
						C253.128,250.034,252.771,250.266,252.422,250.508"/>
					<path fill="#6E0B83" d="M255.365,248.793l-25.159-13.686c1.613-0.761,3.29-1.267,5.035-1.511L260.4,247.28
						C258.655,247.526,256.978,248.032,255.365,248.793"/>
				</g>
			</g>
		</g>
		<g enable-background="new    ">
			<g enable-background="new    ">
				<defs>
					<path id="SVGID_83_" enable-background="new    " d="M415.659,295.401c8.388,4.564,16.773,9.126,25.159,13.686
						c-0.449-0.244-0.965-0.324-1.547-0.242l-25.157-13.686C414.696,295.078,415.212,295.158,415.659,295.401z"/>
				</defs>
				<clipPath id="SVGID_84_">
					<use xlink:href="#SVGID_83_"  overflow="visible"/>
				</clipPath>
				<g clip-path="url(#SVGID_84_)" enable-background="new    ">
					<path fill="#6E0B83" d="M439.272,308.846l-25.157-13.686c0.375-0.053,0.724-0.039,1.045,0.045l25.158,13.686
						C439.996,308.807,439.65,308.794,439.272,308.846"/>
					<path fill="#6B0A7F" d="M440.317,308.891l-25.158-13.686c0.146,0.037,0.285,0.089,0.421,0.155l25.157,13.685
						C440.604,308.98,440.464,308.929,440.317,308.891"/>
					<path fill="#680A7B" d="M440.737,309.045L415.58,295.36c0.025,0.014,0.054,0.026,0.079,0.041l25.159,13.686
						C440.792,309.074,440.765,309.059,440.737,309.045"/>
				</g>
			</g>
			<g>
				<polygon fill="#760B8C" points="390.608,315.685 365.45,302 414.114,295.16 439.272,308.846 				"/>
			</g>
			<g enable-background="new    ">
				<defs>
					<path id="SVGID_85_" enable-background="new    " d="M388.971,315.429l-25.157-13.685c0.471,0.257,1.018,0.344,1.636,0.257
						l25.158,13.686C389.988,315.771,389.443,315.685,388.971,315.429z"/>
				</defs>
				<clipPath id="SVGID_86_">
					<use xlink:href="#SVGID_85_"  overflow="visible"/>
				</clipPath>
				<g clip-path="url(#SVGID_86_)" enable-background="new    ">
					<path fill="#680A7B" d="M388.971,315.429l-25.157-13.685c0.027,0.016,0.056,0.03,0.085,0.044l25.158,13.686
						C389.027,315.459,388.999,315.444,388.971,315.429"/>
					<path fill="#6B0A7F" d="M389.057,315.473l-25.158-13.686c0.141,0.069,0.29,0.124,0.442,0.164l25.16,13.685
						c-0.154-0.04-0.304-0.094-0.444-0.165"/>
					<path fill="#6E0B83" d="M389.501,315.637l-25.16-13.685c0.339,0.088,0.709,0.103,1.109,0.049l25.158,13.686
						C390.207,315.742,389.838,315.725,389.501,315.637"/>
				</g>
			</g>
			<g enable-background="new    ">
				<defs>
					<path id="SVGID_87_" enable-background="new    " d="M415.823,208.681c8.386,4.562,16.772,9.123,25.158,13.686
						c-0.449-0.244-0.965-0.33-1.549-0.248l-25.158-13.686C414.858,208.351,415.374,208.437,415.823,208.681z"/>
				</defs>
				<clipPath id="SVGID_88_">
					<use xlink:href="#SVGID_87_"  overflow="visible"/>
				</clipPath>
				<g clip-path="url(#SVGID_88_)" enable-background="new    ">
					<path fill="#6E0B83" d="M439.433,222.119l-25.158-13.686c0.374-0.053,0.72-0.037,1.038,0.046l25.158,13.686
						C440.152,222.083,439.807,222.066,439.433,222.119"/>
					<path fill="#6B0A7F" d="M440.471,222.166l-25.158-13.686c0.148,0.038,0.291,0.091,0.429,0.158l25.158,13.686
						C440.761,222.256,440.619,222.203,440.471,222.166"/>
					<path fill="#680A7B" d="M440.9,222.324l-25.158-13.686c0.026,0.014,0.056,0.028,0.082,0.043l25.158,13.686
						C440.954,222.352,440.928,222.338,440.9,222.324"/>
				</g>
			</g>
			<g enable-background="new    ">
				<defs>
					<path id="SVGID_89_" enable-background="new    " d="M369.114,343.508c-8.387-4.561-16.772-9.123-25.157-13.688
						c-1.07-0.58-2.054-1.291-2.953-2.137c-1.614-1.518-2.875-3.383-3.781-5.603c-0.906-2.22-1.353-4.637-1.348-7.263l25.159,13.686
						c-0.006,2.627,0.441,5.043,1.347,7.264c0.907,2.219,2.168,4.082,3.781,5.602C367.062,342.215,368.045,342.926,369.114,343.508z
						"/>
				</defs>
				<clipPath id="SVGID_90_">
					<use xlink:href="#SVGID_89_"  overflow="visible"/>
				</clipPath>
				<g clip-path="url(#SVGID_90_)" enable-background="new    ">
					<path fill="#570867" d="M369.115,343.508l-25.158-13.688c-1.07-0.58-2.054-1.291-2.953-2.137
						c-1.614-1.518-2.875-3.383-3.781-5.603c-0.906-2.22-1.353-4.637-1.348-7.263l25.159,13.686
						c-0.006,2.627,0.441,5.043,1.347,7.264c0.907,2.219,2.168,4.082,3.781,5.602C367.062,342.215,368.045,342.926,369.115,343.508"
						/>
				</g>
			</g>
			<g>
				<polygon fill="#550865" points="361.035,328.504 335.876,314.818 335.881,311.879 361.039,325.567 				"/>
			</g>
			<g>
				<polygon fill="#550865" points="361.039,325.567 335.881,311.879 335.904,299.932 361.063,313.618 				"/>
			</g>
			<g>
				<polygon fill="#550865" points="361.063,313.618 335.904,299.932 335.974,261.808 361.133,275.495 				"/>
			</g>
			<g>
				<polygon fill="#760B8C" points="381.679,230.236 356.522,216.55 414.275,208.433 439.433,222.119 				"/>
			</g>
			<g>
				<polygon fill="#550865" points="361.133,275.495 335.974,261.808 335.994,251.167 361.153,264.853 				"/>
			</g>
			<g>
				<polygon fill="#760B8C" points="378.946,230.62 353.79,216.933 356.522,216.55 381.679,230.236 				"/>
			</g>
			<g>
				<polygon fill="#550865" points="361.153,264.853 335.994,251.167 336.017,238.572 361.176,252.257 				"/>
			</g>
			<g enable-background="new    ">
				<defs>
					<path id="SVGID_91_" enable-background="new    " d="M361.176,252.257l-25.159-13.686c0.005-2.616,0.461-5.161,1.376-7.636
						c0.914-2.476,2.183-4.667,3.804-6.584c1.621-1.917,3.516-3.546,5.692-4.892c2.177-1.337,4.478-2.186,6.9-2.526l25.157,13.686
						c-2.421,0.341-4.721,1.189-6.898,2.525c-2.177,1.345-4.073,2.976-5.694,4.893c-1.621,1.916-2.889,4.108-3.802,6.584
						C361.636,247.096,361.181,249.641,361.176,252.257z"/>
				</defs>
				<clipPath id="SVGID_92_">
					<use xlink:href="#SVGID_91_"  overflow="visible"/>
				</clipPath>
				<g clip-path="url(#SVGID_92_)" enable-background="new    ">
					<path fill="#570867" d="M361.176,252.257l-25.159-13.686c0.005-2.604,0.457-5.138,1.363-7.602l25.159,13.687
						C361.632,247.12,361.181,249.653,361.176,252.257"/>
					<path fill="#5A096B" d="M362.539,244.656L337.38,230.97c0.004-0.012,0.008-0.022,0.013-0.034
						c0.377-1.021,0.815-1.995,1.314-2.921l25.157,13.685c-0.498,0.926-0.936,1.9-1.312,2.922
						C362.547,244.633,362.543,244.644,362.539,244.656"/>
					<path fill="#5E096F" d="M363.864,241.7l-25.157-13.685c0.403-0.749,0.846-1.467,1.327-2.154l25.159,13.685
						C364.711,240.233,364.269,240.951,363.864,241.7"/>
					<path fill="#610973" d="M365.193,239.546l-25.159-13.685c0.365-0.52,0.753-1.024,1.163-1.509
						c0.109-0.129,0.221-0.257,0.333-0.385l25.159,13.686c-0.113,0.127-0.224,0.255-0.335,0.384
						C365.946,238.523,365.557,239.026,365.193,239.546"/>
					<path fill="#640A77" d="M366.69,237.653l-25.159-13.686c0.598-0.677,1.232-1.316,1.9-1.919l25.158,13.686
						C367.92,236.336,367.287,236.976,366.69,237.653"/>
					<path fill="#680A7B" d="M368.588,235.733l-25.158-13.686c0.751-0.675,1.547-1.304,2.389-1.887l25.157,13.685
						C370.136,234.429,369.339,235.057,368.588,235.733"/>
					<path fill="#6B0A7F" d="M370.977,233.846l-25.157-13.685c0.349-0.242,0.706-0.475,1.07-0.701
						c0.616-0.378,1.24-0.717,1.876-1.016l25.159,13.686c-0.636,0.3-1.261,0.638-1.875,1.015
						C371.684,233.371,371.326,233.604,370.977,233.846"/>
					<path fill="#6E0B83" d="M373.924,232.13l-25.159-13.686c1.612-0.76,3.286-1.265,5.024-1.51l25.157,13.686
						C377.209,230.864,375.534,231.37,373.924,232.13"/>
				</g>
			</g>
			<g>
				<path fill="#B10FD8" d="M439.433,222.119c0.813-0.114,1.494,0.096,2.048,0.61c0.557,0.523,0.831,1.228,0.829,2.097
					l-0.041,21.596c-0.001,0.878-0.276,1.652-0.835,2.332c-0.559,0.679-1.239,1.07-2.054,1.185l-48.663,6.839
					c-0.804,0.113-1.485,0.485-2.044,1.107c-0.558,0.623-0.834,1.368-0.836,2.247l-0.098,53.01
					c-0.002,0.877,0.271,1.545,0.828,2.012c0.555,0.465,1.236,0.646,2.04,0.533l48.664-6.84c0.812-0.113,1.494,0.087,2.05,0.609
					c0.556,0.523,0.828,1.22,0.826,2.088l-0.039,21.606c-0.002,0.867-0.277,1.65-0.836,2.32c-0.559,0.68-1.239,1.08-2.053,1.195
					l-31.679,4.451l-26.075,3.666l-2.73,0.383c-2.424,0.34-4.722,0.168-6.894-0.51c-2.173-0.678-4.064-1.768-5.679-3.285
					c-1.614-1.52-2.874-3.383-3.781-5.602c-0.906-2.221-1.353-4.637-1.347-7.264l0.004-2.938l0.024-11.949l0.07-38.124l0.021-10.641
					l0.022-12.596c0.005-2.616,0.46-5.161,1.376-7.636c0.914-2.476,2.182-4.668,3.802-6.584c1.621-1.917,3.517-3.547,5.694-4.893
					c2.177-1.336,4.477-2.184,6.898-2.525l2.733-0.384L439.433,222.119z"/>
			</g>
		</g>
		<g enable-background="new    ">
			<g enable-background="new    ">
				<defs>
					<path id="SVGID_93_" enable-background="new    " d="M648.359,263.844c8.388,4.562,16.771,9.124,25.159,13.686
						c-0.449-0.245-0.963-0.325-1.539-0.244l-25.158-13.686C647.398,263.519,647.909,263.599,648.359,263.844z"/>
				</defs>
				<clipPath id="SVGID_94_">
					<use xlink:href="#SVGID_93_"  overflow="visible"/>
				</clipPath>
				<g clip-path="url(#SVGID_94_)" enable-background="new    ">
					<path fill="#6E0B83" d="M671.979,277.286l-25.158-13.686c0.371-0.051,0.718-0.038,1.037,0.046l25.158,13.686
						C672.697,277.248,672.353,277.233,671.979,277.286"/>
					<path fill="#6B0A7F" d="M673.017,277.331l-25.158-13.686c0.145,0.037,0.284,0.089,0.42,0.156l25.158,13.686
						C673.302,277.421,673.161,277.369,673.017,277.331"/>
					<path fill="#680A7B" d="M673.437,277.487l-25.158-13.686c0.027,0.013,0.054,0.027,0.081,0.042l25.159,13.686
						C673.49,277.514,673.464,277.5,673.437,277.487"/>
				</g>
			</g>
			<g>
				<polygon fill="#760B8C" points="661.819,278.714 636.662,265.028 646.821,263.599 671.979,277.286 				"/>
			</g>
			<g enable-background="new    ">
				<defs>
					<path id="SVGID_95_" enable-background="new    " d="M640.912,222.972c2.935,1.597,5.87,3.194,8.805,4.79
						c1.259,0.685,2.516,1.369,3.774,2.052c4.192,2.282,8.386,4.563,12.578,6.844c-0.41-0.224-0.89-0.299-1.439-0.222
						l-25.158-13.686C640.022,222.673,640.5,222.747,640.912,222.972z"/>
				</defs>
				<clipPath id="SVGID_96_">
					<use xlink:href="#SVGID_95_"  overflow="visible"/>
				</clipPath>
				<g clip-path="url(#SVGID_96_)" enable-background="new    ">
					<path fill="#6E0B83" d="M664.63,236.436l-25.158-13.686c0.357-0.049,0.684-0.036,0.982,0.042l25.158,13.686
						C665.314,236.4,664.985,236.387,664.63,236.436"/>
					<path fill="#6B0A7F" d="M665.611,236.478l-25.158-13.686c0.135,0.035,0.263,0.082,0.386,0.143l25.158,13.685
						C665.874,236.56,665.745,236.512,665.611,236.478"/>
					<path fill="#680A7B" d="M665.997,236.62l-25.158-13.685c0.023,0.012,0.049,0.024,0.073,0.038l25.157,13.686
						C666.045,236.645,666.021,236.632,665.997,236.62"/>
				</g>
			</g>
			<g>
				<polygon fill="#760B8C" points="627.56,283.529 602.401,269.843 636.662,265.028 661.819,278.714 				"/>
			</g>
			<g>
				<polygon fill="#760B8C" points="621.193,284.424 596.036,270.738 602.401,269.843 627.56,283.529 				"/>
			</g>
			<g enable-background="new    ">
				<defs>
					<path id="SVGID_97_" enable-background="new    " d="M620.717,284.366c-8.386-4.561-16.772-9.123-25.157-13.684
						c0.118,0.064,0.277,0.084,0.477,0.056l25.157,13.686C620.995,284.452,620.837,284.432,620.717,284.366z"/>
				</defs>
				<clipPath id="SVGID_98_">
					<use xlink:href="#SVGID_97_"  overflow="visible"/>
				</clipPath>
				<g clip-path="url(#SVGID_98_)" enable-background="new    ">
					<path fill="#680A7B" d="M620.717,284.366l-25.157-13.684c0.005,0.003,0.011,0.007,0.017,0.009l25.159,13.686
						C620.729,284.373,620.723,284.37,620.717,284.366"/>
					<path fill="#6B0A7F" d="M620.735,284.376l-25.159-13.686c0.032,0.016,0.067,0.028,0.103,0.038l25.157,13.686
						C620.801,284.404,620.766,284.392,620.735,284.376"/>
					<path fill="#6E0B83" d="M620.837,284.414l-25.157-13.686c0.1,0.026,0.218,0.029,0.357,0.01l25.157,13.686
						C621.056,284.443,620.937,284.439,620.837,284.414"/>
				</g>
			</g>
			<g enable-background="new    ">
				<defs>
					<path id="SVGID_99_" enable-background="new    " d="M648.525,175.976c2.933,1.598,5.87,3.194,8.805,4.79
						c5.451,2.965,10.902,5.93,16.353,8.896c-0.448-0.244-0.962-0.329-1.539-0.248l-25.158-13.686
						C647.562,175.647,648.074,175.733,648.525,175.976z"/>
				</defs>
				<clipPath id="SVGID_100_">
					<use xlink:href="#SVGID_99_"  overflow="visible"/>
				</clipPath>
				<g clip-path="url(#SVGID_100_)" enable-background="new    ">
					<path fill="#6E0B83" d="M672.143,189.414l-25.158-13.686c0.37-0.051,0.712-0.035,1.028,0.047l25.158,13.686
						C672.854,189.379,672.512,189.362,672.143,189.414"/>
					<path fill="#6B0A7F" d="M673.171,189.46l-25.158-13.686c0.148,0.039,0.292,0.091,0.428,0.158l25.157,13.686
						C673.462,189.552,673.319,189.499,673.171,189.46"/>
					<path fill="#680A7B" d="M673.598,189.619l-25.157-13.686c0.027,0.014,0.057,0.028,0.084,0.043l25.157,13.686
						C673.654,189.648,673.626,189.633,673.598,189.619"/>
				</g>
			</g>
			<g>
				<polygon fill="#760B8C" points="667.288,190.097 642.13,176.41 646.984,175.728 672.143,189.414 				"/>
			</g>
			<g enable-background="new    ">
				<defs>
					<path id="SVGID_101_" enable-background="new    " d="M594.783,314.333c-8.387-4.562-16.772-9.125-25.158-13.687
						c-0.72-0.392-1.079-1.222-1.077-2.491l25.157,13.686C593.703,313.11,594.064,313.941,594.783,314.333z"/>
				</defs>
				<clipPath id="SVGID_102_">
					<use xlink:href="#SVGID_101_"  overflow="visible"/>
				</clipPath>
				<g clip-path="url(#SVGID_102_)" enable-background="new    ">
					<path fill="#570867" d="M594.783,314.333l-25.158-13.687c-0.72-0.392-1.079-1.222-1.077-2.491l25.157,13.686
						C593.703,313.11,594.064,313.941,594.783,314.333"/>
				</g>
			</g>
			<g>
				<polygon fill="#550865" points="593.705,311.842 568.548,298.155 568.558,292.593 593.715,306.279 				"/>
			</g>
			<g>
				<polygon fill="#760B8C" points="621.271,242.53 596.112,228.845 639.472,222.75 664.63,236.436 				"/>
			</g>
			<g enable-background="new    ">
				<defs>
					<path id="SVGID_103_" enable-background="new    " d="M620.745,242.475c-8.386-4.561-16.773-9.123-25.158-13.685
						c0.125,0.067,0.3,0.085,0.525,0.054l25.158,13.686C621.044,242.561,620.87,242.543,620.745,242.475z"/>
				</defs>
				<clipPath id="SVGID_104_">
					<use xlink:href="#SVGID_103_"  overflow="visible"/>
				</clipPath>
				<g clip-path="url(#SVGID_104_)" enable-background="new    ">
					<path fill="#680A7B" d="M620.745,242.475l-25.158-13.685c0.006,0.002,0.011,0.005,0.017,0.008l25.157,13.686
						C620.756,242.482,620.751,242.479,620.745,242.475"/>
					<path fill="#6B0A7F" d="M620.762,242.485l-25.157-13.686c0.03,0.016,0.065,0.027,0.101,0.037l25.159,13.686
						C620.827,242.512,620.794,242.5,620.762,242.485"/>
					<path fill="#6E0B83" d="M620.864,242.522l-25.159-13.686c0.11,0.028,0.246,0.031,0.407,0.009l25.158,13.686
						C621.109,242.553,620.974,242.55,620.864,242.522"/>
				</g>
			</g>
			<g>
				<polygon fill="#760B8C" points="607.864,198.448 582.707,184.762 642.13,176.41 667.288,190.097 				"/>
			</g>
			<g>
				<polygon fill="#550865" points="593.715,306.279 568.558,292.593 568.733,197.688 593.894,211.374 				"/>
			</g>
			<g>
				<polygon fill="#760B8C" points="596.795,200.003 571.637,186.317 582.707,184.762 607.864,198.448 				"/>
			</g>
			<g>
				<polygon fill="#550865" points="593.894,211.374 568.733,197.688 568.748,189.834 593.906,203.52 				"/>
			</g>
			<g enable-background="new    ">
				<defs>
					<path id="SVGID_105_" enable-background="new    " d="M593.906,203.52l-25.158-13.686c0.002-0.868,0.286-1.652,0.845-2.331
						c0.549-0.669,1.232-1.071,2.044-1.186l25.158,13.686c-0.814,0.115-1.495,0.517-2.045,1.185
						C594.192,201.867,593.907,202.652,593.906,203.52z"/>
				</defs>
				<clipPath id="SVGID_106_">
					<use xlink:href="#SVGID_105_"  overflow="visible"/>
				</clipPath>
				<g clip-path="url(#SVGID_106_)" enable-background="new    ">
					<path fill="#570867" d="M593.906,203.52l-25.158-13.686c0.002-0.441,0.074-0.859,0.22-1.252l25.157,13.686
						C593.982,202.661,593.907,203.08,593.906,203.52"/>
					<path fill="#5A096B" d="M594.125,202.268l-25.157-13.686c0.059-0.156,0.126-0.31,0.205-0.458l25.16,13.686
						C594.253,201.958,594.184,202.11,594.125,202.268"/>
					<path fill="#5E096F" d="M594.333,201.809l-25.16-13.686c0.071-0.129,0.148-0.254,0.234-0.378l25.158,13.686
						C594.479,201.556,594.401,201.682,594.333,201.809"/>
					<path fill="#610973" d="M594.565,201.433l-25.158-13.686c0.059-0.083,0.119-0.164,0.186-0.244
						c0.029-0.039,0.062-0.075,0.095-0.111l25.157,13.686c-0.031,0.036-0.064,0.072-0.095,0.11
						C594.685,201.268,594.623,201.349,594.565,201.433"/>
					<path fill="#640A77" d="M594.845,201.078l-25.157-13.686c0.095-0.108,0.192-0.208,0.296-0.3l25.157,13.686
						C595.038,200.87,594.94,200.97,594.845,201.078"/>
					<path fill="#680A7B" d="M595.141,200.778l-25.157-13.686c0.106-0.095,0.216-0.182,0.327-0.261l25.159,13.686
						C595.357,200.596,595.246,200.683,595.141,200.778"/>
					<path fill="#6B0A7F" d="M595.47,200.517l-25.159-13.686c0.14-0.096,0.284-0.18,0.435-0.251l25.157,13.686
						C595.753,200.337,595.608,200.421,595.47,200.517"/>
					<path fill="#6E0B83" d="M595.903,200.266l-25.157-13.686c0.277-0.13,0.573-0.218,0.891-0.263l25.158,13.686
						C596.478,200.048,596.182,200.136,595.903,200.266"/>
				</g>
			</g>
			<g>
				<path fill="#B10FD8" d="M672.143,189.414c0.804-0.113,1.485,0.097,2.039,0.611c0.557,0.522,0.839,1.227,0.837,2.095
					l-0.018,9.324l-0.008,4.914l-0.014,6.375c-0.001,0.878-0.284,1.624-0.843,2.246c-0.558,0.632-1.239,0.995-2.043,1.108
					l-10.771,1.513l-31.529,4.431l-8.486,1.192c-0.514,0.072-0.761,0.384-0.763,0.928l-0.032,17.836
					c-0.002,0.429,0.245,0.614,0.758,0.542l43.359-6.094c0.804-0.113,1.458,0.1,1.971,0.63c0.502,0.529,0.748,1.23,0.748,2.098
					l-0.031,16.367c-0.001,0.868-0.252,1.638-0.756,2.31c-0.514,0.673-1.169,1.062-1.974,1.174l-43.357,6.094
					c-0.514,0.072-0.761,0.382-0.763,0.928l-0.016,8.015l-0.018,9.658c-0.001,0.545,0.245,0.785,0.759,0.714l6.366-0.895
					l34.26-4.815l10.16-1.428c0.804-0.113,1.484,0.087,2.041,0.61c0.555,0.523,0.836,1.219,0.834,2.087l-0.01,6.548l-0.018,8.511
					l-0.009,5.4c-0.003,0.869-0.286,1.654-0.845,2.324c-0.559,0.68-1.24,1.08-2.044,1.193l-8.646,1.216l-57.602,8.096l-9.099,1.278
					c-1.919,0.268-2.881-0.637-2.877-2.707l0.01-5.562l0.179-94.905l0.013-7.854c0.001-0.869,0.286-1.653,0.844-2.333
					c0.55-0.668,1.232-1.07,2.045-1.185l11.069-1.555l59.424-8.352L672.143,189.414z"/>
			</g>
		</g>
		<g enable-background="new    ">
			<g enable-background="new    ">
				<defs>
					<path id="SVGID_107_" enable-background="new    " d="M538.552,321.785c-2.937-1.597-5.87-3.192-8.807-4.789
						c-5.449-2.966-10.901-5.93-16.352-8.897c-0.673-0.364-1.19-0.862-1.539-1.49l25.158,13.685
						C537.363,320.923,537.88,321.421,538.552,321.785z"/>
				</defs>
				<clipPath id="SVGID_108_">
					<use xlink:href="#SVGID_107_"  overflow="visible"/>
				</clipPath>
				<g clip-path="url(#SVGID_108_)" enable-background="new    ">
					<path fill="#570867" d="M538.552,321.785l-25.158-13.686c-0.673-0.364-1.19-0.862-1.539-1.49l25.158,13.685
						C537.363,320.923,537.88,321.421,538.552,321.785"/>
				</g>
			</g>
			<g enable-background="new    ">
				<defs>
					<path id="SVGID_109_" enable-background="new    " d="M544.109,190.44c8.386,4.562,16.771,9.124,25.158,13.686
						c-0.247-0.134-0.62-0.167-1.119-0.096l-25.157-13.685C543.488,190.273,543.862,190.306,544.109,190.44z"/>
				</defs>
				<clipPath id="SVGID_110_">
					<use xlink:href="#SVGID_109_"  overflow="visible"/>
				</clipPath>
				<g clip-path="url(#SVGID_110_)" enable-background="new    ">
					<path fill="#6E0B83" d="M568.148,204.03l-25.157-13.685c0.368-0.053,0.668-0.049,0.898,0.01l25.159,13.686
						C568.816,203.982,568.517,203.977,568.148,204.03"/>
					<path fill="#6B0A7F" d="M569.048,204.041l-25.159-13.686c0.071,0.019,0.134,0.042,0.19,0.069l25.157,13.686
						C569.181,204.082,569.117,204.059,569.048,204.041"/>
					<path fill="#680A7B" d="M569.236,204.11l-25.157-13.686c0.01,0.005,0.021,0.01,0.03,0.016l25.158,13.686
						C569.258,204.121,569.248,204.115,569.236,204.11"/>
				</g>
			</g>
			<g>
				<polygon fill="#540863" points="537.013,320.295 511.855,306.609 489.046,265.156 514.204,278.842 				"/>
			</g>
			<g enable-background="new    ">
				<defs>
					<path id="SVGID_111_" enable-background="new    " d="M488.73,264.803c8.387,4.562,16.773,9.123,25.16,13.686
						c0.098,0.053,0.201,0.171,0.314,0.353l-25.158-13.686C488.934,264.974,488.828,264.855,488.73,264.803z"/>
				</defs>
				<clipPath id="SVGID_112_">
					<use xlink:href="#SVGID_111_"  overflow="visible"/>
				</clipPath>
				<g clip-path="url(#SVGID_112_)" enable-background="new    ">
					<path fill="#570867" d="M514.204,278.842l-25.158-13.686c-0.112-0.182-0.218-0.301-0.316-0.353l25.16,13.686
						C513.987,278.541,514.091,278.66,514.204,278.842"/>
				</g>
			</g>
			<g>
				<polygon fill="#760B8C" points="542.976,207.567 517.817,193.882 542.991,190.345 568.148,204.03 				"/>
			</g>
			<g enable-background="new    ">
				<defs>
					<path id="SVGID_113_" enable-background="new    " d="M538.276,210.518l-25.158-13.686c0.507-0.72,1.213-1.364,2.126-1.93
						c0.911-0.567,1.768-0.908,2.573-1.019l25.158,13.685c-0.805,0.113-1.662,0.453-2.574,1.02
						C539.49,209.154,538.782,209.798,538.276,210.518z"/>
				</defs>
				<clipPath id="SVGID_114_">
					<use xlink:href="#SVGID_113_"  overflow="visible"/>
				</clipPath>
				<g clip-path="url(#SVGID_114_)" enable-background="new    ">
					<path fill="#610973" d="M538.276,210.518l-25.158-13.686c0.122-0.173,0.256-0.344,0.401-0.507l25.159,13.685
						C538.532,210.174,538.4,210.344,538.276,210.518"/>
					<path fill="#640A77" d="M538.679,210.009l-25.159-13.685c0.163-0.186,0.341-0.363,0.534-0.537l25.157,13.686
						C539.019,209.647,538.841,209.826,538.679,210.009"/>
					<path fill="#680A7B" d="M539.211,209.474l-25.157-13.686c0.243-0.219,0.511-0.429,0.802-0.63l25.157,13.686
						C539.723,209.044,539.454,209.255,539.211,209.474"/>
					<path fill="#6B0A7F" d="M540.013,208.843l-25.157-13.686c0.126-0.087,0.255-0.172,0.389-0.255
						c0.31-0.193,0.614-0.359,0.911-0.5l25.158,13.686c-0.297,0.141-0.602,0.307-0.912,0.5
						C540.268,208.67,540.139,208.756,540.013,208.843"/>
					<path fill="#6E0B83" d="M541.314,208.088l-25.158-13.686c0.578-0.272,1.132-0.445,1.662-0.519l25.158,13.685
						C542.444,207.642,541.891,207.815,541.314,208.088"/>
				</g>
			</g>
			<g enable-background="new    ">
				<defs>
					<path id="SVGID_115_" enable-background="new    " d="M473.353,331.399l-25.158-13.686c-0.721-0.391-1.08-1.224-1.078-2.49
						l25.158,13.686C472.273,330.176,472.633,331.008,473.353,331.399z"/>
				</defs>
				<clipPath id="SVGID_116_">
					<use xlink:href="#SVGID_115_"  overflow="visible"/>
				</clipPath>
				<g clip-path="url(#SVGID_116_)" enable-background="new    ">
					<path fill="#570867" d="M473.353,331.399l-25.158-13.686c-0.721-0.391-1.08-1.224-1.078-2.49l25.158,13.686
						C472.273,330.176,472.633,331.008,473.353,331.399"/>
				</g>
			</g>
			<g>
				<polygon fill="#670A7B" points="499.07,265.429 473.912,251.743 513.118,196.832 538.276,210.518 				"/>
			</g>
			<g enable-background="new    ">
				<defs>
					<path id="SVGID_117_" enable-background="new    " d="M472.924,200.659c8.388,4.563,16.772,9.124,25.16,13.686
						c-0.457-0.248-1.057-0.319-1.8-0.216l-25.159-13.685C471.87,200.34,472.469,200.411,472.924,200.659z"/>
				</defs>
				<clipPath id="SVGID_118_">
					<use xlink:href="#SVGID_117_"  overflow="visible"/>
				</clipPath>
				<g clip-path="url(#SVGID_118_)" enable-background="new    ">
					<path fill="#6E0B83" d="M496.284,214.129l-25.159-13.685c0.516-0.073,0.962-0.06,1.337,0.036l25.16,13.686
						C497.245,214.07,496.8,214.057,496.284,214.129"/>
					<path fill="#6B0A7F" d="M497.622,214.165l-25.16-13.686c0.141,0.037,0.271,0.083,0.393,0.143l25.158,13.687
						C497.892,214.25,497.761,214.203,497.622,214.165"/>
					<path fill="#680A7B" d="M498.013,214.309l-25.158-13.687c0.023,0.012,0.047,0.024,0.069,0.036l25.16,13.686
						C498.06,214.333,498.036,214.321,498.013,214.309"/>
				</g>
			</g>
			<g>
				<polygon fill="#760B8C" points="475.365,217.07 450.206,203.384 471.125,200.444 496.284,214.129 				"/>
			</g>
			<g>
				<polygon fill="#550865" points="472.275,328.909 447.116,315.223 447.318,206.901 472.478,220.587 				"/>
			</g>
			<g enable-background="new    ">
				<defs>
					<path id="SVGID_119_" enable-background="new    " d="M472.478,220.587l-25.159-13.686c0.003-2.072,0.969-3.248,2.888-3.517
						l25.159,13.686C473.446,217.339,472.481,218.515,472.478,220.587z"/>
				</defs>
				<clipPath id="SVGID_120_">
					<use xlink:href="#SVGID_119_"  overflow="visible"/>
				</clipPath>
				<g clip-path="url(#SVGID_120_)" enable-background="new    ">
					<path fill="#570867" d="M472.478,220.587l-25.159-13.686c0.001-0.607,0.085-1.136,0.251-1.589l25.157,13.685
						C472.562,219.449,472.478,219.979,472.478,220.587"/>
					<path fill="#5A096B" d="M472.727,218.997l-25.157-13.685c0.052-0.141,0.111-0.275,0.179-0.401l25.159,13.686
						C472.838,218.723,472.778,218.857,472.727,218.997"/>
					<path fill="#5E096F" d="M472.907,218.597l-25.159-13.686c0.052-0.099,0.11-0.193,0.174-0.284l25.159,13.687
						C473.017,218.404,472.959,218.498,472.907,218.597"/>
					<path fill="#610973" d="M473.081,218.314l-25.159-13.687c0.058-0.081,0.118-0.158,0.185-0.233l25.157,13.686
						C473.199,218.154,473.137,218.231,473.081,218.314"/>
					<path fill="#640A77" d="M473.264,218.08l-25.157-13.686c0.067-0.076,0.137-0.146,0.211-0.215l25.159,13.687
						C473.401,217.934,473.331,218.005,473.264,218.08"/>
					<path fill="#680A7B" d="M473.477,217.866l-25.159-13.687c0.086-0.076,0.178-0.148,0.273-0.215l25.158,13.687
						C473.652,217.717,473.562,217.789,473.477,217.866"/>
					<path fill="#6B0A7F" d="M473.749,217.651l-25.158-13.687c0.134-0.092,0.276-0.173,0.431-0.246l25.158,13.686
						C474.025,217.477,473.882,217.559,473.749,217.651"/>
					<path fill="#6E0B83" d="M474.18,217.405l-25.158-13.686c0.344-0.161,0.738-0.273,1.185-0.335l25.159,13.686
						C474.917,217.132,474.523,217.244,474.18,217.405"/>
				</g>
			</g>
			<g>
				<path fill="#B10FD8" d="M568.148,204.03c0.804-0.113,1.28,0.04,1.431,0.457c0.158,0.416-0.028,0.986-0.533,1.707l-36.318,51.07
					c-0.301,0.375-0.354,0.766-0.152,1.167l35.363,57.518c0.397,0.708,0.449,1.331,0.149,1.859
					c-0.311,0.539-0.869,0.865-1.673,0.979l-25.165,3.536c-0.811,0.114-1.616-0.02-2.429-0.4c-0.805-0.376-1.412-0.919-1.809-1.629
					l-22.809-41.453c-0.17-0.276-0.323-0.404-0.459-0.385c-0.11,0.017-0.209,0.126-0.301,0.331l-12.609,16.655
					c-0.514,0.626-0.94,1.477-1.294,2.559c-0.356,1.089-0.534,2.069-0.537,2.938l-0.045,24.218c-0.004,2.072-0.97,3.248-2.888,3.52
					l-20.919,2.939c-1.919,0.27-2.881-0.637-2.878-2.707l0.203-108.322c0.003-2.072,0.969-3.248,2.888-3.517l20.919-2.941
					c1.918-0.269,2.88,0.636,2.875,2.707l-0.089,48.593l39.206-54.911c0.506-0.72,1.214-1.364,2.125-1.93
					c0.912-0.567,1.769-0.908,2.574-1.02L568.148,204.03z"/>
			</g>
		</g>
		<g enable-background="new    ">
			<g enable-background="new    ">
				<defs>
					<path id="SVGID_121_" enable-background="new    " d="M769.118,289.369c-8.386-4.562-16.771-9.123-25.159-13.686
						c-0.667-0.364-1.178-0.858-1.525-1.479l25.158,13.687C767.94,288.511,768.45,289.006,769.118,289.369z"/>
				</defs>
				<clipPath id="SVGID_122_">
					<use xlink:href="#SVGID_121_"  overflow="visible"/>
				</clipPath>
				<g clip-path="url(#SVGID_122_)" enable-background="new    ">
					<path fill="#570867" d="M769.118,289.369l-25.159-13.686c-0.667-0.364-1.178-0.858-1.525-1.479l25.158,13.687
						C767.94,288.511,768.45,289.006,769.118,289.369"/>
				</g>
			</g>
			<g>
				<polygon fill="#540863" points="767.592,287.891 742.434,274.204 726.417,245.372 751.574,259.058 				"/>
			</g>
			<g enable-background="new    ">
				<defs>
					<path id="SVGID_123_" enable-background="new    " d="M726.04,244.967c8.388,4.561,16.772,9.124,25.16,13.686
						c0.156,0.086,0.282,0.222,0.374,0.406l-25.157-13.686C726.323,245.188,726.199,245.053,726.04,244.967z"/>
				</defs>
				<clipPath id="SVGID_124_">
					<use xlink:href="#SVGID_123_"  overflow="visible"/>
				</clipPath>
				<g clip-path="url(#SVGID_124_)" enable-background="new    ">
					<path fill="#570867" d="M751.574,259.058l-25.157-13.686c-0.094-0.184-0.218-0.32-0.377-0.406l25.16,13.686
						C751.357,258.738,751.483,258.874,751.574,259.058"/>
				</g>
			</g>
			<g>
				<polygon fill="#550865" points="767.398,230.504 742.239,216.818 742.29,189 767.449,202.686 				"/>
			</g>
			<g enable-background="new    ">
				<defs>
					<path id="SVGID_125_" enable-background="new    " d="M760.898,162.752c8.386,4.563,16.772,9.125,25.157,13.686
						c-0.803-0.436-1.658-0.81-2.565-1.117c-2.174-0.726-4.472-0.927-6.903-0.585l-25.159-13.686
						c2.434-0.342,4.731-0.14,6.904,0.587C759.238,161.944,760.096,162.316,760.898,162.752z"/>
				</defs>
				<clipPath id="SVGID_126_">
					<use xlink:href="#SVGID_125_"  overflow="visible"/>
				</clipPath>
				<g clip-path="url(#SVGID_126_)" enable-background="new    ">
					<path fill="#6E0B83" d="M776.588,174.736l-25.159-13.686c2.08-0.292,4.062-0.186,5.951,0.304l25.158,13.685
						C780.65,174.549,778.668,174.444,776.588,174.736"/>
					<path fill="#6B0A7F" d="M782.538,175.038l-25.158-13.685c0.319,0.083,0.638,0.177,0.953,0.283
						c0.697,0.236,1.365,0.512,2.001,0.824l25.157,13.686c-0.636-0.312-1.304-0.589-2-0.825
						C783.176,175.216,782.858,175.122,782.538,175.038"/>
					<path fill="#680A7B" d="M785.491,176.146l-25.157-13.686c0.191,0.094,0.38,0.192,0.564,0.292l25.157,13.686
						C785.871,176.338,785.684,176.241,785.491,176.146"/>
				</g>
			</g>
			<g enable-background="new    ">
				<defs>
					<path id="SVGID_127_" enable-background="new    " d="M706.054,298.694c-8.387-4.562-16.772-9.124-25.158-13.686
						c-0.721-0.391-1.08-1.223-1.078-2.491l25.159,13.686C704.974,297.472,705.334,298.304,706.054,298.694z"/>
				</defs>
				<clipPath id="SVGID_128_">
					<use xlink:href="#SVGID_127_"  overflow="visible"/>
				</clipPath>
				<g clip-path="url(#SVGID_128_)" enable-background="new    ">
					<path fill="#570867" d="M706.054,298.694l-25.158-13.686c-0.721-0.391-1.08-1.223-1.078-2.491l25.159,13.686
						C704.974,297.472,705.334,298.304,706.054,298.694"/>
				</g>
			</g>
			<g>
				<polygon fill="#760B8C" points="730.856,235.64 705.698,221.953 742.239,216.818 767.398,230.504 				"/>
			</g>
			<g>
				<polygon fill="#760B8C" points="708.066,184.365 682.907,170.68 751.429,161.05 776.588,174.736 				"/>
			</g>
			<g>
				<polygon fill="#550865" points="704.977,296.203 679.817,282.517 680.02,174.197 705.179,187.882 				"/>
			</g>
			<g enable-background="new    ">
				<defs>
					<path id="SVGID_129_" enable-background="new    " d="M705.179,187.882l-25.159-13.686c0.004-2.071,0.969-3.248,2.888-3.517
						l25.159,13.686C706.147,184.635,705.183,185.811,705.179,187.882z"/>
				</defs>
				<clipPath id="SVGID_130_">
					<use xlink:href="#SVGID_129_"  overflow="visible"/>
				</clipPath>
				<g clip-path="url(#SVGID_130_)" enable-background="new    ">
					<path fill="#570867" d="M705.179,187.882l-25.159-13.686c0-0.607,0.085-1.136,0.251-1.589l25.157,13.686
						C705.262,186.746,705.179,187.275,705.179,187.882"/>
					<path fill="#5A096B" d="M705.428,186.294l-25.157-13.686c0.052-0.141,0.111-0.275,0.179-0.4l25.157,13.685
						C705.54,186.018,705.479,186.153,705.428,186.294"/>
					<path fill="#5E096F" d="M705.607,185.893l-25.157-13.685c0.053-0.099,0.11-0.194,0.175-0.285l25.157,13.687
						C705.718,185.7,705.661,185.793,705.607,185.893"/>
					<path fill="#610973" d="M705.781,185.61l-25.157-13.687c0.057-0.081,0.119-0.158,0.184-0.233l25.157,13.686
						C705.9,185.451,705.838,185.528,705.781,185.61"/>
					<path fill="#640A77" d="M705.965,185.376l-25.157-13.686c0.066-0.076,0.138-0.146,0.21-0.213l25.16,13.685
						C706.103,185.229,706.031,185.301,705.965,185.376"/>
					<path fill="#680A7B" d="M706.178,185.162l-25.158-13.685c0.085-0.078,0.176-0.148,0.272-0.215l25.158,13.686
						C706.354,185.013,706.263,185.085,706.178,185.162"/>
					<path fill="#6B0A7F" d="M706.45,184.947l-25.158-13.686c0.134-0.093,0.275-0.175,0.432-0.246l25.157,13.685
						C706.727,184.774,706.583,184.856,706.45,184.947"/>
					<path fill="#6E0B83" d="M706.881,184.7l-25.157-13.685c0.342-0.162,0.737-0.273,1.184-0.336l25.159,13.686
						C707.618,184.428,707.224,184.54,706.881,184.7"/>
				</g>
			</g>
			<g>
				<path fill="#B10FD8" d="M797.458,283.693c0.396,0.708,0.449,1.33,0.146,1.859c-0.301,0.538-0.858,0.863-1.673,0.978
					l-24.102,3.389c-0.814,0.113-1.616-0.022-2.421-0.404c-0.812-0.372-1.42-0.916-1.817-1.624l-16.017-28.832
					c-0.202-0.401-0.554-0.57-1.059-0.5l-18.037,2.535c-0.505,0.071-0.761,0.384-0.761,0.928l-0.058,30.431
					c-0.003,2.071-0.97,3.247-2.887,3.517l-20.92,2.94c-1.919,0.27-2.88-0.636-2.877-2.707l0.202-108.321
					c0.004-2.071,0.968-3.248,2.888-3.517l68.521-9.629c2.432-0.342,4.73-0.14,6.903,0.585c2.164,0.735,4.035,1.836,5.598,3.305
					c1.561,1.47,2.821,3.305,3.781,5.518c0.95,2.213,1.423,4.626,1.419,7.242l-0.08,43.039c-0.008,4.141-1.147,8.042-3.425,11.682
					c-2.288,3.65-5.191,6.321-8.731,8.02l-0.46,0.227c-0.708,0.319-0.86,0.664-0.454,1.045l0.15,0.304L797.458,283.693z
					 M767.398,230.504l0.052-27.818l-36.542,5.135l-0.052,27.818L767.398,230.504"/>
			</g>
		</g>
	</g>
</g>
</svg>
