<?xml version="1.0" encoding="utf-8"?>
<!-- Generator: Adobe Illustrator 16.2.0, SVG Export Plug-In . SVG Version: 6.00 Build 0)  -->
<!DOCTYPE svg PUBLIC "-//W3C//DTD SVG 1.1//EN" "http://www.w3.org/Graphics/SVG/1.1/DTD/svg11.dtd">
<svg version="1.1" id="Layer_1" xmlns="http://www.w3.org/2000/svg" xmlns:xlink="http://www.w3.org/1999/xlink" x="0px" y="0px"
	 width="88.729px" height="66.48px" viewBox="0 0 88.729 66.48" enable-background="new 0 0 88.729 66.48" xml:space="preserve">
<g>
	<path fill="#EAA663" stroke="#302D2B" stroke-width="3" stroke-linejoin="round" stroke-miterlimit="10" d="M86.639,32.98H3.309
		c0,0,8.973-31.48,41.452-31.48C77.237,1.5,86.639,32.98,86.639,32.98z"/>
	<g>
		<path fill="#8C654B" d="M84.281,46.48c0,2.209-1.791,4-4,4h-71c-2.209,0-4-1.791-4-4v-4c0-2.209,1.791-4,4-4h71
			c2.209,0,4,1.791,4,4V46.48z"/>
		<path fill="none" stroke="#302D2B" stroke-width="3" stroke-linejoin="round" stroke-miterlimit="10" d="M83.781,46.98
			c0,2.209-1.791,4-4,4h-71c-2.209,0-4-1.791-4-4v-4c0-2.209,1.791-4,4-4h71c2.209,0,4,1.791,4,4V46.98z"/>
	</g>
	<polygon fill="#FFDC7B" stroke="#302D2B" stroke-width="3" stroke-linejoin="round" stroke-miterlimit="10" points="87.028,38.98 
		1.5,38.98 6.318,32.98 82.209,32.98 	"/>
	<path fill="none" stroke="#302D2B" stroke-width="2" stroke-linejoin="round" stroke-miterlimit="10" d="M32.174,21.86
		c-0.309,1.18-1.516,1.886-2.697,1.576c-1.18-0.31-1.884-1.517-1.574-2.697c0.309-1.18,3.443-4.424,3.443-4.424
		S32.484,20.68,32.174,21.86z"/>
	<path fill="none" stroke="#302D2B" stroke-width="2" stroke-linejoin="round" stroke-miterlimit="10" d="M60.383,21.259
		c0.049,1.219-0.899,2.246-2.121,2.294c-1.219,0.048-2.244-0.9-2.293-2.12c-0.048-1.219,2.003-5.236,2.003-5.236
		S60.335,20.041,60.383,21.259z"/>
	<path fill="none" stroke="#302D2B" stroke-width="2" stroke-linejoin="round" stroke-miterlimit="10" d="M46.258,15.611
		c0.451,1.135-0.104,2.418-1.238,2.868c-1.136,0.449-2.418-0.106-2.868-1.24c-0.449-1.133,0.908-5.394,0.908-5.394
		S45.809,14.478,46.258,15.611z"/>
	<path fill="#EAA663" stroke="#302D2B" stroke-width="3" stroke-linejoin="round" stroke-miterlimit="10" d="M84.781,59.829
		c0,2.661-2.32,5.151-4.981,5.151H9.933c-2.661,0-5.151-2.49-5.151-5.151V52.98h80V59.829z"/>
	<path fill="#76C460" stroke="#302D2B" stroke-width="3" stroke-linejoin="round" stroke-miterlimit="10" d="M83.447,49.669
		c2.208,0.509,3.41,2.135,3.782,5.129c-0.312-0.461-1.092-1.014-1.481-1.552c-1.637,1.281-2.035,2.705-4.403,2.788
		c-2.006,0.07-2.652-2.113-3.963-2.389c-2.701-0.568-5.969,3.833-8.831,1.987c-1.707-1.102-1.312-3.075-3.619-3.139
		c-2.051-0.058-3.237,2.855-4.689,3.147c-2.429,0.487-3.385-1.844-5.12-2.465c-5.305-1.897-7.353,4.142-12.524,3.378
		c-4.104-0.604-8.354-4.649-12.611-3.067c-1.268,0.472-2.796,3.524-3.895,3.671c-2.15,0.289-2.785-1.981-4.718-2.366
		c-2.376-0.473-3.382,1.026-5.405,1.713c-4.542,1.542-0.561,0.518-3.908-0.898c-1.744-0.739-6,0.81-7.227,0.024
		c-2.77-1.774,2.076-4.354,3.197-6.04l75.756,0.164"/>
</g>
</svg>
