<?xml version="1.0" encoding="utf-8"?>
<!-- Generator: Adobe Illustrator 16.2.0, SVG Export Plug-In . SVG Version: 6.00 Build 0)  -->
<!DOCTYPE svg PUBLIC "-//W3C//DTD SVG 1.1//EN" "http://www.w3.org/Graphics/SVG/1.1/DTD/svg11.dtd">
<svg version="1.1" id="Layer_1" xmlns="http://www.w3.org/2000/svg" xmlns:xlink="http://www.w3.org/1999/xlink" x="0px" y="0px"
	 width="74.158px" height="95.512px" viewBox="0 0 74.158 95.512" enable-background="new 0 0 74.158 95.512" xml:space="preserve">
<g>
	<path fill="#B6A8EF" stroke="#302D2B" stroke-width="3" stroke-linejoin="round" stroke-miterlimit="10" d="M72.658,90.5
		c0,0-16.079,3.75-35.829,3.5S1.5,90.5,1.5,90.5s3.706-26.916,3.706-46.44S1.5,1.5,1.5,1.5s22.079,2.25,36.079,2s35.079-2,35.079-2
		s-3.706,24.1-3.706,43.724S72.658,90.5,72.658,90.5z"/>
	<path fill="#FFFFFF" stroke="#302D2B" stroke-width="3" stroke-linejoin="round" stroke-miterlimit="10" d="M60.079,32.5v31h-46
		v-31h9.45c-0.16,0-0.241-0.773-0.241-1.164c0-3.494,6.299-6.328,14.078-6.328c7.78,0,14.078,2.838,14.078,6.332
		c0,0.391-0.08,1.16-0.241,1.16H60.079z"/>
	<g>
		<path fill="#302D2B" stroke="#302D2B" stroke-miterlimit="10" d="M24.755,49.578c0.156-0.107,0.312-0.168,0.479-0.168
			c0.408,0,0.66,0.312,0.66,0.672c0,0.192-0.084,0.348-0.228,0.492c-0.684,0.707-1.739,1.02-2.675,1.02
			c-2.351,0-4.078-1.631-4.078-4.138s1.728-4.138,4.078-4.138c0.936,0,1.991,0.312,2.675,1.02c0.144,0.144,0.228,0.299,0.228,0.492
			c0,0.359-0.252,0.671-0.66,0.671c-0.167,0-0.323-0.06-0.479-0.168c-0.455-0.348-0.947-0.659-1.763-0.659
			c-1.571,0-2.603,1.188-2.603,2.782s1.031,2.782,2.603,2.782C23.808,50.238,24.3,49.927,24.755,49.578z"/>
		<path fill="#302D2B" stroke="#302D2B" stroke-miterlimit="10" d="M33.743,51.545c-0.408,0-0.731-0.335-0.731-0.742V48.02h-3.79
			v2.783c0,0.407-0.312,0.742-0.72,0.742c-0.408,0-0.743-0.335-0.743-0.742v-6.693c0-0.407,0.335-0.743,0.743-0.743
			c0.407,0,0.72,0.336,0.72,0.743v2.543h3.79v-2.543c0-0.407,0.323-0.743,0.731-0.743c0.407,0,0.731,0.336,0.731,0.743v6.693
			C34.475,51.21,34.15,51.545,33.743,51.545z"/>
		<path fill="#302D2B" stroke="#302D2B" stroke-miterlimit="10" d="M37.561,51.545c-0.407,0-0.743-0.335-0.743-0.742v-6.693
			c0-0.407,0.336-0.743,0.743-0.743c0.408,0,0.72,0.336,0.72,0.743v6.693C38.28,51.21,37.969,51.545,37.561,51.545z"/>
		<path fill="#302D2B" stroke="#302D2B" stroke-miterlimit="10" d="M44.376,48.355h-2.291v2.459c0,0.407-0.324,0.73-0.731,0.73
			c-0.408,0-0.731-0.323-0.731-0.73v-6.621c0-0.407,0.323-0.731,0.731-0.731h3.022c1.99,0,2.842,1.104,2.842,2.459
			C47.218,47.275,46.366,48.355,44.376,48.355z M44.579,44.805h-2.494V47h2.494c0.804,0,1.164-0.539,1.164-1.079
			C45.743,45.393,45.383,44.805,44.579,44.805z"/>
		<path fill="#302D2B" stroke="#302D2B" stroke-miterlimit="10" d="M51.708,51.594c-0.972,0-2.075-0.3-2.771-0.84
			c-0.24-0.191-0.408-0.432-0.408-0.695c0-0.372,0.24-0.623,0.612-0.623c0.132,0,0.252,0.035,0.372,0.107
			c0.647,0.408,1.091,0.768,2.219,0.768c1.151,0,1.606-0.468,1.606-1.008c0-0.588-0.468-0.887-1.906-1.271
			c-2.171-0.575-2.819-1.271-2.819-2.471c0-1.463,1.26-2.242,3.167-2.242c0.432,0,1.02,0.072,1.535,0.216
			c0.552,0.155,1.247,0.503,1.247,0.983c0,0.324-0.192,0.66-0.6,0.66c-0.096,0-0.192-0.013-0.288-0.061
			c-0.552-0.252-1.127-0.504-1.883-0.504c-1.067,0-1.715,0.288-1.715,0.912c0,0.588,0.479,0.791,1.919,1.211
			c1.643,0.479,2.807,0.947,2.807,2.482C54.803,50.61,53.747,51.594,51.708,51.594z"/>
	</g>
</g>
</svg>
