<?xml version="1.0" encoding="utf-8"?>
<!-- Generator: Adobe Illustrator 17.0.0, SVG Export Plug-In . SVG Version: 6.00 Build 0)  -->
<!DOCTYPE svg PUBLIC "-//W3C//DTD SVG 1.1//EN" "http://www.w3.org/Graphics/SVG/1.1/DTD/svg11.dtd">
<svg version="1.1" id="Layer_1" xmlns="http://www.w3.org/2000/svg" xmlns:xlink="http://www.w3.org/1999/xlink" x="0px" y="0px"
	 width="226px" height="114.426px" viewBox="1.074 1.5 226 114.426" enable-background="new 1.074 1.5 226 114.426"
	 xml:space="preserve">
<g>
	<g>
		
			<rect x="2.574" y="44.463" fill="#B3B3B3" stroke="#302D2B" stroke-width="3" stroke-linecap="round" stroke-linejoin="round" stroke-miterlimit="10" width="26" height="70"/>
		
			<rect x="4.574" y="8.463" fill="#CCCCCC" stroke="#302D2B" stroke-width="3" stroke-linecap="round" stroke-linejoin="round" stroke-miterlimit="10" width="22" height="36"/>
	</g>
	<polygon fill="#302D2B" points="1.074,2.963 30,2.963 27.155,9.963 3.92,9.963 	"/>
</g>
<g>
	<g>
		
			<rect x="81.648" y="44.463" fill="#B3B3B3" stroke="#302D2B" stroke-width="3" stroke-linecap="round" stroke-linejoin="round" stroke-miterlimit="10" width="26" height="70"/>
		
			<rect x="83.648" y="8.463" fill="#CCCCCC" stroke="#302D2B" stroke-width="3" stroke-linecap="round" stroke-linejoin="round" stroke-miterlimit="10" width="22" height="36"/>
	</g>
	<polygon fill="#302D2B" points="80.148,2.963 109.074,2.963 106.229,9.963 82.994,9.963 	"/>
</g>
<g>
	<g>
		
			<rect x="119.574" y="44.463" fill="#B3B3B3" stroke="#302D2B" stroke-width="3" stroke-linecap="round" stroke-linejoin="round" stroke-miterlimit="10" width="26" height="70"/>
		
			<rect x="121.574" y="8.463" fill="#CCCCCC" stroke="#302D2B" stroke-width="3" stroke-linecap="round" stroke-linejoin="round" stroke-miterlimit="10" width="22" height="36"/>
	</g>
	<polygon fill="#302D2B" points="118.074,2.963 147,2.963 144.155,9.963 120.92,9.963 	"/>
</g>
<g>
	<g>
		
			<rect x="198.648" y="44.463" fill="#B3B3B3" stroke="#302D2B" stroke-width="3" stroke-linecap="round" stroke-linejoin="round" stroke-miterlimit="10" width="26" height="70"/>
		
			<rect x="200.648" y="8.463" fill="#CCCCCC" stroke="#302D2B" stroke-width="3" stroke-linecap="round" stroke-linejoin="round" stroke-miterlimit="10" width="22" height="36"/>
	</g>
	<polygon fill="#302D2B" points="197.148,2.963 226.074,2.963 223.229,9.963 199.994,9.963 	"/>
</g>
</svg>
