<?xml version="1.0" encoding="utf-8"?>
<!-- Generator: Adobe Illustrator 16.2.0, SVG Export Plug-In . SVG Version: 6.00 Build 0)  -->
<!DOCTYPE svg PUBLIC "-//W3C//DTD SVG 1.1//EN" "http://www.w3.org/Graphics/SVG/1.1/DTD/svg11.dtd">
<svg version="1.1" id="Layer_1" xmlns="http://www.w3.org/2000/svg" xmlns:xlink="http://www.w3.org/1999/xlink" x="0px" y="0px"
	 width="87px" height="186px" viewBox="0 0 87 186" enable-background="new 0 0 87 186" xml:space="preserve">
<path fill="#31BA72" stroke="#302D2B" stroke-width="3" stroke-linecap="round" stroke-linejoin="round" stroke-miterlimit="10" d="
	M85.5,138.23l-14.718,11.52h-53L2.5,138.23v-35.018c0,0,3.26-26.483,41.147-26.483c37.889,0,41.853,26.483,41.853,26.483V138.23z"/>
<line fill="none" stroke="#302D2B" stroke-width="3" stroke-linecap="round" stroke-linejoin="round" stroke-miterlimit="10" x1="70.5" y1="109.25" x2="70.5" y2="151.25"/>
<line fill="none" stroke="#302D2B" stroke-width="3" stroke-linecap="round" stroke-linejoin="round" stroke-miterlimit="10" x1="17.5" y1="109.25" x2="17.5" y2="151.25"/>
<path fill="#F7B594" stroke="#302D2B" stroke-width="3" stroke-linecap="round" stroke-linejoin="round" stroke-miterlimit="10" d="
	M70.5,150.23v-12.48h15.282C85.782,148.75,70.5,150.23,70.5,150.23z"/>
<path fill="#F7B594" stroke="#302D2B" stroke-width="3" stroke-linecap="round" stroke-linejoin="round" stroke-miterlimit="10" d="
	M17.5,150.23v-12.48H2.782C2.782,148.75,17.5,150.23,17.5,150.23z"/>
<rect x="17.5" y="149.75" fill="#3A557C" stroke="#302D2B" stroke-width="3" stroke-linecap="round" stroke-linejoin="round" stroke-miterlimit="10" width="53" height="34"/>
<line fill="#666666" stroke="#302D2B" stroke-width="3" stroke-linecap="round" stroke-linejoin="round" stroke-miterlimit="10" x1="43.5" y1="163.25" x2="43.5" y2="183.25"/>
<g>
	<g>
		<circle fill="#F9CAAA" stroke="#302D2B" stroke-width="3" stroke-miterlimit="10" cx="42.782" cy="50.73" r="37"/>
		<ellipse fill="#302D2B" cx="28.372" cy="44.551" rx="2.337" ry="3.271"/>
		<ellipse fill="#302D2B" cx="57.414" cy="44.551" rx="2.337" ry="3.271"/>
		<path fill="none" stroke="#302D2B" stroke-width="3" stroke-linecap="round" stroke-linejoin="round" stroke-miterlimit="10" d="
			M41.98,46.73c-0.364,4.334-6.729,5.341-4.019,10.005c2.321,3.995,7.9,0.26,7.9,0.26"/>
		<g>
			
				<line fill="none" stroke="#302D2B" stroke-width="3" stroke-linecap="round" stroke-linejoin="round" stroke-miterlimit="10" x1="46.561" y1="71.712" x2="55.966" y2="68.788"/>
			
				<line fill="none" stroke="#302D2B" stroke-width="3" stroke-linecap="round" stroke-linejoin="round" stroke-miterlimit="10" x1="55.36" y1="65.36" x2="57.972" y2="71.708"/>
		</g>
		
			<path fill="#543824" stroke="#302D2B" stroke-width="3" stroke-linecap="round" stroke-linejoin="round" stroke-miterlimit="10" d="
			M79.952,47.85c0,0-1-4.82-1.67-8.07c-0.67-3.261-4-11.03-4-11.03s-2.33,0-5.33,0s-5-2.619-11.33-6.24
			c-3.189-1.819-9.34,0.129-18.34,4.1c-9,3.98-19.61-2.549-19.61-2.549s-3.199,1.97-7.37,6.81
			c-4.159,4.84-6.399,15.175-6.399,15.175s-4.521-13.463,1.88-22.822c5.25-7.67,11.83-10.167,11.83-10.167s8.92-12.038,24-11.658
			c12.35,0.311,23.479,4.821,30,12.661C88.112,31.508,79.952,47.85,79.952,47.85z"/>
	</g>
</g>
</svg>
