<?xml version="1.0" encoding="utf-8"?>
<!-- Generator: Adobe Illustrator 16.2.0, SVG Export Plug-In . SVG Version: 6.00 Build 0)  -->
<!DOCTYPE svg PUBLIC "-//W3C//DTD SVG 1.1//EN" "http://www.w3.org/Graphics/SVG/1.1/DTD/svg11.dtd">
<svg version="1.1" id="Layer_1" xmlns="http://www.w3.org/2000/svg" xmlns:xlink="http://www.w3.org/1999/xlink" x="0px" y="0px"
	 width="402px" height="486px" viewBox="0 0 402 486" enable-background="new 0 0 402 486" xml:space="preserve">
<g opacity="0.5">
	<g>
		<g>
			<path fill="#969F99" d="M310.557,133.454c1.107-1.4,2.223-2.792,3.337-4.158c2.13-0.149,4.33-0.28,6.413-0.403
				c-0.398,3.48-0.888,6.959-1.307,10.43c2.508-0.225,5.028-0.494,7.521-0.808c1.439,3.323,2.872,6.629,4.258,9.917
				c1.711,0.286,3.437,0.549,5.101,0.815c0.802-2.438,1.599-4.857,2.374-7.294c7.857-0.659,15.131-1.32,21.36-1.997
				c4.782,3.222,9.026,6.241,12.631,8.925c0.941,2.927,1.825,5.857,2.68,8.715c4.138,1.375,7.223,2.385,9.253,3.091
				c0.41,8.277,0.158,17.009-0.696,25.703c-1.738,2.064-3.813,4.104-6.122,6.125c-0.059,3.068-0.219,6.04-0.378,8.953
				c-4.696,8.987-10.702,17.326-17.155,24.372c-0.119,0.139-0.179,0.281-0.285,0.421c-5.027,3.258-10.319,6.162-15.904,8.486
				c3.077-9.795,5.617-23.901,7.374-40.458c-3.701-2.171-7.593-4.495-11.716-7.031c-2.771-6.933-5.716-14.29-8.859-21.89
				c1.538-4.42,3.017-8.851,4.509-13.235c-1.89,0.746-3.78,1.526-5.703,2.276c-3.502-3.525-7.13-7.147-10.839-10.759
				c-1.504-0.511-6.665-1.833-8.189-2.351c4.417,13.04,9.278,33.815,4.351,59.854c-6.667,35.246-36.485,55.048-36.485,55.048
				s4.51,7.189,5.783,15.016c3.189,19.734,4.014,31.776,2.388,40.949l10.903,2.348c0,0,13.71,1.697,28.587-4.809
				c27.163-11.885,48.105-55.467,48.105-55.467s11.554,10.312,10.426,20.738c16.66-37.478,21.642-80.507,11.468-123.503
				c-7.21-30.47-21.264-57.516-40.098-79.977c0.889,1.634,1.785,3.26,2.634,4.905c-3.349,1.96-7.269,4.315-11.713,7.128
				c-3.31,2.632-6.907,5.535-10.801,8.657c-2.309,5.813-4.855,11.981-7.509,18.39c0.551,2.954,1.123,5.882,1.685,8.884
				c-1.325,0.446-2.712,0.859-4.098,1.352c-1.626-3.046-3.243-6.114-4.876-9.135c-5.378,1.746-10.917,3.604-16.515,5.53
				c-0.57,4.147-1.101,8.357-1.679,12.538c1.36,1.486,2.733,2.972,4.094,4.461c1.777-1.593,2.759-2.563,2.759-2.563
				S309.986,132.261,310.557,133.454z"/>
			<path fill="#969F99" d="M114.876,43.181c37.677-5.414,62.594,15.435,62.594,15.435c1.215,0.068,4.101,0.469,6.959,1.74
				c12.045,5.353,16.848,20.699,14.413,35.95c-0.437,2.748-3.243,14.751-3.243,14.751l44.783,53.224l-8.298,2.809l2.05,2.838
				c0,0,4.815-0.405,10.97-2.143c23.835-6.735,49.888-30.716,46.638-31.364c-6.389-7.54-13.458-14.514-19.408-21.66
				c-3.753-5.261-7.368-10.38-10.765-15.279c-1.094-7.464-2.078-14.741-2.895-21.602c-5.054-6.372-9.638-12.034-13.676-17.13
				c-4.782-1.201-9.167-2.135-13.226-3c-2.347,2.795-4.563,5.758-6.513,8.761c-3.629,5.142-6.5,10.546-8.172,15.981
				c0.883-4.652,2.303-9.254,4.192-13.756c-1.44,0.536-2.759,1.053-3.987,1.581c-0.881-2.463-1.77-4.955-2.745-7.427
				c1.114-3.176,2.468-6.256,4.086-9.19c-1.837,0.69-3.575,1.355-5.253,2.104c0-2.088,0.053-4.103,0.132-6.123
				c1.366-0.635,2.747-1.335,4.146-1.971c-0.789-0.954-1.677-1.947-2.566-2.99c3.289-4.388,6.918-8.49,10.766-12.301
				c6.937,1.794,13.356,2.607,20.341,3.349c2.926-2.726,5.964-5.059,8.993-7.002c5.867,0.496,12.123,0.958,18.973,1.869
				c8.164-2.218,16.35-4.028,24.375-5.576C258.184,3.382,209.507-6.33,161.965,7.157C90.258,27.49,59.684,64.118,72.225,57.256
				C86.471,49.464,98.535,45.526,114.876,43.181z"/>
			<path fill="#969F99" d="M323.49,61.169c-0.883-7.276-1.764-13.98-2.653-19.911c0.95-0.065,1.885-0.108,2.826-0.16
				c-2.421-1.822-4.882-3.592-7.383-5.301c-5.034,1.056-10.2,2.354-15.506,3.825c-0.544,2.445-1.148,4.969-1.712,7.742
				c6.673,4.22,13.617,9.161,20.568,14.578C320.903,61.684,322.224,61.421,323.49,61.169z"/>
		</g>
		<g>
			<g>
				<path fill="#969F99" d="M189.842,81.453c-0.159-0.677-0.344-1.333-0.57-1.938l-0.359-0.891
					c-0.125-0.216-0.231-0.436-0.338-0.665c-0.06-0.139-0.199-0.348-0.338-0.565c2.567,7.512,1.32,18.563-2.062,31.861
					c-0.678,2.681-1.459,5.331-2.309,7.843l0.14,0.29c0.297-0.725,0.603-1.618,0.908-2.51c1.997-6.483,3.787-13.036,4.788-19.526
					c0.499-3.245,0.802-6.485,0.677-9.536C190.313,84.292,190.153,82.813,189.842,81.453z"/>
				<path fill="#969F99" d="M186.174,109.254c3.382-13.298,4.629-24.349,2.062-31.861c-0.106-0.159-0.219-0.322-0.305-0.463
					l-0.12-0.185l-0.02-0.019l-0.086-0.114l-0.351-0.46c-0.464-0.624-0.954-1.188-1.438-1.763c-0.981-1.125-2.023-2.103-3.099-2.905
					c-2.148-1.622-4.569-2.408-7.271-2.571c-0.146-0.007-0.278,0.016-0.424,0.01c0.159,1.816-0.888,4.124-2.904,5.943
					c-2.798,2.525-6.366,3.136-7.966,1.363c-0.98-1.09-0.988-2.824-0.205-4.583c-1.313,0.867-2.513,1.914-3.542,3.171
					c-3.548,4.326-5.213,10.605-5.591,16.946c-0.166,3.18-0.099,6.748-0.153,10.205l-0.085,10.417
					c-0.133,11.875-0.319,23.752-0.531,35.628l0.651-0.407c1.863-1.207,3.7-2.467,5.497-3.776c3.609-2.598,7.078-5.366,10.267-8.369
					c3.19-3.001,6.174-6.174,8.669-9.614c0.611-0.857,1.221-1.724,1.764-2.615c0.571-0.882,1.075-1.789,1.573-2.697
					c0.444-0.902,0.955-1.877,1.273-2.722c0.053-0.119,0.112-0.29,0.167-0.426l-0.14-0.29
					C184.715,114.585,185.497,111.935,186.174,109.254z"/>
				<path fill="#969F99" d="M187.732,76.626l0.021,0.031l0.059,0.088l0.034,0.036C187.587,76.408,187.786,76.7,187.732,76.626z"/>
			</g>
			<g>
				<path fill="#969F99" d="M186.287,142.554l2.911,3.197l2.846,3.135c0.93,0.944,1.838,1.907,2.839,2.757
					c0.961,0.896,1.997,1.698,3.031,2.488c1.048,0.778,2.136,1.486,3.237,2.168c1.114,0.649,2.256,1.246,3.416,1.816
					c1.167,0.548,2.354,1.038,3.568,1.471c2.434,0.842,4.967,1.407,7.547,1.703c2.581,0.291,5.2,0.337,7.821,0.115
					c0.847-0.075,1.69-0.224,2.532-0.356l-35.497-40.321c-0.059,0.184-0.093,0.384-0.153,0.569
					c-0.205,0.646-0.477,1.259-0.715,1.887c-0.292,0.615-0.524,1.212-0.85,1.837c-0.311,0.63-0.63,1.257-0.915,1.741l-0.491,0.853
					l-0.517,0.836c-1.401,2.215-3.011,4.337-4.929,6.237c-0.676,0.685-1.453,1.292-2.215,1.908c1.141,0.877,2.254,1.839,3.323,2.846
					C184.171,140.444,185.299,141.51,186.287,142.554z"/>
				<path fill="#969F99" d="M373.891,271.473c0,0-20.372,42.447-58.299,52.733c-15.66,4.245-30.736-2.341-30.736-2.341
					s-4.648,6.215-21.734,15.52c-17.042,9.305-34.871-1.154-34.871-1.154s16.774,0.949,29.071-6.998
					c12.286-7.911,15.789-13.82,15.789-13.82c1.624-9.166,5.364-13.105,2.441-32.903c-2.92-19.765-6.216-22.04-6.216-22.04
					s-3.701,5.332-27.906,9.438c-25.197,4.28-46.932-13.956-46.932-13.956s36.844,9.307,66.686-4.651
					c20.582-9.608,34.742-21.734,40.552-40.342c12.769-40.817-2.413-66.149-2.413-66.149s-33.077,32.971-72.053,34.737
					l-7.362-10.303c-1.645,0.086-3.29,0.083-4.941-0.049c-3.163-0.237-6.314-0.807-9.372-1.729
					c-1.523-0.471-3.025-1.021-4.496-1.638c-0.724-0.334-1.454-0.653-2.169-1.008l-2.103-1.137c-1.366-0.815-2.706-1.665-3.986-2.59
					c-1.267-0.94-2.527-1.898-3.694-2.946c-1.2-1.01-2.301-2.125-3.403-3.228l-3.011-3.228l-5.805-6.222
					c-0.856-0.923-1.672-1.891-2.519-2.861c-3.176,2.658-6.459,5.138-9.862,7.398c-1.97,1.29-4.006,2.512-6.042,3.701
					c-1.022,0.577-2.042,1.154-3.091,1.732c-1.055,0.544-2.077,1.087-3.23,1.63l-4.822,2.514l-0.1-5.536
					c-0.272-13.89-0.444-27.778-0.61-41.667l-0.106-10.426c0.033-3.464-0.1-6.86,0.033-10.595c0.173-3.77,0.683-7.539,1.804-11.275
					c1.087-3.735,2.853-7.47,5.466-10.696c2.58-3.26,6.147-5.909,10.088-7.404c0.239-0.067,0.438-0.135,0.675-0.202
					c-7.4-6.078-23.021-13.245-54.058-8.557c-49.915,7.504-91.075,55.046-104.081,106.9c-11.44,45.604-3.629,89.819,11.341,109.585
					c15.726,20.746,48.289,12.594,48.289,12.594s-13.548,13.992-34.328,10.088c-7.507-1.393-16.846-9.305-16.846-9.305
					c-0.405,5.061,0.51,14.907,6.592,29.541c13.511,32.637,45.637,80.345,102.819,97.665
					c57.219,17.354,129.924,10.052,167.547-13.751C386.658,336.602,373.891,271.473,373.891,271.473z M127.583,90.632
					c-0.105,1.252-0.431,2.721-1.095,4.187c-0.298,0.746-0.683,1.484-1.153,2.187c-0.432,0.729-1.002,1.368-1.539,2.034
					c-0.604,0.594-1.208,1.193-1.833,1.72c-0.66,0.482-1.31,0.962-1.967,1.353c-0.656,0.374-1.327,0.684-1.943,0.99
					c-0.618,0.267-1.233,0.446-1.785,0.634c-1.113,0.407-2.068,0.462-2.717,0.585c-0.663,0.091-1.028,0.121-1.028,0.121
					c-1.658,0.131-3.11-1.107-3.243-2.761c-0.08-1.083,0.418-2.074,1.234-2.67l0.371-0.27c0,0,0.258-0.184,0.697-0.468
					c0.431-0.303,1.114-0.604,1.79-1.111c0.346-0.225,0.722-0.468,1.12-0.728c0.372-0.28,0.73-0.594,1.141-0.863
					c0.743-0.615,1.473-1.275,2.122-1.983c0.271-0.388,0.65-0.703,0.889-1.101c0.252-0.383,0.544-0.741,0.755-1.134
					c0.472-0.761,0.843-1.532,1.135-2.225c0.292-0.695,0.491-1.305,0.637-1.718c0.06-0.219,0.133-0.366,0.159-0.41
					c0.053-0.042,0.053-0.2,0.053-0.178c-0.126-1.632,1.08-3.063,2.711-3.198c1.637-0.134,3.064,1.078,3.197,2.711
					c0,0.02,0.025,0.03,0.08,0.297c0.059,0.267,0.125,0.577,0.172,0.943C127.642,88.322,127.735,89.38,127.583,90.632z"/>
			</g>
		</g>
	</g>
	<g>
		<path fill="#969F99" d="M44.667,483.447h-4.106l-2.479-14.516l-2.633,14.516h-4.073l-4.37-24.663h4.557l2.222,16.289l2.739-16.289
			h3.555l2.52,16.289l2.368-16.289h4.265L44.667,483.447z"/>
		<path fill="#969F99" d="M62.772,484c-4.296,0-6.996-2.812-6.996-6.736v-12.299c0-3.885,2.7-6.702,6.996-6.702
			c4.337,0,7.004,2.817,7.004,6.702v12.299C69.776,481.188,67.11,484,62.772,484z M65.146,464.67c0-1.445-0.849-2.407-2.374-2.407
			c-1.479,0-2.328,0.962-2.328,2.407v12.887c0,1.443,0.849,2.412,2.328,2.412c1.525,0,2.374-0.969,2.374-2.412V464.67z"/>
		<path fill="#969F99" d="M89.282,483.598c-1.811,0-2.521-1.484-2.521-3.629v-4.633c0-1.15-0.589-2.113-1.883-2.113h-2.415v10.225
			h-4.589v-24.663h7.601c3.362,0,5.625,1.923,5.625,5.365v3.482c0,1.854-0.856,3.224-2.778,3.813
			c1.922,0.521,2.851,2.148,2.851,3.741v4.519c0,1.148,0.339,1.928,0.888,2.519v1.374H89.282z M86.616,464.336
			c0-1.111-0.478-1.777-1.632-1.777h-2.52v7.262h2.341c1.187,0,1.811-0.633,1.811-1.962V464.336z"/>
		<path fill="#969F99" d="M99.317,483.447v-24.663h4.596v20.588h6.885v4.075H99.317z"/>
		<path fill="#969F99" d="M125.121,483.447h-7.108v-24.663h7.108c4.337,0,6.746,2.775,6.746,6.663v11.557
			C131.866,480.93,129.458,483.447,125.121,483.447z M127.236,465.486c0-1.781-0.743-2.742-2.447-2.742h-2.188v16.74h2.188
			c1.705,0,2.447-0.961,2.447-2.706V465.486z"/>
		<g>
			<path fill="#969F99" d="M171.409,483.447h-4.119l-2.475-14.516l-2.639,14.516h-4.073l-4.371-24.663h4.562l2.216,16.289
				l2.746-16.289h3.548l2.528,16.289l2.368-16.289h4.256L171.409,483.447z"/>
			<path fill="#969F99" d="M182.844,483.447v-24.663h4.589v24.663H182.844z"/>
			<path fill="#969F99" d="M202.946,483.447h-7.109v-24.663h7.109c4.339,0,6.739,2.775,6.739,6.663v11.557
				C209.686,480.93,207.285,483.447,202.946,483.447z M205.057,465.486c0-1.781-0.736-2.742-2.441-2.742h-2.188v16.74h2.188
				c1.705,0,2.441-0.961,2.441-2.706V465.486z"/>
			<path fill="#969F99" d="M217.797,483.447v-24.663h11.773v3.96h-7.184v6.107h4.961v3.632h-4.961v6.851h7.184v4.113H217.797z"/>
		</g>
		<g>
			<path fill="#969F99" d="M268.665,483.447h-4.112l-2.48-14.516l-2.63,14.516h-4.072l-4.371-24.663h4.556l2.224,16.289
				l2.735-16.289h3.556l2.519,16.289l2.376-16.289h4.251L268.665,483.447z"/>
			<path fill="#969F99" d="M288.283,483.447l-0.815-4.852h-4.37l-0.89,4.852h-4.297l4.968-24.663h5.146l4.921,24.663H288.283z
				 M285.398,465.447l-1.672,9.52h3.15L285.398,465.447z"/>
			<path fill="#969F99" d="M299.871,483.447v-24.663h4.596v20.588h6.885v4.075H299.871z"/>
			<path fill="#969F99" d="M329.976,483.598c-1.81,0-2.521-1.484-2.521-3.629v-4.633c0-1.15-0.59-2.113-1.883-2.113h-2.409v10.225
				h-4.595v-24.663h7.594c3.377,0,5.631,1.923,5.631,5.365v3.482c0,1.854-0.854,3.224-2.779,3.813
				c1.925,0.521,2.858,2.148,2.858,3.741v4.519c0,1.148,0.325,1.928,0.884,2.519v1.374H329.976z M327.31,464.336
				c0-1.111-0.478-1.777-1.624-1.777h-2.522v7.262h2.335c1.182,0,1.812-0.633,1.812-1.962V464.336z"/>
			<path fill="#969F99" d="M346.898,484c-4.006,0-6.96-2.553-6.96-6.257v-18.959h4.658v18.959c0,1.442,0.816,2.258,2.302,2.258
				c1.513,0,2.329-0.815,2.329-2.258v-18.959h4.482v18.959C353.71,481.447,350.891,484,346.898,484z"/>
			<path fill="#969F99" d="M368.183,484c-4.225,0-6.852-2.52-6.852-6.365v-1.705h4.218v1.441c0,1.814,0.855,2.816,2.521,2.816
				c1.631,0,2.436-0.962,2.436-2.48c0-1.964-1.249-3.297-3.689-5.113c-2.521-1.812-5.261-4.256-5.261-7.701
				c0-3.555,2.296-6.63,6.733-6.63c3.89,0,6.482,2.667,6.482,6.335v1.592h-4.191v-1.482c0-1.519-0.767-2.63-2.325-2.63
				c-1.333,0-2.222,0.853-2.222,2.226c0,2.068,1.22,3.146,3.959,5.146c2.929,2.183,5.005,4.404,5.005,7.74
				C374.997,481.148,372.251,484,368.183,484z"/>
		</g>
	</g>
</g>
</svg>
