<?xml version="1.0" encoding="utf-8"?>
<!-- Generator: Adobe Illustrator 16.2.0, SVG Export Plug-In . SVG Version: 6.00 Build 0)  -->
<!DOCTYPE svg PUBLIC "-//W3C//DTD SVG 1.1//EN" "http://www.w3.org/Graphics/SVG/1.1/DTD/svg11.dtd">
<svg version="1.1" id="Layer_1" xmlns="http://www.w3.org/2000/svg" xmlns:xlink="http://www.w3.org/1999/xlink" x="0px" y="0px"
	 width="48.941px" height="53.535px" viewBox="0 0 48.941 53.535" enable-background="new 0 0 48.941 53.535" xml:space="preserve">
<g>
	<path fill="#FF5831" stroke="#302D2B" stroke-width="3" stroke-linejoin="round" stroke-miterlimit="10" d="M47.441,30.164
		c0,9.774-4.887,21.484-14.029,21.743c-2.995,0.085-5.353-2.322-8.523-2.322c-3.091,0-5.667,2.813-9.149,2.411
		C6.729,50.955,1.5,40.021,1.5,30.164c0-7.748,2.313-17.531,9.248-18.925c6.622-1.331,8.578,2.01,13.723,2.01
		c4.695,0,8.354-3.968,13.535-2.751C45.304,12.213,47.441,21.955,47.441,30.164z"/>
	<path fill="#33B209" stroke="#302D2B" stroke-width="3" stroke-linejoin="round" stroke-miterlimit="10" d="M33.11,11.216
		c-3.388,3.217-9.657,2.114-9.657,2.114s-0.776-6.318,2.61-9.534c3.388-3.216,9.657-2.113,9.657-2.113S36.497,8.001,33.11,11.216z"
		/>
</g>
</svg>
