<?xml version="1.0" encoding="utf-8"?>
<!-- Generator: Adobe Illustrator 16.2.0, SVG Export Plug-In . SVG Version: 6.00 Build 0)  -->
<!DOCTYPE svg PUBLIC "-//W3C//DTD SVG 1.1//EN" "http://www.w3.org/Graphics/SVG/1.1/DTD/svg11.dtd">
<svg version="1.1" id="Layer_1" xmlns="http://www.w3.org/2000/svg" xmlns:xlink="http://www.w3.org/1999/xlink" x="0px" y="0px"
	 width="85.251px" height="59.054px" viewBox="0 0 85.251 59.054" enable-background="new 0 0 85.251 59.054" xml:space="preserve">
<g>
	<g>
		<path fill="#FFDC31" stroke="#302D2B" stroke-width="3" stroke-linejoin="round" stroke-miterlimit="10" d="M10.259,1.565
			c3.349,1.011,12.311,13.987,33.894,14.521c21.581,0.537,27.213-3.611,27.213-3.611l8.667-5.654l3.091,3.738l-7.479,6.18
			c0,0-0.816,11.496-16.929,15.754c-17.637,4.656-36.65-2.935-46.399-11.99C2.566,11.445,6.91,0.559,10.259,1.565z"/>
		<polygon fill="#A86120" stroke="#302D2B" stroke-width="3" stroke-linejoin="round" stroke-miterlimit="10" points="
			71.365,12.474 80.032,6.82 83.123,10.558 75.645,16.738 		"/>
	</g>
	<g>
		<path fill="#FFDC31" stroke="#302D2B" stroke-width="3" stroke-linejoin="round" stroke-miterlimit="10" d="M4.784,14.306
			c3.684,0.571,15.057,12.946,37.917,10.328c22.859-2.618,28.191-7.827,28.191-7.827l8.314-7.245l3.812,3.489l-6.98,7.625
			c0,0,0.833,12.256-15.546,19.125C42.564,47.319,21.375,42.11,9.749,33.99C-1.878,25.869,1.101,13.737,4.784,14.306z"/>
		<polygon fill="#A86120" stroke="#302D2B" stroke-width="3" stroke-linejoin="round" stroke-miterlimit="10" points="
			70.893,16.807 79.207,9.562 83.02,13.051 76.039,20.676 		"/>
	</g>
	<g>
		<path fill="#FFDC31" stroke="#302D2B" stroke-width="3" stroke-linejoin="round" stroke-miterlimit="10" d="M3.899,36.333
			c3.953-0.546,19.417,8.653,42.06-1.053c22.64-9.704,26.508-16.685,26.508-16.685l6.303-9.983l4.981,2.408l-4.817,9.963
			c0,0,4.618,12.314-10.071,24.389c-16.078,13.215-39.41,14.381-53.827,9.623C0.617,50.237-0.054,36.879,3.899,36.333z"/>
		
			<path fill="#FFDC31" stroke="#302D2B" stroke-width="3" stroke-linecap="round" stroke-linejoin="round" stroke-miterlimit="10" d="
			M24.353,48.496c0,0,12.888,1.175,25.201-3.402c12.313-4.578,18.154-12.081,18.154-12.081"/>
		<polygon fill="#A86120" stroke="#302D2B" stroke-width="3" stroke-linejoin="round" stroke-miterlimit="10" points="
			72.467,18.596 78.77,8.613 83.751,11.021 78.934,20.984 		"/>
	</g>
</g>
</svg>
