<?xml version="1.0" encoding="utf-8"?>
<!-- Generator: Adobe Illustrator 17.0.0, SVG Export Plug-In . SVG Version: 6.00 Build 0)  -->
<!DOCTYPE svg PUBLIC "-//W3C//DTD SVG 1.1//EN" "http://www.w3.org/Graphics/SVG/1.1/DTD/svg11.dtd">
<svg version="1.1" id="Layer_1" xmlns="http://www.w3.org/2000/svg" xmlns:xlink="http://www.w3.org/1999/xlink" x="0px" y="0px"
	 width="387.592px" height="34.054px" viewBox="0 0 387.592 34.054" enable-background="new 0 0 387.592 34.054"
	 xml:space="preserve">
<g>
	<g>
		<g enable-background="new    ">
			<g>
				<polygon fill="#550865" points="22.751,26.968 16.397,22.612 16.41,16.953 22.762,21.309 				"/>
			</g>
			<g>
				<polygon fill="#550865" points="22.771,15.815 16.418,11.46 16.43,6.295 22.781,10.651 				"/>
			</g>
			<g>
				<polygon fill="#760B8C" points="12.453,26.958 6.1,22.602 16.397,22.612 22.751,26.968 				"/>
			</g>
			<g enable-background="new    ">
				<defs>
					<path id="SVGID_1_" enable-background="new    " d="M20.479,0.789c2.117,1.452,4.233,2.903,6.354,4.356
						c-0.204-0.14-0.421-0.265-0.653-0.376c-0.549-0.261-1.127-0.394-1.74-0.394l-6.354-4.356c0.613,0,1.191,0.134,1.74,0.395
						C20.059,0.523,20.275,0.648,20.479,0.789z"/>
				</defs>
				<clipPath id="SVGID_2_">
					<use xlink:href="#SVGID_1_"  overflow="visible"/>
				</clipPath>
				<g clip-path="url(#SVGID_2_)" enable-background="new    ">
					<path fill="#6E0B83" d="M24.439,4.374l-6.354-4.356c0.523,0.001,1.022,0.098,1.498,0.287l6.354,4.357
						C25.461,4.472,24.963,4.376,24.439,4.374"/>
					<path fill="#6B0A7F" d="M25.938,4.662l-6.354-4.357c0.082,0.034,0.162,0.069,0.242,0.107c0.18,0.085,0.35,0.179,0.512,0.283
						l6.354,4.356c-0.162-0.103-0.334-0.196-0.512-0.283C26.1,4.73,26.017,4.695,25.938,4.662"/>
					<path fill="#680A7B" d="M26.691,5.051l-6.354-4.356c0.047,0.031,0.094,0.062,0.142,0.093l6.354,4.356
						C26.785,5.112,26.738,5.081,26.691,5.051"/>
				</g>
			</g>
			<g enable-background="new    ">
				<defs>
					<path id="SVGID_3_" enable-background="new    " d="M6.627,33.156c-2.119-1.452-4.236-2.904-6.352-4.355
						C0.092,28.676,0,28.452,0,28.132l6.353,4.357C6.353,32.809,6.445,33.03,6.627,33.156z"/>
				</defs>
				<clipPath id="SVGID_4_">
					<use xlink:href="#SVGID_3_"  overflow="visible"/>
				</clipPath>
				<g clip-path="url(#SVGID_4_)" enable-background="new    ">
					<path fill="#570867" d="M6.627,33.156l-6.352-4.355C0.092,28.676,0,28.452,0,28.132l6.353,4.357
						C6.353,32.809,6.445,33.03,6.627,33.156"/>
				</g>
			</g>
			<g>
				<polygon fill="#760B8C" points="12.475,15.805 6.121,11.45 16.418,11.46 22.771,15.815 				"/>
			</g>
			<g>
				<polygon fill="#760B8C" points="7.135,4.355 0.781,0 18.086,0.018 24.439,4.374 				"/>
			</g>
			<g>
				<polygon fill="#550865" points="6.353,32.489 0,28.132 0.053,0.785 6.406,5.14 				"/>
			</g>
			<g enable-background="new    ">
				<defs>
					<path id="SVGID_5_" enable-background="new    " d="M6.406,5.14L0.053,0.785C0.053,0.261,0.297,0,0.781,0l6.353,4.355
						C6.65,4.356,6.406,4.617,6.406,5.14z"/>
				</defs>
				<clipPath id="SVGID_6_">
					<use xlink:href="#SVGID_5_"  overflow="visible"/>
				</clipPath>
				<g clip-path="url(#SVGID_6_)" enable-background="new    ">
					<path fill="#570867" d="M6.406,5.14L0.053,0.785c0-0.153,0.021-0.284,0.062-0.392l6.353,4.355
						C6.428,4.856,6.406,4.987,6.406,5.14"/>
					<path fill="#5A096B" d="M6.469,4.748L0.115,0.393C0.13,0.359,0.145,0.327,0.162,0.298l6.352,4.355
						C6.496,4.684,6.48,4.714,6.469,4.748"/>
					<path fill="#5E096F" d="M6.514,4.653L0.162,0.298c0.012-0.023,0.027-0.044,0.043-0.065l6.354,4.355
						C6.541,4.608,6.527,4.63,6.514,4.653"/>
					<path fill="#610973" d="M6.559,4.588L0.205,0.233C0.22,0.213,0.234,0.197,0.252,0.181l6.353,4.355
						C6.588,4.552,6.574,4.57,6.559,4.588"/>
					<path fill="#640A77" d="M6.605,4.536L0.252,0.181c0.016-0.017,0.035-0.033,0.053-0.047L6.658,4.49
						C6.638,4.504,6.621,4.519,6.605,4.536"/>
					<path fill="#680A7B" d="M6.658,4.49L0.305,0.134C0.326,0.118,0.35,0.103,0.373,0.089l6.353,4.356
						C6.703,4.459,6.68,4.473,6.658,4.49"/>
					<path fill="#6B0A7F" d="M6.727,4.445L0.373,0.089c0.033-0.019,0.07-0.033,0.108-0.046l6.353,4.355
						C6.797,4.411,6.76,4.426,6.727,4.445"/>
					<path fill="#6E0B83" d="M6.835,4.398L0.481,0.043C0.568,0.014,0.668-0.001,0.781,0l6.353,4.355
						C7.022,4.355,6.922,4.369,6.835,4.398"/>
				</g>
			</g>
			<g>
				<path fill="#CA27F2" d="M28.439,15.945l-1.654,2.269c-0.127,0.168-0.184,0.372-0.172,0.621c0.012,0.248,0.082,0.441,0.211,0.579
					l1.604,2.067c0.128,0.164,0.231,0.379,0.321,0.639c0.09,0.263,0.135,0.504,0.133,0.726l-0.01,5.615
					c0,0.663-0.123,1.29-0.364,1.882c-0.245,0.592-0.566,1.106-0.962,1.547c-0.395,0.44-0.871,0.783-1.42,1.03
					c-0.549,0.249-1.129,0.373-1.742,0.372L7.082,33.273c-0.486,0-0.728-0.261-0.728-0.784L6.406,5.14
					c0-0.522,0.244-0.784,0.728-0.785l17.305,0.019c0.613,0,1.191,0.133,1.74,0.394c0.549,0.264,1.022,0.609,1.416,1.036
					c0.395,0.427,0.713,0.934,0.955,1.527c0.24,0.594,0.359,1.22,0.358,1.88L28.9,14.583c-0.003,0.221-0.048,0.462-0.137,0.722
					C28.674,15.568,28.566,15.779,28.439,15.945z M22.751,26.968l0.011-5.659l-10.297-0.01l-0.012,5.659L22.751,26.968
					L22.751,26.968z M22.771,15.815l0.01-5.164l-10.296-0.012l-0.011,5.166L22.771,15.815L22.771,15.815z"/>
			</g>
		</g>
		<g enable-background="new    ">
			<g enable-background="new    ">
				<defs>
					<path id="SVGID_7_" enable-background="new    " d="M52.365,33.204c-2.118-1.451-4.234-2.902-6.352-4.355
						c-0.045-0.032-0.09-0.069-0.13-0.111c-0.14-0.15-0.21-0.338-0.21-0.557l6.354,4.355c0,0.22,0.07,0.408,0.21,0.555
						C52.277,33.136,52.319,33.174,52.365,33.204z"/>
				</defs>
				<clipPath id="SVGID_8_">
					<use xlink:href="#SVGID_7_"  overflow="visible"/>
				</clipPath>
				<g clip-path="url(#SVGID_8_)" enable-background="new    ">
					<path fill="#570867" d="M52.365,33.204l-6.352-4.355c-0.045-0.032-0.09-0.069-0.13-0.111c-0.14-0.15-0.21-0.338-0.21-0.557
						l6.354,4.355c0,0.22,0.07,0.408,0.21,0.555C52.277,33.136,52.319,33.174,52.365,33.204"/>
				</g>
			</g>
			<g>
				<polygon fill="#550865" points="52.027,32.536 45.674,28.181 45.689,20.785 52.043,25.141 				"/>
			</g>
			<g enable-background="new    ">
				<defs>
					<path id="SVGID_9_" enable-background="new    " d="M45.367,20.106c0.74,0.509,1.481,1.017,2.223,1.525
						c0.097,0.066,0.221,0.153,0.318,0.219c1.27,0.87,2.541,1.741,3.812,2.613c0.048,0.031,0.09,0.072,0.13,0.12
						c0.126,0.151,0.192,0.337,0.192,0.559l-6.354-4.356c0-0.221-0.065-0.407-0.192-0.558
						C45.457,20.179,45.415,20.138,45.367,20.106z"/>
				</defs>
				<clipPath id="SVGID_10_">
					<use xlink:href="#SVGID_9_"  overflow="visible"/>
				</clipPath>
				<g clip-path="url(#SVGID_10_)" enable-background="new    ">
					<path fill="#570867" d="M52.043,25.141l-6.354-4.356c0-0.221-0.065-0.407-0.192-0.558c-0.04-0.048-0.082-0.089-0.13-0.122
						l6.354,4.357c0.048,0.031,0.09,0.072,0.13,0.12C51.977,24.733,52.043,24.92,52.043,25.141"/>
				</g>
			</g>
			<g>
				<polygon fill="#550865" points="52.055,18.159 45.701,13.804 45.717,6.533 52.067,10.889 				"/>
			</g>
			<g enable-background="new    ">
				<defs>
					<path id="SVGID_11_" enable-background="new    " d="M50.414,0.816c2.117,1.454,4.234,2.904,6.353,4.357
						c-0.203-0.14-0.419-0.264-0.648-0.373c-0.549-0.261-1.129-0.394-1.74-0.396L48.025,0.05c0.611,0.001,1.191,0.133,1.74,0.394
						C49.996,0.553,50.209,0.678,50.414,0.816z"/>
				</defs>
				<clipPath id="SVGID_12_">
					<use xlink:href="#SVGID_11_"  overflow="visible"/>
				</clipPath>
				<g clip-path="url(#SVGID_12_)" enable-background="new    ">
					<path fill="#6E0B83" d="M54.379,4.405L48.025,0.05c0.523,0,1.022,0.097,1.502,0.289l6.353,4.356
						C55.401,4.502,54.9,4.405,54.379,4.405"/>
					<path fill="#6B0A7F" d="M55.881,4.695l-6.353-4.356c0.079,0.033,0.158,0.066,0.238,0.105c0.178,0.085,0.348,0.178,0.506,0.279
						l6.354,4.356c-0.161-0.103-0.332-0.196-0.506-0.28C56.039,4.762,55.959,4.728,55.881,4.695"/>
					<path fill="#680A7B" d="M56.625,5.08l-6.354-4.356c0.048,0.031,0.096,0.062,0.143,0.093l6.353,4.357
						C56.719,5.141,56.672,5.109,56.625,5.08"/>
				</g>
			</g>
			<g enable-background="new    ">
				<defs>
					<path id="SVGID_13_" enable-background="new    " d="M36.565,33.186c-2.116-1.451-4.237-2.903-6.353-4.354
						c-0.183-0.125-0.273-0.348-0.273-0.668l6.354,4.356C36.293,32.84,36.383,33.062,36.565,33.186z"/>
				</defs>
				<clipPath id="SVGID_14_">
					<use xlink:href="#SVGID_13_"  overflow="visible"/>
				</clipPath>
				<g clip-path="url(#SVGID_14_)" enable-background="new    ">
					<path fill="#570867" d="M36.565,33.186l-6.353-4.354c-0.183-0.125-0.273-0.348-0.273-0.668l6.354,4.356
						C36.293,32.84,36.383,33.062,36.565,33.186"/>
				</g>
			</g>
			<g>
				<polygon fill="#760B8C" points="43.059,18.15 36.707,13.794 45.701,13.804 52.055,18.159 				"/>
			</g>
			<g>
				<polygon fill="#760B8C" points="40.824,4.391 34.473,0.035 48.025,0.05 54.379,4.405 				"/>
			</g>
			<g>
				<polygon fill="#550865" points="36.293,32.52 29.939,28.164 29.982,4.863 36.336,9.219 				"/>
			</g>
			<g enable-background="new    ">
				<defs>
					<path id="SVGID_15_" enable-background="new    " d="M36.336,9.219l-6.353-4.355c0.002-0.66,0.117-1.286,0.35-1.879
						c0.231-0.591,0.551-1.1,0.959-1.526c0.406-0.425,0.889-0.769,1.439-1.033c0.549-0.258,1.129-0.39,1.742-0.39l6.352,4.356
						c-0.611-0.001-1.194,0.132-1.74,0.391c-0.551,0.262-1.033,0.606-1.439,1.032c-0.408,0.426-0.73,0.934-0.959,1.525
						C36.453,7.933,36.338,8.559,36.336,9.219z"/>
				</defs>
				<clipPath id="SVGID_16_">
					<use xlink:href="#SVGID_15_"  overflow="visible"/>
				</clipPath>
				<g clip-path="url(#SVGID_16_)" enable-background="new    ">
					<path fill="#570867" d="M36.336,9.219l-6.353-4.355c0.002-0.657,0.117-1.28,0.347-1.871l6.351,4.355
						C36.453,7.939,36.338,8.562,36.336,9.219"/>
					<path fill="#5A096B" d="M36.68,7.348l-6.351-4.355c0-0.003,0.003-0.005,0.003-0.009c0.094-0.244,0.207-0.473,0.331-0.688
						l6.354,4.354c-0.127,0.215-0.237,0.446-0.331,0.69C36.683,7.342,36.683,7.345,36.68,7.348"/>
					<path fill="#5E096F" d="M37.017,6.65l-6.354-4.354c0.103-0.175,0.214-0.342,0.334-0.498l6.354,4.356
						C37.229,6.31,37.119,6.475,37.017,6.65"/>
					<path fill="#610973" d="M37.351,6.153l-6.354-4.356c0.093-0.118,0.192-0.231,0.294-0.339c0.03-0.032,0.06-0.061,0.093-0.091
						l6.35,4.355c-0.029,0.03-0.06,0.061-0.09,0.092C37.543,5.922,37.443,6.035,37.351,6.153"/>
					<path fill="#640A77" d="M37.734,5.722l-6.35-4.355c0.147-0.148,0.304-0.283,0.469-0.409l6.356,4.355
						C38.041,5.44,37.885,5.575,37.734,5.722"/>
					<path fill="#680A7B" d="M38.209,5.313l-6.356-4.355c0.192-0.143,0.392-0.275,0.604-0.391l6.353,4.354
						C38.598,5.039,38.396,5.169,38.209,5.313"/>
					<path fill="#6B0A7F" d="M38.809,4.921l-6.353-4.354c0.09-0.05,0.183-0.096,0.274-0.142c0.154-0.071,0.311-0.135,0.474-0.189
						l6.351,4.356c-0.159,0.052-0.316,0.117-0.471,0.189C38.992,4.826,38.899,4.873,38.809,4.921"/>
					<path fill="#6E0B83" d="M39.555,4.592l-6.351-4.356c0.405-0.134,0.827-0.201,1.268-0.201l6.352,4.356
						C40.385,4.391,39.961,4.459,39.555,4.592"/>
				</g>
			</g>
			<g>
				<path fill="#CA27F2" d="M58.487,7.363c0.239,0.593,0.361,1.22,0.358,1.88l-0.042,23.3c0,0.219-0.072,0.407-0.21,0.556
					c-0.142,0.152-0.316,0.229-0.518,0.229l-5.32-0.004c-0.207-0.001-0.379-0.08-0.518-0.231c-0.14-0.147-0.21-0.335-0.21-0.555
					l0.016-7.395c0-0.221-0.066-0.408-0.192-0.559c-0.128-0.151-0.292-0.227-0.496-0.227l-7.581-0.008
					c-0.203,0-0.379,0.074-0.516,0.226c-0.143,0.153-0.212,0.338-0.212,0.56l-0.015,7.394c0,0.523-0.244,0.785-0.729,0.785
					l-5.283-0.006c-0.486,0-0.727-0.262-0.727-0.785l0.043-23.301c0.002-0.66,0.117-1.286,0.35-1.879
					c0.229-0.591,0.551-1.099,0.959-1.525c0.406-0.426,0.889-0.771,1.439-1.032c0.546-0.259,1.129-0.392,1.74-0.391l13.555,0.014
					c0.611,0.001,1.191,0.134,1.74,0.396c0.548,0.262,1.018,0.607,1.414,1.034C57.926,6.261,58.245,6.772,58.487,7.363z
					 M52.055,18.159l0.013-7.271l-8.993-0.01l-0.016,7.271L52.055,18.159L52.055,18.159z"/>
			</g>
		</g>
		<g enable-background="new    ">
			<g enable-background="new    ">
				<defs>
					<path id="SVGID_17_" enable-background="new    " d="M82.581,33.119c-2.117-1.453-4.235-2.903-6.354-4.357
						c-0.168-0.115-0.296-0.259-0.386-0.428l6.353,4.356C82.284,32.859,82.412,33.003,82.581,33.119z"/>
				</defs>
				<clipPath id="SVGID_18_">
					<use xlink:href="#SVGID_17_"  overflow="visible"/>
				</clipPath>
				<g clip-path="url(#SVGID_18_)" enable-background="new    ">
					<path fill="#570867" d="M82.581,33.119l-6.354-4.357c-0.168-0.115-0.296-0.259-0.386-0.428l6.353,4.356
						C82.284,32.859,82.412,33.003,82.581,33.119"/>
				</g>
			</g>
			<g>
				<polygon fill="#540863" points="82.193,32.69 75.841,28.334 71.799,20.48 78.15,24.836 				"/>
			</g>
			<g enable-background="new    ">
				<defs>
					<path id="SVGID_19_" enable-background="new    " d="M71.703,20.364c2.118,1.452,4.236,2.904,6.354,4.356
						c0.039,0.026,0.072,0.066,0.094,0.116l-6.352-4.356C71.775,20.431,71.742,20.392,71.703,20.364z"/>
				</defs>
				<clipPath id="SVGID_20_">
					<use xlink:href="#SVGID_19_"  overflow="visible"/>
				</clipPath>
				<g clip-path="url(#SVGID_20_)" enable-background="new    ">
					<path fill="#570867" d="M78.15,24.836l-6.352-4.356c-0.023-0.049-0.057-0.088-0.096-0.116l6.354,4.356
						C78.096,24.747,78.129,24.786,78.15,24.836"/>
				</g>
			</g>
			<g>
				<polygon fill="#550865" points="82.146,18.191 75.792,13.835 75.805,6.813 82.158,11.167 				"/>
			</g>
			<g enable-background="new    ">
				<defs>
					<path id="SVGID_21_" enable-background="new    " d="M80.504,0.85l6.352,4.356c-0.201-0.14-0.417-0.265-0.646-0.375
						c-0.549-0.26-1.129-0.393-1.742-0.395l-6.352-4.355c0.611,0,1.191,0.133,1.74,0.394C80.085,0.586,80.301,0.71,80.504,0.85z"/>
				</defs>
				<clipPath id="SVGID_22_">
					<use xlink:href="#SVGID_21_"  overflow="visible"/>
				</clipPath>
				<g clip-path="url(#SVGID_22_)" enable-background="new    ">
					<path fill="#6E0B83" d="M84.467,4.436l-6.352-4.355c0.523,0,1.023,0.097,1.5,0.288l6.354,4.356
						C85.492,4.535,84.99,4.437,84.467,4.436"/>
					<path fill="#6B0A7F" d="M85.969,4.726L79.615,0.37c0.08,0.033,0.162,0.068,0.24,0.106c0.176,0.084,0.346,0.178,0.504,0.28
						l6.354,4.356c-0.161-0.102-0.329-0.196-0.505-0.281C86.129,4.794,86.049,4.758,85.969,4.726"/>
					<path fill="#680A7B" d="M86.714,5.111l-6.354-4.356c0.049,0.031,0.098,0.062,0.145,0.094l6.352,4.356
						C86.811,5.173,86.763,5.141,86.714,5.111"/>
				</g>
			</g>
			<g enable-background="new    ">
				<defs>
					<path id="SVGID_23_" enable-background="new    " d="M66.656,33.219c-2.119-1.452-4.236-2.903-6.353-4.356
						c-0.182-0.124-0.271-0.348-0.271-0.668l6.353,4.356C66.385,32.872,66.475,33.094,66.656,33.219z"/>
				</defs>
				<clipPath id="SVGID_24_">
					<use xlink:href="#SVGID_23_"  overflow="visible"/>
				</clipPath>
				<g clip-path="url(#SVGID_24_)" enable-background="new    ">
					<path fill="#570867" d="M66.656,33.219l-6.353-4.356c-0.182-0.124-0.271-0.348-0.271-0.668l6.353,4.356
						C66.385,32.872,66.475,33.094,66.656,33.219"/>
				</g>
			</g>
			<g>
				<polygon fill="#760B8C" points="72.92,18.182 66.566,13.826 75.792,13.835 82.146,18.191 				"/>
			</g>
			<g>
				<polygon fill="#760B8C" points="67.162,4.418 60.809,0.063 78.115,0.082 84.467,4.436 				"/>
			</g>
			<g>
				<polygon fill="#550865" points="66.385,32.551 60.031,28.195 60.08,0.848 66.434,5.202 				"/>
			</g>
			<g enable-background="new    ">
				<defs>
					<path id="SVGID_25_" enable-background="new    " d="M66.434,5.202L60.08,0.848c0.003-0.523,0.244-0.785,0.729-0.785
						l6.354,4.356C66.678,4.418,66.437,4.68,66.434,5.202z"/>
				</defs>
				<clipPath id="SVGID_26_">
					<use xlink:href="#SVGID_25_"  overflow="visible"/>
				</clipPath>
				<g clip-path="url(#SVGID_26_)" enable-background="new    ">
					<path fill="#570867" d="M66.434,5.202L60.08,0.848c0.002-0.153,0.023-0.285,0.065-0.395l6.354,4.357
						C66.457,4.918,66.434,5.048,66.434,5.202"/>
					<path fill="#5A096B" d="M66.499,4.81l-6.354-4.357c0.013-0.034,0.027-0.065,0.045-0.093l6.353,4.355
						C66.525,4.744,66.512,4.776,66.499,4.81"/>
					<path fill="#5E096F" d="M66.543,4.715L60.19,0.36c0.013-0.024,0.027-0.046,0.044-0.066l6.354,4.356
						C66.571,4.67,66.558,4.692,66.543,4.715"/>
					<path fill="#610973" d="M66.588,4.65l-6.354-4.356c0.015-0.018,0.029-0.035,0.045-0.052l6.353,4.355
						C66.617,4.614,66.602,4.631,66.588,4.65"/>
					<path fill="#640A77" d="M66.633,4.597l-6.353-4.355c0.017-0.016,0.035-0.032,0.055-0.045l6.352,4.353
						C66.668,4.566,66.65,4.581,66.633,4.597"/>
					<path fill="#680A7B" d="M66.686,4.55l-6.352-4.353c0.021-0.018,0.045-0.033,0.068-0.045l6.353,4.355
						C66.73,4.521,66.709,4.536,66.686,4.55"/>
					<path fill="#6B0A7F" d="M66.756,4.506l-6.353-4.355c0.032-0.018,0.07-0.033,0.107-0.046l6.353,4.355
						C66.824,4.474,66.789,4.488,66.756,4.506"/>
					<path fill="#6E0B83" d="M66.863,4.46L60.51,0.106c0.087-0.029,0.187-0.042,0.299-0.043l6.354,4.356
						C67.05,4.418,66.95,4.432,66.863,4.46"/>
				</g>
			</g>
			<g>
				<path fill="#CA27F2" d="M89.736,32.698c0.1,0.192,0.113,0.352,0.037,0.475c-0.077,0.124-0.217,0.188-0.42,0.186l-6.09-0.006
					c-0.201,0-0.408-0.062-0.61-0.188c-0.206-0.123-0.356-0.282-0.46-0.475l-4.043-7.853c-0.049-0.109-0.139-0.165-0.266-0.165
					l-4.559-0.006c-0.127,0.001-0.191,0.071-0.191,0.208l-0.014,7.683c-0.002,0.523-0.244,0.786-0.729,0.784l-5.285-0.006
					c-0.484,0.001-0.725-0.262-0.723-0.785l0.049-27.349c0.003-0.522,0.244-0.785,0.729-0.784l17.305,0.018
					c0.613,0.001,1.193,0.134,1.742,0.395c0.547,0.264,1.02,0.609,1.412,1.035c0.396,0.427,0.715,0.936,0.957,1.529
					c0.24,0.592,0.361,1.219,0.359,1.879l-0.02,10.865c-0.002,1.046-0.291,1.989-0.867,2.828c-0.576,0.841-1.311,1.41-2.205,1.712
					l-0.114,0.042c-0.181,0.054-0.218,0.135-0.114,0.247l0.037,0.081L89.736,32.698z M82.146,18.191l0.013-7.024l-9.227-0.009
					l-0.012,7.024L82.146,18.191L82.146,18.191z"/>
			</g>
		</g>
		<g enable-background="new    ">
			<g enable-background="new    ">
				<defs>
					<path id="SVGID_27_" enable-background="new    " d="M113.287,33.153c-2.117-1.452-4.234-2.903-6.354-4.356
						c-0.17-0.115-0.301-0.26-0.391-0.43l6.354,4.355C112.986,32.893,113.117,33.038,113.287,33.153z"/>
				</defs>
				<clipPath id="SVGID_28_">
					<use xlink:href="#SVGID_27_"  overflow="visible"/>
				</clipPath>
				<g clip-path="url(#SVGID_28_)" enable-background="new    ">
					<path fill="#570867" d="M113.287,33.153l-6.354-4.356c-0.17-0.115-0.301-0.26-0.391-0.43l6.354,4.355
						C112.986,32.893,113.117,33.038,113.287,33.153"/>
				</g>
			</g>
			<g>
				<polygon fill="#540863" points="112.896,32.722 106.543,28.366 102.502,20.512 108.854,24.868 				"/>
			</g>
			<g enable-background="new    ">
				<defs>
					<path id="SVGID_29_" enable-background="new    " d="M102.406,20.396c2.117,1.453,4.236,2.904,6.354,4.356
						c0.039,0.027,0.07,0.067,0.094,0.116l-6.352-4.355C102.479,20.463,102.445,20.425,102.406,20.396z"/>
				</defs>
				<clipPath id="SVGID_30_">
					<use xlink:href="#SVGID_29_"  overflow="visible"/>
				</clipPath>
				<g clip-path="url(#SVGID_30_)" enable-background="new    ">
					<path fill="#570867" d="M108.854,24.868l-6.352-4.355c-0.023-0.049-0.057-0.087-0.096-0.116l6.354,4.356
						C108.799,24.779,108.83,24.819,108.854,24.868"/>
				</g>
			</g>
			<g>
				<polygon fill="#550865" points="112.848,18.223 106.494,13.868 106.508,6.845 112.859,11.199 				"/>
			</g>
			<g enable-background="new    ">
				<defs>
					<path id="SVGID_31_" enable-background="new    " d="M111.208,0.881c2.118,1.451,4.235,2.903,6.353,4.356
						c-0.203-0.138-0.418-0.263-0.648-0.374c-0.549-0.261-1.129-0.394-1.74-0.395l-6.354-4.354c0.611-0.001,1.191,0.134,1.74,0.394
						C110.789,0.619,111.004,0.742,111.208,0.881z"/>
				</defs>
				<clipPath id="SVGID_32_">
					<use xlink:href="#SVGID_31_"  overflow="visible"/>
				</clipPath>
				<g clip-path="url(#SVGID_32_)" enable-background="new    ">
					<path fill="#6E0B83" d="M115.172,4.468l-6.354-4.354c0.521,0,1.023,0.098,1.5,0.289l6.354,4.355
						C116.195,4.566,115.693,4.469,115.172,4.468"/>
					<path fill="#6B0A7F" d="M116.672,4.757l-6.354-4.355c0.08,0.032,0.161,0.067,0.24,0.104c0.177,0.085,0.346,0.18,0.508,0.281
						l6.354,4.356c-0.162-0.102-0.331-0.196-0.508-0.281C116.832,4.826,116.752,4.791,116.672,4.757"/>
					<path fill="#680A7B" d="M117.42,5.144l-6.354-4.356c0.049,0.031,0.094,0.061,0.142,0.093l6.353,4.356
						C117.514,5.205,117.467,5.173,117.42,5.144"/>
				</g>
			</g>
			<g enable-background="new    ">
				<defs>
					<path id="SVGID_33_" enable-background="new    " d="M97.357,33.251l-6.352-4.356c-0.182-0.124-0.272-0.347-0.272-0.667
						l6.354,4.356C97.086,32.902,97.176,33.126,97.357,33.251z"/>
				</defs>
				<clipPath id="SVGID_34_">
					<use xlink:href="#SVGID_33_"  overflow="visible"/>
				</clipPath>
				<g clip-path="url(#SVGID_34_)" enable-background="new    ">
					<path fill="#570867" d="M97.357,33.251l-6.352-4.356c-0.182-0.124-0.272-0.347-0.272-0.667l6.354,4.356
						C97.086,32.902,97.176,33.126,97.357,33.251"/>
				</g>
			</g>
			<g>
				<polygon fill="#760B8C" points="103.623,18.214 97.27,13.857 106.494,13.868 112.848,18.223 				"/>
			</g>
			<g>
				<polygon fill="#760B8C" points="97.867,4.45 91.514,0.094 108.818,0.113 115.172,4.468 				"/>
			</g>
			<g>
				<polygon fill="#550865" points="97.087,32.584 90.733,28.227 90.783,0.88 97.137,5.234 				"/>
			</g>
			<g enable-background="new    ">
				<defs>
					<path id="SVGID_35_" enable-background="new    " d="M97.137,5.234L90.783,0.88c0.002-0.521,0.244-0.785,0.73-0.786
						l6.354,4.356C97.38,4.449,97.139,4.711,97.137,5.234z"/>
				</defs>
				<clipPath id="SVGID_36_">
					<use xlink:href="#SVGID_35_"  overflow="visible"/>
				</clipPath>
				<g clip-path="url(#SVGID_36_)" enable-background="new    ">
					<path fill="#570867" d="M97.137,5.234L90.783,0.88c0.002-0.153,0.022-0.285,0.064-0.394l6.354,4.355
						C97.158,4.95,97.139,5.08,97.137,5.234"/>
					<path fill="#5A096B" d="M97.201,4.841l-6.354-4.355c0.014-0.033,0.027-0.065,0.045-0.094l6.354,4.355
						C97.229,4.777,97.215,4.809,97.201,4.841"/>
					<path fill="#5E096F" d="M97.246,4.748l-6.354-4.355c0.014-0.023,0.027-0.045,0.044-0.065l6.353,4.355
						C97.273,4.703,97.258,4.724,97.246,4.748"/>
					<path fill="#610973" d="M97.289,4.682l-6.353-4.355c0.014-0.018,0.028-0.036,0.046-0.053l6.354,4.357
						C97.318,4.646,97.304,4.663,97.289,4.682"/>
					<path fill="#640A77" d="M97.336,4.63l-6.354-4.357c0.017-0.016,0.035-0.031,0.055-0.045l6.354,4.355
						C97.37,4.598,97.353,4.613,97.336,4.63"/>
					<path fill="#680A7B" d="M97.391,4.584l-6.354-4.355c0.021-0.018,0.043-0.032,0.068-0.045l6.352,4.356
						C97.434,4.552,97.41,4.568,97.391,4.584"/>
					<path fill="#6B0A7F" d="M97.457,4.539l-6.352-4.356c0.033-0.018,0.068-0.034,0.107-0.047l6.354,4.357
						C97.527,4.505,97.492,4.521,97.457,4.539"/>
					<path fill="#6E0B83" d="M97.566,4.493l-6.354-4.357c0.086-0.029,0.188-0.042,0.301-0.043l6.354,4.356
						C97.754,4.451,97.652,4.464,97.566,4.493"/>
				</g>
			</g>
			<g>
				<path fill="#CA27F2" d="M120.439,32.731c0.104,0.193,0.115,0.352,0.037,0.474c-0.076,0.126-0.217,0.187-0.42,0.187l-6.088-0.006
					c-0.205,0-0.408-0.063-0.613-0.189c-0.203-0.122-0.355-0.281-0.459-0.474l-4.043-7.854c-0.049-0.107-0.139-0.163-0.267-0.164
					l-4.557-0.006c-0.128,0.001-0.19,0.071-0.19,0.208l-0.014,7.683c-0.002,0.522-0.244,0.785-0.73,0.784l-5.281-0.005
					c-0.488,0-0.73-0.264-0.728-0.785l0.05-27.349c0.002-0.523,0.243-0.785,0.73-0.785l17.305,0.018
					c0.611,0.001,1.191,0.134,1.74,0.395c0.549,0.263,1.02,0.608,1.416,1.035c0.395,0.428,0.709,0.936,0.953,1.528
					c0.241,0.593,0.361,1.22,0.359,1.88l-0.02,10.864c-0.002,1.045-0.293,1.99-0.867,2.828c-0.575,0.841-1.311,1.411-2.205,1.713
					l-0.113,0.042c-0.18,0.055-0.217,0.137-0.117,0.248l0.04,0.081L120.439,32.731z M112.848,18.223l0.012-7.024l-9.223-0.008
					l-0.014,7.023L112.848,18.223L112.848,18.223z"/>
			</g>
		</g>
		<g enable-background="new    ">
			<g enable-background="new    ">
				<defs>
					<path id="SVGID_37_" enable-background="new    " d="M141.592,22.448c2.117,1.452,4.234,2.903,6.354,4.355
						c-0.113-0.078-0.244-0.116-0.389-0.116l-6.354-4.355C141.348,22.331,141.479,22.369,141.592,22.448z"/>
				</defs>
				<clipPath id="SVGID_38_">
					<use xlink:href="#SVGID_37_"  overflow="visible"/>
				</clipPath>
				<g clip-path="url(#SVGID_38_)" enable-background="new    ">
					<path fill="#6E0B83" d="M147.557,26.687l-6.354-4.355c0.094,0,0.18,0.016,0.262,0.049l6.354,4.355
						C147.736,26.703,147.649,26.687,147.557,26.687"/>
					<path fill="#6B0A7F" d="M147.818,26.735l-6.354-4.355c0.037,0.015,0.072,0.032,0.105,0.054l6.354,4.356
						C147.891,26.769,147.855,26.75,147.818,26.735"/>
					<path fill="#680A7B" d="M147.924,26.79l-6.354-4.356c0.006,0.004,0.014,0.009,0.021,0.014l6.354,4.355
						C147.938,26.798,147.93,26.794,147.924,26.79"/>
				</g>
			</g>
			<g>
				<polygon fill="#760B8C" points="144.99,26.684 138.638,22.329 141.203,22.331 147.557,26.687 				"/>
			</g>
			<g enable-background="new    ">
				<defs>
					<path id="SVGID_39_" enable-background="new    " d="M139.714,11.86c2.117,1.452,4.233,2.904,6.353,4.356
						c-0.104-0.071-0.227-0.108-0.365-0.108l-6.354-4.354C139.486,11.753,139.609,11.789,139.714,11.86z"/>
				</defs>
				<clipPath id="SVGID_40_">
					<use xlink:href="#SVGID_39_"  overflow="visible"/>
				</clipPath>
				<g clip-path="url(#SVGID_40_)" enable-background="new    ">
					<path fill="#6E0B83" d="M145.701,16.108l-6.354-4.354c0.09-0.001,0.174,0.016,0.249,0.044l6.354,4.357
						C145.873,16.124,145.791,16.107,145.701,16.108"/>
					<path fill="#6B0A7F" d="M145.95,16.155l-6.354-4.357c0.034,0.015,0.067,0.031,0.099,0.05l6.354,4.357
						C146.016,16.184,145.984,16.167,145.95,16.155"/>
					<path fill="#680A7B" d="M146.049,16.205l-6.354-4.357c0.006,0.004,0.012,0.008,0.019,0.012l6.353,4.356
						C146.061,16.212,146.055,16.209,146.049,16.205"/>
				</g>
			</g>
			<g>
				<polygon fill="#760B8C" points="136.338,26.675 129.985,22.319 138.638,22.329 144.99,26.684 				"/>
			</g>
			<g>
				<polygon fill="#760B8C" points="134.73,26.671 128.377,22.318 129.985,22.319 136.338,26.675 				"/>
			</g>
			<g enable-background="new    ">
				<defs>
					<path id="SVGID_41_" enable-background="new    " d="M134.611,26.642c-0.741-0.507-1.482-1.015-2.225-1.525
						c-0.095-0.066-0.223-0.152-0.316-0.217c-1.271-0.87-2.543-1.742-3.812-2.613c0.029,0.021,0.07,0.032,0.119,0.032l6.353,4.353
						C134.681,26.673,134.641,26.663,134.611,26.642z"/>
				</defs>
				<clipPath id="SVGID_42_">
					<use xlink:href="#SVGID_41_"  overflow="visible"/>
				</clipPath>
				<g clip-path="url(#SVGID_42_)" enable-background="new    ">
					<polyline fill="#680A7B" points="134.611,26.642 128.258,22.286 128.262,22.289 134.615,26.645 134.611,26.642 					"/>
					<path fill="#6B0A7F" d="M134.615,26.645l-6.354-4.356c0.008,0.006,0.016,0.01,0.027,0.014l6.352,4.356
						C134.632,26.655,134.623,26.65,134.615,26.645"/>
					<path fill="#6E0B83" d="M134.641,26.658l-6.352-4.356c0.024,0.01,0.055,0.016,0.088,0.016l6.353,4.353
						C134.697,26.673,134.667,26.668,134.641,26.658"/>
				</g>
			</g>
			<g enable-background="new    ">
				<defs>
					<path id="SVGID_43_" enable-background="new    " d="M141.633,0.265c2.118,1.452,4.236,2.903,6.354,4.355
						c-0.113-0.079-0.244-0.118-0.389-0.118l-6.354-4.356C141.39,0.147,141.52,0.187,141.633,0.265z"/>
				</defs>
				<clipPath id="SVGID_44_">
					<use xlink:href="#SVGID_43_"  overflow="visible"/>
				</clipPath>
				<g clip-path="url(#SVGID_44_)" enable-background="new    ">
					<path fill="#6E0B83" d="M147.598,4.502l-6.354-4.356c0.093,0,0.18,0.017,0.26,0.049l6.351,4.354
						C147.777,4.519,147.69,4.502,147.598,4.502"/>
					<path fill="#6B0A7F" d="M147.855,4.55l-6.351-4.354c0.037,0.015,0.072,0.033,0.107,0.056l6.354,4.355
						C147.93,4.584,147.895,4.566,147.855,4.55"/>
					<path fill="#680A7B" d="M147.965,4.606l-6.354-4.355c0.009,0.004,0.016,0.009,0.021,0.014l6.354,4.355
						C147.979,4.614,147.973,4.61,147.965,4.606"/>
				</g>
			</g>
			<g>
				<polygon fill="#760B8C" points="146.371,4.502 140.018,0.146 141.244,0.147 147.598,4.502 				"/>
			</g>
			<g enable-background="new    ">
				<defs>
					<path id="SVGID_45_" enable-background="new    " d="M128.061,33.282c-2.117-1.452-4.234-2.904-6.353-4.356
						c-0.183-0.124-0.271-0.347-0.271-0.667l6.353,4.356C127.789,32.935,127.879,33.158,128.061,33.282z"/>
				</defs>
				<clipPath id="SVGID_46_">
					<use xlink:href="#SVGID_45_"  overflow="visible"/>
				</clipPath>
				<g clip-path="url(#SVGID_46_)" enable-background="new    ">
					<path fill="#570867" d="M128.061,33.282l-6.353-4.356c-0.183-0.124-0.271-0.347-0.271-0.667l6.353,4.356
						C127.789,32.935,127.879,33.158,128.061,33.282"/>
				</g>
			</g>
			<g>
				<polygon fill="#550865" points="127.789,32.615 121.437,28.258 121.439,26.854 127.793,31.211 				"/>
			</g>
			<g>
				<polygon fill="#760B8C" points="134.75,16.097 128.398,11.741 139.348,11.753 145.701,16.108 				"/>
			</g>
			<g enable-background="new    ">
				<defs>
					<path id="SVGID_47_" enable-background="new    " d="M134.618,16.064c-2.118-1.452-4.236-2.903-6.354-4.356
						c0.031,0.021,0.075,0.033,0.134,0.032l6.352,4.356C134.693,16.097,134.649,16.086,134.618,16.064z"/>
				</defs>
				<clipPath id="SVGID_48_">
					<use xlink:href="#SVGID_47_"  overflow="visible"/>
				</clipPath>
				<g clip-path="url(#SVGID_48_)" enable-background="new    ">
					<polyline fill="#680A7B" points="134.618,16.064 128.265,11.709 128.27,11.712 134.621,16.066 134.618,16.064 					"/>
					<path fill="#6B0A7F" d="M134.621,16.066l-6.352-4.354c0.008,0.004,0.016,0.008,0.025,0.012l6.354,4.356
						C134.639,16.077,134.629,16.073,134.621,16.066"/>
					<path fill="#6E0B83" d="M134.648,16.08l-6.354-4.356c0.027,0.011,0.062,0.017,0.104,0.017l6.352,4.356
						C134.711,16.096,134.676,16.091,134.648,16.08"/>
				</g>
			</g>
			<g>
				<polygon fill="#760B8C" points="131.365,4.485 125.012,0.13 140.018,0.146 146.371,4.502 				"/>
			</g>
			<g>
				<polygon fill="#550865" points="127.793,31.211 121.439,26.854 121.484,2.896 127.836,7.249 				"/>
			</g>
			<g>
				<polygon fill="#760B8C" points="128.568,4.482 122.217,0.126 125.012,0.13 131.365,4.485 				"/>
			</g>
			<g>
				<polygon fill="#550865" points="127.836,7.249 121.484,2.896 121.487,0.912 127.841,5.266 				"/>
			</g>
			<g enable-background="new    ">
				<defs>
					<path id="SVGID_49_" enable-background="new    " d="M127.841,5.266l-6.354-4.354c0-0.219,0.071-0.407,0.212-0.56
						c0.139-0.149,0.312-0.226,0.518-0.226l6.352,4.356c-0.203,0-0.377,0.077-0.516,0.226C127.913,4.86,127.841,5.047,127.841,5.266
						z"/>
				</defs>
				<clipPath id="SVGID_50_">
					<use xlink:href="#SVGID_49_"  overflow="visible"/>
				</clipPath>
				<g clip-path="url(#SVGID_50_)" enable-background="new    ">
					<path fill="#570867" d="M127.841,5.266l-6.354-4.354c0-0.111,0.019-0.214,0.056-0.31l6.354,4.357
						C127.859,5.053,127.841,5.155,127.841,5.266"/>
					<path fill="#5A096B" d="M127.896,4.959l-6.354-4.357c0.014-0.037,0.031-0.073,0.051-0.108l6.356,4.356
						C127.928,4.885,127.91,4.921,127.896,4.959"/>
					<path fill="#5E096F" d="M127.949,4.851l-6.356-4.356c0.019-0.029,0.038-0.057,0.06-0.086l6.353,4.355
						C127.985,4.79,127.966,4.82,127.949,4.851"/>
					<path fill="#610973" d="M128.006,4.764l-6.353-4.355c0.015-0.019,0.031-0.038,0.046-0.056c0.009-0.008,0.016-0.016,0.023-0.025
						l6.353,4.356c-0.008,0.007-0.016,0.017-0.023,0.024C128.038,4.727,128.021,4.745,128.006,4.764"/>
					<path fill="#640A77" d="M128.076,4.684l-6.353-4.356c0.025-0.023,0.051-0.045,0.075-0.065l6.354,4.355
						C128.127,4.638,128.102,4.66,128.076,4.684"/>
					<path fill="#680A7B" d="M128.151,4.617l-6.354-4.355c0.028-0.021,0.055-0.037,0.085-0.053l6.352,4.356
						C128.205,4.581,128.179,4.599,128.151,4.617"/>
					<path fill="#6B0A7F" d="M128.234,4.565l-6.352-4.356c0.033-0.02,0.07-0.035,0.109-0.048l6.352,4.356
						C128.307,4.529,128.27,4.545,128.234,4.565"/>
					<path fill="#6E0B83" d="M128.344,4.517l-6.352-4.356c0.07-0.023,0.145-0.035,0.225-0.035l6.352,4.356
						C128.49,4.482,128.414,4.493,128.344,4.517"/>
				</g>
			</g>
			<g>
				<path fill="#CA27F2" d="M147.598,4.502c0.203,0,0.375,0.077,0.516,0.226c0.14,0.153,0.211,0.34,0.211,0.559l-0.005,2.355
					l-0.003,1.24l-0.002,1.61c-0.002,0.221-0.072,0.4-0.214,0.538c-0.14,0.139-0.312,0.207-0.517,0.207l-2.719-0.003l-7.961-0.008
					l-2.145-0.002c-0.131,0-0.192,0.069-0.192,0.206l-0.009,4.503c0,0.108,0.062,0.163,0.191,0.165l10.951,0.011
					c0.203,0,0.367,0.078,0.496,0.227c0.127,0.155,0.189,0.339,0.189,0.559l-0.008,4.132c0,0.22-0.064,0.403-0.191,0.556
					c-0.129,0.152-0.295,0.226-0.498,0.227l-10.949-0.013c-0.131,0.001-0.191,0.071-0.191,0.208l-0.004,2.024l-0.006,2.438
					c0,0.137,0.062,0.207,0.191,0.206l1.608,0.004l8.652,0.009l2.566,0.002c0.203,0,0.373,0.075,0.515,0.227
					c0.141,0.152,0.212,0.337,0.212,0.557l-0.004,1.653l-0.004,2.149l-0.004,1.364c0,0.219-0.071,0.407-0.213,0.556
					c-0.14,0.152-0.312,0.229-0.516,0.229l-2.184-0.002l-14.545-0.015l-2.299-0.004c-0.484,0.001-0.727-0.262-0.727-0.785
					l0.004-1.404l0.043-23.962l0.005-1.983c0-0.219,0.072-0.406,0.212-0.558c0.139-0.149,0.312-0.226,0.516-0.226l2.797,0.003
					l15.006,0.017L147.598,4.502z"/>
			</g>
		</g>
		<g enable-background="new    ">
			<g enable-background="new    ">
				<defs>
					<path id="SVGID_51_" enable-background="new    " d="M167.179,22.174c2.118,1.452,4.236,2.904,6.355,4.356
						c-0.105-0.072-0.227-0.106-0.366-0.106l-6.354-4.356C166.954,22.068,167.076,22.104,167.179,22.174z"/>
				</defs>
				<clipPath id="SVGID_52_">
					<use xlink:href="#SVGID_51_"  overflow="visible"/>
				</clipPath>
				<g clip-path="url(#SVGID_52_)" enable-background="new    ">
					<path fill="#6E0B83" d="M173.167,26.425l-6.354-4.356c0.093,0,0.177,0.015,0.253,0.046l6.354,4.356
						C173.342,26.439,173.26,26.425,173.167,26.425"/>
					<path fill="#6B0A7F" d="M173.42,26.47l-6.354-4.356c0.034,0.014,0.065,0.029,0.094,0.048l6.355,4.355
						C173.485,26.5,173.452,26.483,173.42,26.47"/>
					<path fill="#680A7B" d="M173.515,26.518l-6.355-4.355c0.008,0.003,0.014,0.007,0.019,0.011l6.355,4.356
						C173.525,26.527,173.521,26.522,173.515,26.518"/>
				</g>
			</g>
			<g>
				<polygon fill="#760B8C" points="163.367,26.414 157.014,22.058 166.813,22.069 173.167,26.425 				"/>
			</g>
			<g enable-background="new    ">
				<defs>
					<path id="SVGID_53_" enable-background="new    " d="M162.952,26.29l-6.354-4.355c0.118,0.081,0.257,0.124,0.415,0.123
						l6.354,4.356C163.209,26.414,163.07,26.372,162.952,26.29z"/>
				</defs>
				<clipPath id="SVGID_54_">
					<use xlink:href="#SVGID_53_"  overflow="visible"/>
				</clipPath>
				<g clip-path="url(#SVGID_54_)" enable-background="new    ">
					<path fill="#680A7B" d="M162.952,26.29l-6.354-4.355c0.007,0.005,0.014,0.01,0.021,0.014l6.352,4.355
						C162.966,26.299,162.959,26.295,162.952,26.29"/>
					<path fill="#6B0A7F" d="M162.973,26.304l-6.354-4.355c0.037,0.023,0.072,0.042,0.113,0.059l6.352,4.354
						C163.046,26.347,163.009,26.328,162.973,26.304"/>
					<path fill="#6E0B83" d="M163.084,26.362l-6.352-4.354c0.085,0.034,0.18,0.051,0.281,0.051l6.354,4.356
						C163.266,26.414,163.171,26.397,163.084,26.362"/>
				</g>
			</g>
			<g enable-background="new    ">
				<defs>
					<path id="SVGID_55_" enable-background="new    " d="M156.16,33.312c-2.117-1.452-4.235-2.904-6.354-4.356
						c-0.182-0.125-0.27-0.348-0.27-0.668l6.354,4.355C155.888,32.963,155.98,33.187,156.16,33.312z"/>
				</defs>
				<clipPath id="SVGID_56_">
					<use xlink:href="#SVGID_55_"  overflow="visible"/>
				</clipPath>
				<g clip-path="url(#SVGID_56_)" enable-background="new    ">
					<path fill="#570867" d="M156.16,33.312l-6.354-4.356c-0.182-0.125-0.27-0.348-0.27-0.668l6.354,4.355
						C155.888,32.963,155.98,33.187,156.16,33.312"/>
				</g>
			</g>
			<g enable-background="new    ">
				<defs>
					<path id="SVGID_57_" enable-background="new    " d="M156.053,0.28c2.118,1.452,4.235,2.904,6.354,4.356
						c-0.114-0.079-0.268-0.119-0.454-0.12l-6.354-4.355C155.787,0.161,155.938,0.201,156.053,0.28z"/>
				</defs>
				<clipPath id="SVGID_58_">
					<use xlink:href="#SVGID_57_"  overflow="visible"/>
				</clipPath>
				<g clip-path="url(#SVGID_58_)" enable-background="new    ">
					<path fill="#6E0B83" d="M161.952,4.517l-6.354-4.355c0.128,0,0.242,0.019,0.337,0.056l6.354,4.356
						C162.193,4.536,162.082,4.518,161.952,4.517"/>
					<path fill="#6B0A7F" d="M162.289,4.574l-6.354-4.356c0.035,0.016,0.069,0.032,0.1,0.051l6.353,4.355
						C162.357,4.605,162.324,4.587,162.289,4.574"/>
					<path fill="#680A7B" d="M162.388,4.624l-6.353-4.355c0.006,0.005,0.013,0.009,0.018,0.012l6.354,4.356
						C162.401,4.632,162.395,4.628,162.388,4.624"/>
				</g>
			</g>
			<g>
				<polygon fill="#760B8C" points="156.669,4.511 150.316,0.156 155.599,0.162 161.952,4.517 				"/>
			</g>
			<g>
				<polygon fill="#550865" points="155.89,32.643 149.536,28.288 149.586,0.941 155.939,5.296 				"/>
			</g>
			<g enable-background="new    ">
				<defs>
					<path id="SVGID_59_" enable-background="new    " d="M155.939,5.296l-6.354-4.355c0.001-0.523,0.245-0.786,0.73-0.785
						l6.352,4.355C156.184,4.512,155.939,4.773,155.939,5.296z"/>
				</defs>
				<clipPath id="SVGID_60_">
					<use xlink:href="#SVGID_59_"  overflow="visible"/>
				</clipPath>
				<g clip-path="url(#SVGID_60_)" enable-background="new    ">
					<path fill="#570867" d="M155.939,5.296l-6.354-4.355c0.001-0.153,0.021-0.284,0.063-0.393l6.354,4.355
						C155.962,5.013,155.939,5.143,155.939,5.296"/>
					<path fill="#5A096B" d="M156.004,4.905l-6.355-4.356c0.014-0.034,0.028-0.065,0.044-0.096l6.355,4.358
						c-0.018,0.028-0.032,0.059-0.046,0.093"/>
					<path fill="#5E096F" d="M156.049,4.811l-6.355-4.358c0.016-0.022,0.029-0.043,0.047-0.064l6.352,4.355
						C156.076,4.764,156.061,4.786,156.049,4.811"/>
					<path fill="#610973" d="M156.092,4.744l-6.352-4.355c0.014-0.018,0.028-0.036,0.045-0.053l6.354,4.356
						C156.121,4.708,156.106,4.725,156.092,4.744"/>
					<path fill="#640A77" d="M156.139,4.691l-6.354-4.356c0.018-0.016,0.035-0.032,0.053-0.046l6.354,4.357
						C156.173,4.66,156.156,4.676,156.139,4.691"/>
					<path fill="#680A7B" d="M156.191,4.646l-6.354-4.357c0.021-0.015,0.046-0.03,0.07-0.044l6.354,4.356
						C156.237,4.613,156.214,4.628,156.191,4.646"/>
					<path fill="#6B0A7F" d="M156.262,4.601l-6.354-4.356c0.033-0.019,0.07-0.034,0.107-0.047l6.354,4.356
						C156.331,4.567,156.295,4.583,156.262,4.601"/>
					<path fill="#6E0B83" d="M156.369,4.554l-6.354-4.356c0.088-0.028,0.188-0.043,0.301-0.042l6.352,4.355
						C156.557,4.511,156.457,4.524,156.369,4.554"/>
				</g>
			</g>
			<g>
				<path fill="#CA27F2" d="M161.952,4.517c0.484,0.002,0.728,0.264,0.726,0.787l-0.037,20.365
					c-0.002,0.222,0.071,0.401,0.208,0.538c0.142,0.137,0.313,0.208,0.519,0.208l9.8,0.011c0.204,0,0.37,0.075,0.497,0.226
					c0.128,0.152,0.191,0.338,0.191,0.558l-0.01,5.455c-0.002,0.219-0.066,0.406-0.195,0.555c-0.127,0.152-0.291,0.229-0.497,0.229
					l-16.538-0.018c-0.485,0-0.728-0.263-0.726-0.786l0.05-27.347c0-0.523,0.245-0.784,0.729-0.785L161.952,4.517z"/>
			</g>
		</g>
	</g>
	<g>
		<g enable-background="new    ">
			<g>
				<polygon fill="#550865" points="208.872,27.547 202.518,23.192 202.529,17.531 208.883,21.889 				"/>
			</g>
			<g>
				<polygon fill="#550865" points="208.891,16.395 202.538,12.04 202.548,6.874 208.901,11.23 				"/>
			</g>
			<g>
				<polygon fill="#760B8C" points="198.574,27.536 192.22,23.182 202.518,23.192 208.872,27.547 				"/>
			</g>
			<g enable-background="new    ">
				<defs>
					<path id="SVGID_61_" enable-background="new    " d="M206.597,1.364c2.118,1.453,4.235,2.904,6.354,4.357
						c-0.203-0.14-0.419-0.265-0.647-0.373c-0.55-0.261-1.129-0.395-1.742-0.396l-6.353-4.356c0.612,0.002,1.191,0.134,1.741,0.395
						C206.179,1.102,206.395,1.226,206.597,1.364z"/>
				</defs>
				<clipPath id="SVGID_62_">
					<use xlink:href="#SVGID_61_"  overflow="visible"/>
				</clipPath>
				<g clip-path="url(#SVGID_62_)" enable-background="new    ">
					<path fill="#6E0B83" d="M210.561,4.952l-6.353-4.356c0.523,0.002,1.023,0.099,1.501,0.29l6.352,4.356
						C211.585,5.05,211.084,4.953,210.561,4.952"/>
					<path fill="#6B0A7F" d="M212.061,5.242l-6.352-4.356c0.08,0.033,0.161,0.067,0.24,0.105c0.176,0.085,0.346,0.178,0.507,0.28
						l6.351,4.356c-0.158-0.102-0.328-0.195-0.504-0.279C212.222,5.31,212.143,5.273,212.061,5.242"/>
					<path fill="#680A7B" d="M212.809,5.627l-6.353-4.356c0.047,0.031,0.095,0.061,0.141,0.092l6.354,4.357
						c-0.046-0.032-0.095-0.063-0.144-0.094"/>
				</g>
			</g>
			<g enable-background="new    ">
				<defs>
					<path id="SVGID_63_" enable-background="new    " d="M192.749,33.734c-0.743-0.507-1.482-1.016-2.226-1.524
						c-1.375-0.944-2.752-1.887-4.128-2.831c-0.181-0.125-0.272-0.349-0.27-0.669l6.352,4.356
						C192.475,33.387,192.566,33.608,192.749,33.734z"/>
				</defs>
				<clipPath id="SVGID_64_">
					<use xlink:href="#SVGID_63_"  overflow="visible"/>
				</clipPath>
				<g clip-path="url(#SVGID_64_)" enable-background="new    ">
					<path fill="#570867" d="M192.749,33.734l-6.354-4.355c-0.181-0.125-0.272-0.349-0.27-0.669l6.352,4.356
						C192.475,33.387,192.566,33.608,192.749,33.734"/>
				</g>
			</g>
			<g>
				<polygon fill="#760B8C" points="198.594,16.385 192.242,12.028 202.538,12.04 208.891,16.395 				"/>
			</g>
			<g>
				<polygon fill="#760B8C" points="193.258,4.936 186.904,0.579 204.208,0.596 210.561,4.952 				"/>
			</g>
			<g>
				<polygon fill="#550865" points="192.477,33.066 186.125,28.71 186.174,1.363 192.527,5.719 				"/>
			</g>
			<g enable-background="new    ">
				<defs>
					<path id="SVGID_65_" enable-background="new    " d="M192.527,5.719l-6.354-4.356c0.002-0.523,0.244-0.785,0.73-0.784
						l6.354,4.356C192.771,4.934,192.529,5.196,192.527,5.719z"/>
				</defs>
				<clipPath id="SVGID_66_">
					<use xlink:href="#SVGID_65_"  overflow="visible"/>
				</clipPath>
				<g clip-path="url(#SVGID_66_)" enable-background="new    ">
					<path fill="#570867" d="M192.527,5.719l-6.354-4.356c0-0.154,0.023-0.285,0.064-0.394l6.354,4.357
						C192.549,5.435,192.527,5.565,192.527,5.719"/>
					<path fill="#5A096B" d="M192.592,5.326l-6.354-4.357c0.014-0.033,0.028-0.064,0.045-0.093l6.354,4.354
						C192.62,5.262,192.605,5.292,192.592,5.326"/>
					<path fill="#5E096F" d="M192.637,5.231l-6.354-4.354c0.014-0.024,0.027-0.046,0.043-0.066l6.354,4.357
						C192.664,5.187,192.649,5.208,192.637,5.231"/>
					<path fill="#610973" d="M192.68,5.168l-6.354-4.357c0.016-0.018,0.029-0.035,0.047-0.052l6.354,4.355
						C192.709,5.13,192.695,5.148,192.68,5.168"/>
					<path fill="#640A77" d="M192.727,5.114l-6.354-4.355c0.016-0.016,0.035-0.032,0.053-0.046l6.354,4.355
						C192.76,5.083,192.742,5.098,192.727,5.114"/>
					<path fill="#680A7B" d="M192.78,5.068l-6.354-4.355c0.023-0.017,0.045-0.032,0.068-0.045l6.355,4.356
						C192.824,5.038,192.801,5.052,192.78,5.068"/>
					<path fill="#6B0A7F" d="M192.849,5.023l-6.355-4.356c0.033-0.018,0.07-0.034,0.109-0.047l6.354,4.356
						C192.918,4.99,192.882,5.005,192.849,5.023"/>
					<path fill="#6E0B83" d="M192.957,4.977l-6.354-4.356c0.087-0.028,0.186-0.042,0.301-0.041l6.354,4.356
						C193.143,4.935,193.043,4.949,192.957,4.977"/>
				</g>
			</g>
			<g>
				<path fill="#CA27F2" d="M214.559,16.523l-1.65,2.271c-0.125,0.167-0.186,0.373-0.173,0.618c0.012,0.249,0.083,0.442,0.208,0.58
					l1.605,2.069c0.127,0.164,0.235,0.378,0.324,0.639c0.088,0.261,0.133,0.504,0.133,0.725l-0.012,5.616
					c-0.002,0.663-0.121,1.288-0.367,1.881c-0.243,0.593-0.564,1.109-0.959,1.549c-0.396,0.441-0.869,0.782-1.417,1.029
					c-0.552,0.248-1.131,0.374-1.743,0.372l-17.304-0.019c-0.487,0-0.73-0.262-0.728-0.785l0.051-27.347
					c0.002-0.523,0.244-0.785,0.73-0.784l17.303,0.017c0.613,0.001,1.192,0.134,1.742,0.396c0.548,0.262,1.019,0.606,1.414,1.036
					c0.393,0.426,0.712,0.934,0.954,1.527c0.243,0.594,0.362,1.22,0.36,1.88l-0.011,5.371c-0.001,0.221-0.046,0.462-0.134,0.722
					C214.797,16.146,214.686,16.357,214.559,16.523z M208.872,27.547l0.011-5.659l-10.298-0.012l-0.011,5.659L208.872,27.547
					L208.872,27.547z M208.891,16.395l0.011-5.165l-10.297-0.011l-0.011,5.166L208.891,16.395L208.891,16.395z"/>
			</g>
		</g>
		<g enable-background="new    ">
			<g enable-background="new    ">
				<defs>
					<path id="SVGID_67_" enable-background="new    " d="M233.742,22.629c2.117,1.453,4.234,2.904,6.354,4.355
						c-0.104-0.07-0.226-0.106-0.366-0.107l-6.355-4.354C233.517,22.523,233.639,22.558,233.742,22.629z"/>
				</defs>
				<clipPath id="SVGID_68_">
					<use xlink:href="#SVGID_67_"  overflow="visible"/>
				</clipPath>
				<g clip-path="url(#SVGID_68_)" enable-background="new    ">
					<path fill="#6E0B83" d="M239.73,26.877l-6.355-4.354c0.095,0,0.179,0.016,0.255,0.046l6.353,4.354
						C239.906,26.894,239.824,26.879,239.73,26.877"/>
					<path fill="#6B0A7F" d="M239.982,26.923l-6.353-4.354c0.034,0.013,0.065,0.028,0.095,0.048l6.352,4.355
						C240.047,26.953,240.016,26.938,239.982,26.923"/>
					<path fill="#680A7B" d="M240.076,26.972l-6.352-4.355c0.007,0.005,0.012,0.009,0.018,0.013l6.354,4.355
						C240.09,26.98,240.083,26.976,240.076,26.972"/>
				</g>
			</g>
			<g>
				<polygon fill="#760B8C" points="229.931,26.868 223.576,22.512 233.375,22.523 239.73,26.877 				"/>
			</g>
			<g enable-background="new    ">
				<defs>
					<path id="SVGID_69_" enable-background="new    " d="M229.515,26.745c-2.117-1.453-4.235-2.903-6.355-4.355
						c0.119,0.082,0.258,0.124,0.416,0.122l6.355,4.357C229.771,26.868,229.633,26.826,229.515,26.745z"/>
				</defs>
				<clipPath id="SVGID_70_">
					<use xlink:href="#SVGID_69_"  overflow="visible"/>
				</clipPath>
				<g clip-path="url(#SVGID_70_)" enable-background="new    ">
					<path fill="#680A7B" d="M229.515,26.745l-6.355-4.355c0.009,0.005,0.014,0.009,0.023,0.014l6.353,4.356
						C229.527,26.754,229.522,26.749,229.515,26.745"/>
					<path fill="#6B0A7F" d="M229.536,26.759l-6.353-4.356c0.035,0.022,0.072,0.041,0.111,0.058l6.354,4.355
						C229.609,26.801,229.572,26.782,229.536,26.759"/>
					<path fill="#6E0B83" d="M229.648,26.816l-6.354-4.355c0.086,0.034,0.179,0.051,0.281,0.051l6.355,4.357
						C229.826,26.868,229.734,26.85,229.648,26.816"/>
				</g>
			</g>
			<g enable-background="new    ">
				<defs>
					<path id="SVGID_71_" enable-background="new    " d="M222.723,33.765c-2.116-1.451-4.234-2.903-6.352-4.356
						c-0.181-0.124-0.271-0.347-0.271-0.667l6.354,4.356C222.452,33.419,222.543,33.642,222.723,33.765z"/>
				</defs>
				<clipPath id="SVGID_72_">
					<use xlink:href="#SVGID_71_"  overflow="visible"/>
				</clipPath>
				<g clip-path="url(#SVGID_72_)" enable-background="new    ">
					<path fill="#570867" d="M222.723,33.765l-6.352-4.356c-0.181-0.124-0.271-0.347-0.271-0.667l6.354,4.356
						C222.452,33.419,222.543,33.642,222.723,33.765"/>
				</g>
			</g>
			<g enable-background="new    ">
				<defs>
					<path id="SVGID_73_" enable-background="new    " d="M222.617,0.734c2.116,1.452,4.234,2.904,6.352,4.356
						c-0.116-0.079-0.267-0.119-0.455-0.119l-6.355-4.356C222.35,0.615,222.502,0.655,222.617,0.734z"/>
				</defs>
				<clipPath id="SVGID_74_">
					<use xlink:href="#SVGID_73_"  overflow="visible"/>
				</clipPath>
				<g clip-path="url(#SVGID_74_)" enable-background="new    ">
					<path fill="#6E0B83" d="M228.515,4.971l-6.355-4.356c0.132,0,0.244,0.021,0.339,0.058l6.354,4.356
						C228.758,4.991,228.645,4.972,228.515,4.971"/>
					<path fill="#6B0A7F" d="M228.852,5.029l-6.354-4.356c0.036,0.015,0.068,0.031,0.1,0.05l6.354,4.356
						C228.921,5.059,228.888,5.043,228.852,5.029"/>
					<path fill="#680A7B" d="M228.952,5.079l-6.354-4.356c0.005,0.004,0.011,0.008,0.019,0.012l6.352,4.356
						C228.964,5.086,228.957,5.083,228.952,5.079"/>
				</g>
			</g>
			<g>
				<polygon fill="#760B8C" points="223.232,4.965 216.879,0.61 222.16,0.615 228.515,4.971 				"/>
			</g>
			<g>
				<polygon fill="#550865" points="222.453,33.098 216.1,28.742 216.149,1.395 222.503,5.751 				"/>
			</g>
			<g enable-background="new    ">
				<defs>
					<path id="SVGID_75_" enable-background="new    " d="M222.503,5.751l-6.354-4.356c0.001-0.522,0.243-0.785,0.73-0.785
						l6.354,4.355C222.748,4.965,222.504,5.228,222.503,5.751z"/>
				</defs>
				<clipPath id="SVGID_76_">
					<use xlink:href="#SVGID_75_"  overflow="visible"/>
				</clipPath>
				<g clip-path="url(#SVGID_76_)" enable-background="new    ">
					<path fill="#570867" d="M222.503,5.751l-6.354-4.356c0-0.153,0.021-0.283,0.064-0.392l6.354,4.356
						C222.523,5.466,222.503,5.597,222.503,5.751"/>
					<path fill="#5A096B" d="M222.566,5.358l-6.354-4.356c0.013-0.034,0.029-0.065,0.045-0.095l6.354,4.357
						C222.594,5.293,222.58,5.325,222.566,5.358"/>
					<path fill="#5E096F" d="M222.611,5.264l-6.354-4.357c0.014-0.022,0.028-0.044,0.045-0.065l6.354,4.355
						C222.639,5.219,222.625,5.24,222.611,5.264"/>
					<path fill="#610973" d="M222.656,5.198l-6.354-4.355c0.014-0.018,0.03-0.036,0.046-0.052l6.354,4.356
						C222.684,5.163,222.67,5.179,222.656,5.198"/>
					<path fill="#640A77" d="M222.702,5.147l-6.354-4.356c0.019-0.018,0.035-0.033,0.054-0.047l6.354,4.356
						C222.737,5.114,222.719,5.129,222.702,5.147"/>
					<path fill="#680A7B" d="M222.756,5.1l-6.354-4.356c0.021-0.017,0.045-0.032,0.068-0.045l6.354,4.356
						C222.801,5.068,222.775,5.082,222.756,5.1"/>
					<path fill="#6B0A7F" d="M222.824,5.054l-6.354-4.356c0.034-0.019,0.07-0.034,0.11-0.046l6.352,4.356
						C222.895,5.021,222.855,5.037,222.824,5.054"/>
					<path fill="#6E0B83" d="M222.933,5.008l-6.352-4.356c0.086-0.029,0.186-0.042,0.298-0.042l6.354,4.355
						C223.12,4.965,223.018,4.98,222.933,5.008"/>
				</g>
			</g>
			<g>
				<path fill="#CA27F2" d="M228.515,4.971c0.485,0.002,0.728,0.262,0.728,0.785l-0.039,20.366c0,0.222,0.071,0.4,0.209,0.538
					c0.14,0.137,0.311,0.208,0.519,0.208l9.799,0.009c0.206,0.001,0.371,0.076,0.497,0.227c0.127,0.153,0.192,0.339,0.192,0.558
					l-0.011,5.454c0,0.22-0.066,0.407-0.192,0.557c-0.129,0.15-0.295,0.229-0.499,0.228l-16.538-0.017
					c-0.485,0-0.729-0.265-0.726-0.786l0.05-27.348c0.001-0.523,0.245-0.786,0.73-0.786L228.515,4.971z"/>
			</g>
		</g>
		<g enable-background="new    ">
			<g>
				<polygon fill="#550865" points="263.098,26.902 256.744,22.547 256.772,7.675 263.125,12.029 				"/>
			</g>
			<g>
				<polygon fill="#760B8C" points="254.1,26.893 247.747,22.538 256.744,22.547 263.098,26.902 				"/>
			</g>
			<g enable-background="new    ">
				<defs>
					<path id="SVGID_77_" enable-background="new    " d="M261.471,1.423c2.118,1.451,4.234,2.904,6.355,4.354
						c-0.205-0.138-0.423-0.264-0.65-0.373c-0.549-0.261-1.129-0.395-1.742-0.396l-6.354-4.355c0.613,0,1.194,0.135,1.744,0.395
						C261.053,1.16,261.268,1.283,261.471,1.423z"/>
				</defs>
				<clipPath id="SVGID_78_">
					<use xlink:href="#SVGID_77_"  overflow="visible"/>
				</clipPath>
				<g clip-path="url(#SVGID_78_)" enable-background="new    ">
					<path fill="#6E0B83" d="M265.434,5.009l-6.354-4.355c0.525,0.002,1.026,0.098,1.504,0.29l6.35,4.354
						C266.459,5.107,265.957,5.01,265.434,5.009"/>
					<path fill="#6B0A7F" d="M266.935,5.298l-6.35-4.354c0.081,0.032,0.158,0.066,0.24,0.104c0.175,0.084,0.343,0.179,0.502,0.281
						l6.354,4.354c-0.16-0.102-0.329-0.195-0.505-0.279C267.097,5.367,267.017,5.332,266.935,5.298"/>
					<path fill="#680A7B" d="M267.681,5.684l-6.354-4.354c0.051,0.03,0.098,0.061,0.145,0.094l6.355,4.354
						C267.777,5.746,267.73,5.715,267.681,5.684"/>
				</g>
			</g>
			<g enable-background="new    ">
				<defs>
					<path id="SVGID_79_" enable-background="new    " d="M249.398,33.151c-2.117-1.451-4.235-2.903-6.353-4.355
						c-0.271-0.186-0.52-0.401-0.747-0.646c-0.406-0.441-0.725-0.958-0.952-1.55c-0.229-0.594-0.345-1.221-0.343-1.883l6.354,4.356
						c-0.002,0.663,0.113,1.289,0.343,1.882c0.228,0.593,0.544,1.107,0.952,1.551C248.879,32.752,249.127,32.966,249.398,33.151z"/>
				</defs>
				<clipPath id="SVGID_80_">
					<use xlink:href="#SVGID_79_"  overflow="visible"/>
				</clipPath>
				<g clip-path="url(#SVGID_80_)" enable-background="new    ">
					<path fill="#570867" d="M249.398,33.151l-6.353-4.355c-0.271-0.186-0.52-0.401-0.747-0.646
						c-0.406-0.441-0.725-0.958-0.952-1.55c-0.229-0.594-0.345-1.221-0.343-1.883l6.354,4.356c-0.002,0.663,0.113,1.289,0.343,1.882
						c0.228,0.593,0.544,1.107,0.952,1.551C248.879,32.752,249.127,32.966,249.398,33.151"/>
				</g>
			</g>
			<g>
				<polygon fill="#760B8C" points="251.883,4.995 245.53,0.64 259.08,0.654 265.434,5.009 				"/>
			</g>
			<g>
				<polygon fill="#550865" points="247.357,29.074 241.004,24.718 241.04,5.468 247.393,9.824 				"/>
			</g>
			<g>
				<path fill="#CA27F2" d="M269.546,7.967c0.239,0.594,0.362,1.22,0.36,1.88l-0.036,19.25c-0.003,0.663-0.126,1.288-0.367,1.88
					c-0.245,0.594-0.565,1.108-0.962,1.55c-0.396,0.44-0.87,0.781-1.417,1.029c-0.55,0.247-1.132,0.373-1.745,0.371l-13.55-0.014
					c-0.614-0.002-1.194-0.126-1.743-0.375c-0.548-0.248-1.025-0.592-1.434-1.032c-0.408-0.443-0.725-0.958-0.952-1.551
					c-0.229-0.593-0.345-1.219-0.343-1.882l0.035-19.25c0.002-0.661,0.119-1.287,0.35-1.879c0.232-0.592,0.55-1.101,0.959-1.528
					c0.408-0.425,0.888-0.77,1.438-1.03c0.549-0.261,1.131-0.393,1.744-0.393l13.551,0.014c0.613,0.001,1.193,0.134,1.742,0.396
					c0.547,0.264,1.021,0.608,1.414,1.035C268.984,6.866,269.304,7.374,269.546,7.967z M263.098,26.902l0.027-14.873l-8.998-0.008
					L254.1,26.893L263.098,26.902L263.098,26.902z"/>
			</g>
			<g enable-background="new    ">
				<defs>
					<path id="SVGID_81_" enable-background="new    " d="M247.393,9.824l-6.353-4.356c0.001-0.661,0.118-1.286,0.349-1.879
						c0.232-0.591,0.55-1.1,0.959-1.526c0.41-0.425,0.888-0.771,1.438-1.032c0.55-0.259,1.131-0.393,1.745-0.391l6.353,4.355
						c-0.613-0.001-1.195,0.131-1.744,0.393c-0.55,0.261-1.029,0.605-1.438,1.03c-0.409,0.427-0.727,0.936-0.959,1.528
						C247.512,8.538,247.395,9.164,247.393,9.824z"/>
				</defs>
				<clipPath id="SVGID_82_">
					<use xlink:href="#SVGID_81_"  overflow="visible"/>
				</clipPath>
				<g clip-path="url(#SVGID_82_)" enable-background="new    ">
					<path fill="#570867" d="M247.393,9.824l-6.353-4.356c0.001-0.657,0.118-1.28,0.347-1.87l6.354,4.356
						C247.51,8.543,247.395,9.167,247.393,9.824"/>
					<path fill="#5A096B" d="M247.74,7.954l-6.354-4.356c0.001-0.003,0.002-0.005,0.002-0.009c0.098-0.246,0.208-0.48,0.336-0.697
						l6.354,4.356c-0.128,0.217-0.24,0.449-0.336,0.697C247.742,7.948,247.742,7.952,247.74,7.954"/>
					<path fill="#5E096F" d="M248.078,7.249l-6.354-4.356c0.102-0.174,0.212-0.338,0.334-0.494l6.352,4.357
						C248.289,6.909,248.179,7.073,248.078,7.249"/>
					<path fill="#610973" d="M248.41,6.754l-6.352-4.357c0.09-0.117,0.186-0.229,0.289-0.335c0.027-0.029,0.056-0.056,0.083-0.085
						l6.354,4.357c-0.028,0.027-0.056,0.056-0.083,0.083C248.599,6.525,248.502,6.638,248.41,6.754"/>
					<path fill="#640A77" d="M248.784,6.335l-6.354-4.357c0.151-0.149,0.312-0.289,0.481-0.418l6.353,4.356
						C249.097,6.045,248.936,6.183,248.784,6.335"/>
					<path fill="#680A7B" d="M249.265,5.917l-6.353-4.356c0.189-0.144,0.391-0.273,0.603-0.391l6.354,4.355
						C249.656,5.642,249.455,5.773,249.265,5.917"/>
					<path fill="#6B0A7F" d="M249.868,5.525l-6.354-4.355c0.089-0.048,0.177-0.095,0.27-0.139c0.154-0.075,0.312-0.136,0.473-0.189
						l6.354,4.356c-0.16,0.052-0.318,0.115-0.473,0.19C250.046,5.431,249.957,5.477,249.868,5.525"/>
					<path fill="#6E0B83" d="M250.611,5.197l-6.354-4.356c0.409-0.134,0.831-0.202,1.272-0.202l6.353,4.355
						C251.441,4.995,251.018,5.064,250.611,5.197"/>
				</g>
			</g>
		</g>
		<g enable-background="new    ">
			<g enable-background="new    ">
				<defs>
					<path id="SVGID_83_" enable-background="new    " d="M291.09,22.699c2.119,1.452,4.236,2.904,6.353,4.356
						c-0.112-0.078-0.244-0.117-0.389-0.117l-6.354-4.356C290.848,22.583,290.977,22.622,291.09,22.699z"/>
				</defs>
				<clipPath id="SVGID_84_">
					<use xlink:href="#SVGID_83_"  overflow="visible"/>
				</clipPath>
				<g clip-path="url(#SVGID_84_)" enable-background="new    ">
					<path fill="#6E0B83" d="M297.055,26.938l-6.354-4.356c0.095,0.001,0.182,0.016,0.264,0.049l6.353,4.354
						C297.236,26.954,297.149,26.938,297.055,26.938"/>
					<path fill="#6B0A7F" d="M297.318,26.986l-6.353-4.354c0.035,0.015,0.07,0.031,0.105,0.054l6.353,4.354
						C297.389,27.019,297.353,27.002,297.318,26.986"/>
					<path fill="#680A7B" d="M297.424,27.04l-6.353-4.354c0.006,0.004,0.015,0.009,0.02,0.013l6.353,4.356
						C297.435,27.05,297.431,27.045,297.424,27.04"/>
				</g>
			</g>
			<g>
				<polygon fill="#760B8C" points="284.764,26.924 278.41,22.57 290.701,22.582 297.055,26.938 				"/>
			</g>
			<g enable-background="new    ">
				<defs>
					<path id="SVGID_85_" enable-background="new    " d="M284.35,26.802l-6.351-4.356c0.118,0.083,0.257,0.123,0.411,0.124
						l6.354,4.354C284.606,26.926,284.47,26.883,284.35,26.802z"/>
				</defs>
				<clipPath id="SVGID_86_">
					<use xlink:href="#SVGID_85_"  overflow="visible"/>
				</clipPath>
				<g clip-path="url(#SVGID_86_)" enable-background="new    ">
					<path fill="#680A7B" d="M284.35,26.802l-6.351-4.356c0.005,0.006,0.013,0.01,0.02,0.015l6.354,4.356
						C284.365,26.812,284.357,26.806,284.35,26.802"/>
					<path fill="#6B0A7F" d="M284.372,26.817l-6.354-4.356c0.036,0.023,0.075,0.041,0.112,0.057l6.354,4.356
						C284.443,26.858,284.408,26.839,284.372,26.817"/>
					<path fill="#6E0B83" d="M284.484,26.874l-6.354-4.356c0.085,0.035,0.18,0.052,0.279,0.052l6.354,4.354
						C284.664,26.925,284.569,26.907,284.484,26.874"/>
				</g>
			</g>
			<g enable-background="new    ">
				<defs>
					<path id="SVGID_87_" enable-background="new    " d="M291.132,0.805c2.117,1.451,4.235,2.904,6.352,4.355
						c-0.112-0.077-0.241-0.117-0.39-0.118l-6.352-4.356C290.888,0.687,291.017,0.727,291.132,0.805z"/>
				</defs>
				<clipPath id="SVGID_88_">
					<use xlink:href="#SVGID_87_"  overflow="visible"/>
				</clipPath>
				<g clip-path="url(#SVGID_88_)" enable-background="new    ">
					<path fill="#6E0B83" d="M297.094,5.043l-6.352-4.356c0.094,0.002,0.18,0.016,0.261,0.049l6.353,4.356
						C297.275,5.059,297.189,5.043,297.094,5.043"/>
					<path fill="#6B0A7F" d="M297.355,5.092l-6.353-4.356c0.037,0.015,0.073,0.034,0.106,0.056l6.354,4.355
						C297.429,5.125,297.392,5.106,297.355,5.092"/>
					<path fill="#680A7B" d="M297.463,5.147l-6.354-4.355c0.008,0.005,0.016,0.009,0.022,0.014l6.352,4.355
						C297.478,5.156,297.471,5.151,297.463,5.147"/>
				</g>
			</g>
			<g enable-background="new    ">
				<defs>
					<path id="SVGID_89_" enable-background="new    " d="M279.335,33.184c-2.116-1.452-4.233-2.904-6.351-4.357
						c-0.271-0.186-0.519-0.4-0.746-0.646c-0.408-0.441-0.728-0.958-0.954-1.55c-0.229-0.592-0.343-1.218-0.343-1.882l6.354,4.356
						c-0.003,0.663,0.112,1.289,0.339,1.882c0.23,0.594,0.549,1.109,0.955,1.55C278.816,32.782,279.066,32.998,279.335,33.184z"/>
				</defs>
				<clipPath id="SVGID_90_">
					<use xlink:href="#SVGID_89_"  overflow="visible"/>
				</clipPath>
				<g clip-path="url(#SVGID_90_)" enable-background="new    ">
					<path fill="#570867" d="M279.335,33.184l-6.351-4.357c-0.271-0.186-0.519-0.4-0.746-0.646c-0.408-0.441-0.728-0.958-0.954-1.55
						c-0.229-0.592-0.343-1.218-0.343-1.882l6.354,4.356c-0.003,0.663,0.112,1.289,0.339,1.882c0.23,0.594,0.549,1.109,0.955,1.55
						C278.816,32.782,279.066,32.998,279.335,33.184"/>
				</g>
			</g>
			<g>
				<polygon fill="#550865" points="277.296,29.105 270.941,24.75 270.943,24.007 277.296,28.363 				"/>
			</g>
			<g>
				<polygon fill="#550865" points="277.296,28.363 270.943,24.007 270.949,20.991 277.303,25.347 				"/>
			</g>
			<g>
				<polygon fill="#550865" points="277.303,25.347 270.949,20.991 270.967,11.366 277.32,15.721 				"/>
			</g>
			<g>
				<polygon fill="#760B8C" points="282.51,5.027 276.156,0.671 290.742,0.687 297.094,5.043 				"/>
			</g>
			<g>
				<polygon fill="#550865" points="277.32,15.721 270.967,11.366 270.971,8.68 277.326,13.035 				"/>
			</g>
			<g>
				<polygon fill="#760B8C" points="281.819,5.026 275.466,0.67 276.156,0.671 282.51,5.027 				"/>
			</g>
			<g>
				<polygon fill="#550865" points="277.326,13.035 270.971,8.68 270.977,5.501 277.33,9.856 				"/>
			</g>
			<g enable-background="new    ">
				<defs>
					<path id="SVGID_91_" enable-background="new    " d="M277.33,9.856l-6.353-4.356c0.003-0.661,0.117-1.287,0.35-1.879
						c0.231-0.592,0.551-1.101,0.96-1.527c0.409-0.426,0.888-0.769,1.436-1.033c0.551-0.259,1.132-0.392,1.743-0.391l6.354,4.356
						c-0.611,0.001-1.192,0.132-1.741,0.391c-0.551,0.263-1.029,0.607-1.439,1.034c-0.408,0.426-0.73,0.933-0.959,1.525
						C277.447,8.568,277.333,9.195,277.33,9.856z"/>
				</defs>
				<clipPath id="SVGID_92_">
					<use xlink:href="#SVGID_91_"  overflow="visible"/>
				</clipPath>
				<g clip-path="url(#SVGID_92_)" enable-background="new    ">
					<path fill="#570867" d="M277.33,9.856l-6.353-4.356c0.003-0.657,0.117-1.281,0.345-1.872l6.353,4.356
						C277.447,8.574,277.333,9.198,277.33,9.856"/>
					<path fill="#5A096B" d="M277.674,7.984l-6.353-4.356c0.003-0.002,0.003-0.005,0.005-0.007c0.095-0.245,0.204-0.476,0.332-0.691
						l6.353,4.356c-0.128,0.216-0.237,0.446-0.332,0.69C277.676,7.978,277.676,7.981,277.674,7.984"/>
					<path fill="#5E096F" d="M278.012,7.285l-6.353-4.356c0.102-0.174,0.212-0.339,0.334-0.496l6.354,4.355
						C278.223,6.946,278.113,7.111,278.012,7.285"/>
					<path fill="#610973" d="M278.346,6.789l-6.354-4.355c0.092-0.119,0.191-0.232,0.294-0.34c0.027-0.028,0.055-0.057,0.085-0.086
						l6.354,4.356c-0.031,0.027-0.058,0.057-0.086,0.086C278.537,6.558,278.438,6.671,278.346,6.789"/>
					<path fill="#640A77" d="M278.725,6.364l-6.354-4.356c0.149-0.149,0.311-0.287,0.479-0.416l6.353,4.356
						C279.033,6.076,278.873,6.215,278.725,6.364"/>
					<path fill="#680A7B" d="M279.203,5.948l-6.353-4.356c0.189-0.143,0.393-0.274,0.603-0.391l6.354,4.355
						C279.594,5.674,279.392,5.804,279.203,5.948"/>
					<path fill="#6B0A7F" d="M279.807,5.556l-6.354-4.355c0.09-0.049,0.18-0.094,0.27-0.14c0.157-0.072,0.314-0.136,0.474-0.188
						l6.354,4.356c-0.16,0.053-0.316,0.115-0.472,0.188C279.986,5.461,279.892,5.507,279.807,5.556"/>
					<path fill="#6E0B83" d="M280.55,5.229l-6.354-4.356c0.409-0.134,0.829-0.202,1.27-0.203l6.354,4.356
						C281.38,5.026,280.956,5.094,280.55,5.229"/>
				</g>
			</g>
			<g>
				<path fill="#CA27F2" d="M297.094,5.043c0.205,0.001,0.377,0.078,0.516,0.227c0.141,0.152,0.213,0.34,0.211,0.56l-0.012,5.452
					c0,0.222-0.068,0.407-0.211,0.558c-0.141,0.152-0.311,0.227-0.518,0.227l-12.288-0.013c-0.202,0-0.374,0.068-0.516,0.206
					c-0.14,0.138-0.21,0.316-0.212,0.538l-0.022,13.383c-0.003,0.221,0.066,0.399,0.207,0.538c0.142,0.136,0.312,0.208,0.516,0.207
					l12.291,0.014c0.203,0.001,0.376,0.075,0.516,0.227c0.139,0.152,0.21,0.336,0.21,0.556l-0.011,5.455
					c-0.002,0.219-0.069,0.407-0.212,0.556c-0.14,0.152-0.311,0.229-0.519,0.229l-7.999-0.007l-6.585-0.006l-0.688-0.002
					c-0.613-0.001-1.192-0.125-1.743-0.375c-0.549-0.249-1.024-0.592-1.434-1.033c-0.406-0.44-0.725-0.956-0.955-1.55
					c-0.227-0.592-0.342-1.219-0.339-1.882v-0.742l0.007-3.016l0.018-9.626l0.006-2.685l0.004-3.179
					c0.003-0.661,0.117-1.288,0.35-1.88c0.229-0.592,0.551-1.1,0.959-1.525c0.41-0.426,0.889-0.771,1.439-1.034
					c0.549-0.258,1.13-0.39,1.741-0.391l0.69,0.001L297.094,5.043z"/>
			</g>
		</g>
		<g enable-background="new    ">
			<g enable-background="new    ">
				<defs>
					<path id="SVGID_93_" enable-background="new    " d="M349.854,23.049c2.116,1.452,4.234,2.904,6.354,4.356
						c-0.114-0.079-0.244-0.118-0.389-0.118l-6.354-4.355C349.609,22.933,349.74,22.971,349.854,23.049z"/>
				</defs>
				<clipPath id="SVGID_94_">
					<use xlink:href="#SVGID_93_"  overflow="visible"/>
				</clipPath>
				<g clip-path="url(#SVGID_94_)" enable-background="new    ">
					<path fill="#6E0B83" d="M355.819,27.288l-6.354-4.355c0.093,0,0.182,0.016,0.261,0.049l6.354,4.355
						C355.999,27.305,355.914,27.289,355.819,27.288"/>
					<path fill="#6B0A7F" d="M356.081,27.336l-6.354-4.355c0.038,0.015,0.073,0.033,0.105,0.054l6.353,4.354
						C356.153,27.371,356.117,27.352,356.081,27.336"/>
					<path fill="#680A7B" d="M356.185,27.39l-6.353-4.354c0.008,0.005,0.016,0.009,0.022,0.014l6.354,4.356
						C356.201,27.4,356.193,27.397,356.185,27.39"/>
				</g>
			</g>
			<g>
				<polygon fill="#760B8C" points="353.254,27.286 346.9,22.93 349.466,22.933 355.819,27.288 				"/>
			</g>
			<g enable-background="new    ">
				<defs>
					<path id="SVGID_95_" enable-background="new    " d="M347.973,12.462c0.742,0.507,1.483,1.016,2.224,1.524
						c0.319,0.218,0.636,0.435,0.953,0.653c1.06,0.726,2.116,1.452,3.177,2.178c-0.104-0.071-0.225-0.108-0.362-0.107l-6.356-4.355
						C347.748,12.355,347.87,12.39,347.973,12.462z"/>
				</defs>
				<clipPath id="SVGID_96_">
					<use xlink:href="#SVGID_95_"  overflow="visible"/>
				</clipPath>
				<g clip-path="url(#SVGID_96_)" enable-background="new    ">
					<path fill="#6E0B83" d="M353.964,16.71l-6.356-4.355c0.093-0.001,0.176,0.015,0.25,0.045l6.354,4.357
						C354.137,16.725,354.052,16.71,353.964,16.71"/>
					<path fill="#6B0A7F" d="M354.211,16.757l-6.354-4.357c0.035,0.014,0.067,0.03,0.098,0.05l6.354,4.355
						C354.277,16.785,354.242,16.769,354.211,16.757"/>
					<path fill="#680A7B" d="M354.309,16.805l-6.354-4.355c0.004,0.003,0.012,0.007,0.018,0.012l6.354,4.355
						C354.32,16.813,354.313,16.809,354.309,16.805"/>
				</g>
			</g>
			<g>
				<polygon fill="#760B8C" points="344.601,27.277 338.247,22.92 346.9,22.93 353.254,27.286 				"/>
			</g>
			<g>
				<polygon fill="#760B8C" points="342.992,27.274 336.642,22.919 338.247,22.92 344.601,27.277 				"/>
			</g>
			<g enable-background="new    ">
				<defs>
					<path id="SVGID_97_" enable-background="new    " d="M342.873,27.244c-2.117-1.452-4.234-2.903-6.351-4.356
						c0.028,0.021,0.07,0.033,0.12,0.032l6.351,4.354C342.941,27.275,342.903,27.264,342.873,27.244z"/>
				</defs>
				<clipPath id="SVGID_98_">
					<use xlink:href="#SVGID_97_"  overflow="visible"/>
				</clipPath>
				<g clip-path="url(#SVGID_98_)" enable-background="new    ">
					<polyline fill="#680A7B" points="342.873,27.244 336.522,22.887 336.522,22.89 342.877,27.247 342.873,27.244 					"/>
					<path fill="#6B0A7F" d="M342.877,27.247l-6.353-4.357c0.01,0.005,0.018,0.01,0.028,0.013l6.352,4.355
						C342.896,27.256,342.886,27.252,342.877,27.247"/>
					<path fill="#6E0B83" d="M342.903,27.259l-6.352-4.355c0.024,0.01,0.055,0.016,0.09,0.016l6.351,4.354
						C342.957,27.274,342.931,27.27,342.903,27.259"/>
				</g>
			</g>
			<g enable-background="new    ">
				<defs>
					<path id="SVGID_99_" enable-background="new    " d="M349.895,0.865c0.743,0.51,1.482,1.016,2.225,1.525
						c1.375,0.944,2.753,1.887,4.129,2.831c-0.112-0.077-0.242-0.118-0.389-0.117l-6.354-4.356
						C349.653,0.749,349.783,0.788,349.895,0.865z"/>
				</defs>
				<clipPath id="SVGID_100_">
					<use xlink:href="#SVGID_99_"  overflow="visible"/>
				</clipPath>
				<g clip-path="url(#SVGID_100_)" enable-background="new    ">
					<path fill="#6E0B83" d="M355.859,5.104l-6.354-4.356c0.095,0.001,0.182,0.018,0.262,0.049l6.354,4.355
						C356.039,5.12,355.954,5.104,355.859,5.104"/>
					<path fill="#6B0A7F" d="M356.121,5.152l-6.354-4.355c0.037,0.016,0.072,0.034,0.108,0.055l6.353,4.355
						C356.193,5.187,356.158,5.168,356.121,5.152"/>
					<path fill="#680A7B" d="M356.228,5.208l-6.353-4.355c0.007,0.005,0.015,0.009,0.02,0.013l6.353,4.356
						C356.242,5.217,356.233,5.212,356.228,5.208"/>
				</g>
			</g>
			<g>
				<polygon fill="#760B8C" points="354.635,5.103 348.281,0.747 349.506,0.748 355.859,5.104 				"/>
			</g>
			<g enable-background="new    ">
				<defs>
					<path id="SVGID_101_" enable-background="new    " d="M336.326,33.884c-2.121-1.453-4.237-2.904-6.355-4.356
						c-0.182-0.125-0.272-0.347-0.272-0.667l6.354,4.356C336.051,33.537,336.142,33.759,336.326,33.884z"/>
				</defs>
				<clipPath id="SVGID_102_">
					<use xlink:href="#SVGID_101_"  overflow="visible"/>
				</clipPath>
				<g clip-path="url(#SVGID_102_)" enable-background="new    ">
					<path fill="#570867" d="M336.326,33.884l-6.355-4.356c-0.182-0.125-0.272-0.347-0.272-0.667l6.354,4.356
						C336.051,33.537,336.142,33.759,336.326,33.884"/>
				</g>
			</g>
			<g>
				<polygon fill="#550865" points="336.053,33.217 329.699,28.86 329.702,27.455 336.055,31.813 				"/>
			</g>
			<g>
				<polygon fill="#760B8C" points="343.013,16.699 336.66,12.343 347.607,12.355 353.964,16.71 				"/>
			</g>
			<g enable-background="new    ">
				<defs>
					<path id="SVGID_103_" enable-background="new    " d="M342.881,16.666c-2.117-1.452-4.234-2.903-6.353-4.356
						c0.031,0.022,0.077,0.033,0.133,0.034l6.353,4.356C342.955,16.698,342.913,16.687,342.881,16.666z"/>
				</defs>
				<clipPath id="SVGID_104_">
					<use xlink:href="#SVGID_103_"  overflow="visible"/>
				</clipPath>
				<g clip-path="url(#SVGID_104_)" enable-background="new    ">
					<polyline fill="#680A7B" points="342.881,16.666 336.527,12.309 336.533,12.313 342.886,16.669 342.881,16.666 					"/>
					<path fill="#6B0A7F" d="M342.886,16.669l-6.353-4.356c0.006,0.004,0.014,0.009,0.023,0.013l6.353,4.355
						C342.9,16.677,342.892,16.674,342.886,16.669"/>
					<path fill="#6E0B83" d="M342.91,16.681l-6.353-4.355c0.027,0.012,0.062,0.017,0.103,0.017l6.353,4.356
						C342.973,16.698,342.938,16.693,342.91,16.681"/>
				</g>
			</g>
			<g>
				<polygon fill="#760B8C" points="339.629,5.087 333.275,0.731 348.281,0.747 354.635,5.103 				"/>
			</g>
			<g>
				<polygon fill="#550865" points="336.055,31.813 329.702,27.455 329.747,3.496 336.101,7.851 				"/>
			</g>
			<g>
				<polygon fill="#760B8C" points="336.831,5.084 330.48,0.728 333.275,0.731 339.629,5.087 				"/>
			</g>
			<g>
				<polygon fill="#550865" points="336.101,7.851 329.747,3.496 329.749,1.513 336.103,5.869 				"/>
			</g>
			<g enable-background="new    ">
				<defs>
					<path id="SVGID_105_" enable-background="new    " d="M336.103,5.869l-6.354-4.356c0-0.219,0.073-0.407,0.215-0.559
						c0.138-0.149,0.31-0.227,0.517-0.227l6.351,4.355c-0.204,0-0.376,0.078-0.516,0.226C336.176,5.461,336.103,5.649,336.103,5.869
						z"/>
				</defs>
				<clipPath id="SVGID_106_">
					<use xlink:href="#SVGID_105_"  overflow="visible"/>
				</clipPath>
				<g clip-path="url(#SVGID_106_)" enable-background="new    ">
					<path fill="#570867" d="M336.103,5.869l-6.354-4.356c0-0.111,0.021-0.214,0.056-0.309l6.354,4.356
						C336.123,5.654,336.103,5.757,336.103,5.869"/>
					<path fill="#5A096B" d="M336.158,5.561l-6.354-4.356c0.015-0.037,0.032-0.073,0.051-0.108l6.354,4.356
						C336.19,5.488,336.173,5.523,336.158,5.561"/>
					<path fill="#5E096F" d="M336.209,5.453l-6.354-4.356c0.018-0.029,0.039-0.058,0.062-0.086l6.354,4.355
						C336.248,5.393,336.227,5.422,336.209,5.453"/>
					<path fill="#610973" d="M336.271,5.365l-6.354-4.355c0.015-0.02,0.029-0.038,0.047-0.056c0.007-0.009,0.015-0.016,0.022-0.025
						l6.354,4.357c-0.008,0.008-0.014,0.015-0.024,0.023C336.3,5.329,336.285,5.347,336.271,5.365"/>
					<path fill="#640A77" d="M336.34,5.287l-6.354-4.357c0.025-0.023,0.05-0.044,0.074-0.065l6.355,4.356
						C336.39,5.24,336.365,5.262,336.34,5.287"/>
					<path fill="#680A7B" d="M336.415,5.221l-6.355-4.356c0.028-0.021,0.057-0.038,0.082-0.054l6.355,4.356
						C336.47,5.182,336.441,5.201,336.415,5.221"/>
					<path fill="#6B0A7F" d="M336.497,5.167l-6.355-4.356c0.038-0.019,0.073-0.036,0.113-0.048l6.351,4.356
						C336.569,5.13,336.533,5.147,336.497,5.167"/>
					<path fill="#6E0B83" d="M336.606,5.119l-6.351-4.356c0.07-0.023,0.145-0.034,0.225-0.035l6.351,4.355
						C336.754,5.084,336.678,5.096,336.606,5.119"/>
				</g>
			</g>
			<g>
				<path fill="#CA27F2" d="M355.859,5.104c0.204-0.001,0.376,0.078,0.516,0.227c0.14,0.152,0.212,0.34,0.212,0.559l-0.005,2.354
					l-0.002,1.241l-0.004,1.608c0,0.221-0.071,0.4-0.213,0.538c-0.141,0.14-0.312,0.207-0.517,0.207l-2.722-0.003l-7.961-0.007
					l-2.142-0.004c-0.13,0-0.191,0.07-0.191,0.208l-0.007,4.503c-0.004,0.108,0.059,0.164,0.189,0.164l10.951,0.011
					c0.202,0,0.367,0.077,0.495,0.229c0.129,0.151,0.19,0.337,0.19,0.556l-0.007,4.132c0,0.219-0.066,0.406-0.192,0.557
					c-0.13,0.151-0.294,0.226-0.498,0.225l-10.949-0.011c-0.13,0-0.192,0.069-0.192,0.208l-0.005,2.023l-0.003,2.438
					c0,0.138,0.06,0.207,0.189,0.206l1.608,0.003l8.653,0.009l2.565,0.002c0.202,0.001,0.374,0.076,0.517,0.228
					c0.139,0.152,0.209,0.337,0.209,0.556l-0.002,1.653l-0.006,2.148l-0.002,1.363c0,0.22-0.072,0.408-0.211,0.558
					c-0.144,0.15-0.315,0.228-0.518,0.228l-2.184-0.002l-14.547-0.016l-2.299-0.002c-0.484-0.001-0.727-0.263-0.725-0.786
					l0.002-1.404l0.046-23.961l0.002-1.982c0-0.22,0.073-0.408,0.213-0.559c0.14-0.148,0.311-0.227,0.516-0.226l2.798,0.003
					l15.006,0.016L355.859,5.104z"/>
			</g>
		</g>
		<g enable-background="new    ">
			<g enable-background="new    ">
				<defs>
					<path id="SVGID_107_" enable-background="new    " d="M322.124,33.755c-0.74-0.508-1.483-1.016-2.224-1.525
						c-1.377-0.943-2.753-1.888-4.13-2.831c-0.169-0.116-0.3-0.261-0.389-0.431l6.353,4.354
						C321.826,33.495,321.955,33.639,322.124,33.755z"/>
				</defs>
				<clipPath id="SVGID_108_">
					<use xlink:href="#SVGID_107_"  overflow="visible"/>
				</clipPath>
				<g clip-path="url(#SVGID_108_)" enable-background="new    ">
					<path fill="#570867" d="M322.124,33.755l-6.353-4.356c-0.169-0.116-0.3-0.261-0.389-0.431l6.353,4.354
						C321.826,33.495,321.955,33.639,322.124,33.755"/>
				</g>
			</g>
			<g enable-background="new    ">
				<defs>
					<path id="SVGID_109_" enable-background="new    " d="M323.527,0.786c2.118,1.451,4.234,2.903,6.354,4.355
						c-0.062-0.042-0.157-0.064-0.284-0.063l-6.353-4.356C323.371,0.721,323.466,0.742,323.527,0.786z"/>
				</defs>
				<clipPath id="SVGID_110_">
					<use xlink:href="#SVGID_109_"  overflow="visible"/>
				</clipPath>
				<g clip-path="url(#SVGID_110_)" enable-background="new    ">
					<path fill="#6E0B83" d="M329.598,5.077l-6.353-4.356c0.094,0,0.169,0.013,0.229,0.036l6.353,4.356
						C329.767,5.088,329.691,5.077,329.598,5.077"/>
					<path fill="#6B0A7F" d="M329.826,5.112l-6.353-4.356c0.019,0.007,0.032,0.014,0.047,0.025l6.352,4.355
						C329.859,5.126,329.844,5.119,329.826,5.112"/>
					<polyline fill="#680A7B" points="329.873,5.136 323.521,0.781 323.527,0.786 329.882,5.141 329.873,5.136 					"/>
				</g>
			</g>
			<g>
				<polygon fill="#540863" points="321.735,33.324 315.382,28.969 309.621,17.684 315.975,22.04 				"/>
			</g>
			<g enable-background="new    ">
				<defs>
					<path id="SVGID_111_" enable-background="new    " d="M309.541,17.584c2.119,1.453,4.236,2.904,6.355,4.356
						c0.024,0.017,0.054,0.051,0.079,0.101l-6.354-4.356C309.594,17.636,309.566,17.601,309.541,17.584z"/>
				</defs>
				<clipPath id="SVGID_112_">
					<use xlink:href="#SVGID_111_"  overflow="visible"/>
				</clipPath>
				<g clip-path="url(#SVGID_112_)" enable-background="new    ">
					<path fill="#570867" d="M315.975,22.04l-6.354-4.356c-0.027-0.048-0.055-0.083-0.08-0.101l6.355,4.356
						C315.92,21.957,315.949,21.99,315.975,22.04"/>
				</g>
			</g>
			<g>
				<polygon fill="#760B8C" points="323.242,5.069 316.888,0.715 323.244,0.721 329.598,5.077 				"/>
			</g>
			<g enable-background="new    ">
				<defs>
					<path id="SVGID_113_" enable-background="new    " d="M322.055,5.646l-6.354-4.354c0.13-0.164,0.307-0.301,0.539-0.412
						c0.228-0.11,0.445-0.165,0.647-0.165l6.354,4.354c-0.203,0-0.42,0.056-0.652,0.167C322.361,5.346,322.182,5.483,322.055,5.646z
						"/>
				</defs>
				<clipPath id="SVGID_114_">
					<use xlink:href="#SVGID_113_"  overflow="visible"/>
				</clipPath>
				<g clip-path="url(#SVGID_114_)" enable-background="new    ">
					<path fill="#610973" d="M322.055,5.646l-6.354-4.354c0.029-0.039,0.064-0.078,0.102-0.114l6.353,4.355
						C322.119,5.57,322.084,5.607,322.055,5.646"/>
					<path fill="#640A77" d="M322.156,5.532l-6.353-4.355c0.039-0.04,0.085-0.079,0.135-0.117l6.353,4.356
						C322.242,5.455,322.196,5.492,322.156,5.532"/>
					<path fill="#680A7B" d="M322.291,5.417l-6.353-4.356c0.06-0.046,0.13-0.088,0.201-0.129l6.354,4.355
						C322.421,5.327,322.352,5.371,322.291,5.417"/>
					<path fill="#6B0A7F" d="M322.492,5.286l-6.354-4.355c0.033-0.017,0.066-0.035,0.102-0.051c0.076-0.037,0.154-0.069,0.228-0.092
						l6.354,4.354c-0.074,0.025-0.152,0.056-0.232,0.094C322.559,5.252,322.525,5.268,322.492,5.286"/>
					<path fill="#6E0B83" d="M322.822,5.142l-6.354-4.354c0.145-0.049,0.287-0.073,0.419-0.072l6.354,4.354
						C323.106,5.069,322.967,5.092,322.822,5.142"/>
				</g>
			</g>
			<g enable-background="new    ">
				<defs>
					<path id="SVGID_115_" enable-background="new    " d="M305.658,33.852l-6.353-4.355c-0.182-0.124-0.272-0.347-0.272-0.668
						l6.354,4.356C305.388,33.504,305.477,33.727,305.658,33.852z"/>
				</defs>
				<clipPath id="SVGID_116_">
					<use xlink:href="#SVGID_115_"  overflow="visible"/>
				</clipPath>
				<g clip-path="url(#SVGID_116_)" enable-background="new    ">
					<path fill="#570867" d="M305.658,33.852l-6.353-4.355c-0.182-0.124-0.272-0.347-0.272-0.668l6.354,4.356
						C305.388,33.504,305.477,33.727,305.658,33.852"/>
				</g>
			</g>
			<g>
				<polygon fill="#670A7B" points="312.156,18.112 305.802,13.756 315.701,1.292 322.055,5.646 				"/>
			</g>
			<g enable-background="new    ">
				<defs>
					<path id="SVGID_117_" enable-background="new    " d="M305.553,0.82c2.116,1.453,4.233,2.905,6.353,4.356
						c-0.117-0.079-0.268-0.119-0.457-0.119l-6.353-4.356C305.285,0.703,305.435,0.742,305.553,0.82z"/>
				</defs>
				<clipPath id="SVGID_118_">
					<use xlink:href="#SVGID_117_"  overflow="visible"/>
				</clipPath>
				<g clip-path="url(#SVGID_118_)" enable-background="new    ">
					<path fill="#6E0B83" d="M311.449,5.057l-6.353-4.356c0.133,0,0.245,0.019,0.34,0.058l6.354,4.356
						C311.693,5.076,311.582,5.058,311.449,5.057"/>
					<path fill="#6B0A7F" d="M311.789,5.115l-6.354-4.356c0.034,0.015,0.066,0.031,0.098,0.051l6.355,4.356
						C311.855,5.145,311.824,5.129,311.789,5.115"/>
					<path fill="#680A7B" d="M311.889,5.166l-6.355-4.356c0.007,0.003,0.012,0.007,0.02,0.01l6.353,4.356
						C311.898,5.173,311.892,5.169,311.889,5.166"/>
				</g>
			</g>
			<g>
				<polygon fill="#760B8C" points="306.168,5.052 299.814,0.696 305.096,0.701 311.449,5.057 				"/>
			</g>
			<g>
				<polygon fill="#550865" points="305.388,33.184 299.034,28.829 299.087,1.481 305.438,5.837 				"/>
			</g>
			<g enable-background="new    ">
				<defs>
					<path id="SVGID_119_" enable-background="new    " d="M305.438,5.837l-6.351-4.356c0-0.522,0.244-0.786,0.727-0.785
						l6.354,4.356C305.682,5.051,305.439,5.315,305.438,5.837z"/>
				</defs>
				<clipPath id="SVGID_120_">
					<use xlink:href="#SVGID_119_"  overflow="visible"/>
				</clipPath>
				<g clip-path="url(#SVGID_120_)" enable-background="new    ">
					<path fill="#570867" d="M305.438,5.837l-6.351-4.356c0-0.154,0.02-0.284,0.061-0.393l6.352,4.356
						C305.459,5.553,305.438,5.684,305.438,5.837"/>
					<path fill="#5A096B" d="M305.5,5.445l-6.352-4.356c0.012-0.034,0.027-0.065,0.045-0.094l6.354,4.356
						C305.53,5.379,305.515,5.411,305.5,5.445"/>
					<path fill="#5E096F" d="M305.547,5.35l-6.354-4.356c0.012-0.022,0.028-0.044,0.045-0.064l6.352,4.355
						C305.576,5.305,305.559,5.327,305.547,5.35"/>
					<path fill="#610973" d="M305.59,5.285l-6.352-4.355c0.013-0.02,0.03-0.036,0.045-0.053l6.353,4.356
						C305.621,5.249,305.604,5.267,305.59,5.285"/>
					<path fill="#640A77" d="M305.637,5.232l-6.353-4.356c0.017-0.018,0.035-0.032,0.055-0.046l6.354,4.355
						C305.672,5.201,305.654,5.215,305.637,5.232"/>
					<path fill="#680A7B" d="M305.691,5.186l-6.354-4.355c0.021-0.017,0.046-0.031,0.068-0.046l6.352,4.357
						C305.734,5.154,305.711,5.169,305.691,5.186"/>
					<path fill="#6B0A7F" d="M305.758,5.141l-6.352-4.357c0.033-0.018,0.068-0.034,0.109-0.045l6.354,4.356
						C305.829,5.107,305.793,5.123,305.758,5.141"/>
					<path fill="#6E0B83" d="M305.869,5.095l-6.354-4.356c0.087-0.028,0.186-0.042,0.299-0.042l6.354,4.356
						C306.054,5.052,305.956,5.067,305.869,5.095"/>
				</g>
			</g>
			<g>
				<path fill="#CA27F2" d="M329.598,5.077c0.204,0,0.324,0.055,0.361,0.167c0.04,0.109-0.005,0.247-0.135,0.412l-9.171,11.598
					c-0.075,0.084-0.09,0.181-0.038,0.289l8.93,15.789c0.1,0.193,0.115,0.353,0.037,0.475c-0.077,0.125-0.219,0.188-0.422,0.188
					l-6.355-0.007c-0.204,0-0.406-0.063-0.613-0.188c-0.201-0.124-0.357-0.283-0.456-0.476l-5.761-11.284
					c-0.042-0.077-0.082-0.113-0.115-0.113c-0.026,0-0.051,0.024-0.076,0.072l-3.185,3.755c-0.129,0.141-0.236,0.339-0.327,0.601
					c-0.089,0.262-0.134,0.502-0.134,0.722l-0.013,6.113c0,0.524-0.244,0.786-0.728,0.786l-5.284-0.005
					c-0.483,0-0.725-0.263-0.725-0.787l0.05-27.347c0.002-0.522,0.244-0.786,0.73-0.785l5.281,0.005
					c0.486,0.001,0.729,0.265,0.725,0.788l-0.018,12.268l9.898-12.466c0.127-0.163,0.307-0.3,0.535-0.41
					c0.232-0.111,0.449-0.167,0.652-0.167L329.598,5.077z"/>
			</g>
		</g>
		<g enable-background="new    ">
			<g enable-background="new    ">
				<defs>
					<path id="SVGID_121_" enable-background="new    " d="M380.349,33.812c-2.117-1.451-4.233-2.903-6.354-4.354
						c-0.168-0.116-0.295-0.259-0.385-0.429l6.354,4.356C380.052,33.554,380.181,33.697,380.349,33.812z"/>
				</defs>
				<clipPath id="SVGID_122_">
					<use xlink:href="#SVGID_121_"  overflow="visible"/>
				</clipPath>
				<g clip-path="url(#SVGID_122_)" enable-background="new    ">
					<path fill="#570867" d="M380.349,33.812l-6.354-4.354c-0.168-0.116-0.295-0.259-0.385-0.429l6.354,4.356
						C380.052,33.554,380.181,33.697,380.349,33.812"/>
				</g>
			</g>
			<g>
				<polygon fill="#540863" points="379.964,33.385 373.609,29.029 369.566,21.176 375.92,25.531 				"/>
			</g>
			<g enable-background="new    ">
				<defs>
					<path id="SVGID_123_" enable-background="new    " d="M369.471,21.059c2.118,1.452,4.234,2.904,6.355,4.355
						c0.039,0.028,0.068,0.067,0.094,0.116l-6.353-4.354C369.541,21.125,369.512,21.087,369.471,21.059z"/>
				</defs>
				<clipPath id="SVGID_124_">
					<use xlink:href="#SVGID_123_"  overflow="visible"/>
				</clipPath>
				<g clip-path="url(#SVGID_124_)" enable-background="new    ">
					<path fill="#570867" d="M375.92,25.531l-6.353-4.354c-0.025-0.052-0.055-0.089-0.096-0.117l6.355,4.355
						C375.865,25.443,375.895,25.481,375.92,25.531"/>
				</g>
			</g>
			<g>
				<polygon fill="#550865" points="379.914,18.886 373.56,14.53 373.576,7.508 379.926,11.862 				"/>
			</g>
			<g enable-background="new    ">
				<defs>
					<path id="SVGID_125_" enable-background="new    " d="M378.273,1.545c2.117,1.452,4.234,2.903,6.353,4.355
						c-0.205-0.139-0.419-0.264-0.648-0.374c-0.548-0.26-1.129-0.393-1.743-0.394l-6.353-4.356c0.614,0,1.194,0.134,1.743,0.394
						C377.854,1.281,378.071,1.405,378.273,1.545z"/>
				</defs>
				<clipPath id="SVGID_126_">
					<use xlink:href="#SVGID_125_"  overflow="visible"/>
				</clipPath>
				<g clip-path="url(#SVGID_126_)" enable-background="new    ">
					<path fill="#6E0B83" d="M382.235,5.132l-6.353-4.356c0.526,0,1.026,0.098,1.504,0.289l6.354,4.355
						C383.26,5.229,382.76,5.132,382.235,5.132"/>
					<path fill="#6B0A7F" d="M383.74,5.42l-6.354-4.355c0.08,0.032,0.16,0.067,0.239,0.105c0.178,0.084,0.346,0.179,0.507,0.28
						l6.353,4.356c-0.161-0.102-0.329-0.196-0.507-0.281C383.899,5.489,383.819,5.454,383.74,5.42"/>
					<path fill="#680A7B" d="M384.485,5.806l-6.353-4.356c0.046,0.031,0.095,0.062,0.142,0.095l6.353,4.355
						C384.58,5.868,384.533,5.838,384.485,5.806"/>
				</g>
			</g>
			<g enable-background="new    ">
				<defs>
					<path id="SVGID_127_" enable-background="new    " d="M364.425,33.913c-2.12-1.452-4.237-2.904-6.354-4.356
						c-0.183-0.125-0.274-0.348-0.272-0.668l6.354,4.356C364.15,33.566,364.242,33.788,364.425,33.913z"/>
				</defs>
				<clipPath id="SVGID_128_">
					<use xlink:href="#SVGID_127_"  overflow="visible"/>
				</clipPath>
				<g clip-path="url(#SVGID_128_)" enable-background="new    ">
					<path fill="#570867" d="M364.425,33.913l-6.354-4.356c-0.183-0.125-0.274-0.348-0.272-0.668l6.354,4.356
						C364.15,33.566,364.242,33.788,364.425,33.913"/>
				</g>
			</g>
			<g>
				<polygon fill="#760B8C" points="370.688,18.877 364.335,14.521 373.56,14.53 379.914,18.886 				"/>
			</g>
			<g>
				<polygon fill="#760B8C" points="364.931,5.113 358.58,0.757 375.882,0.776 382.235,5.132 				"/>
			</g>
			<g>
				<polygon fill="#550865" points="364.152,33.245 357.799,28.889 357.849,1.543 364.202,5.897 				"/>
			</g>
			<g enable-background="new    ">
				<defs>
					<path id="SVGID_129_" enable-background="new    " d="M364.202,5.897l-6.353-4.354c0-0.523,0.245-0.787,0.731-0.786
						l6.351,4.356C364.447,5.113,364.202,5.375,364.202,5.897z"/>
				</defs>
				<clipPath id="SVGID_130_">
					<use xlink:href="#SVGID_129_"  overflow="visible"/>
				</clipPath>
				<g clip-path="url(#SVGID_130_)" enable-background="new    ">
					<path fill="#570867" d="M364.202,5.897l-6.353-4.354c0-0.153,0.022-0.285,0.061-0.394l6.354,4.357
						C364.225,5.615,364.202,5.744,364.202,5.897"/>
					<path fill="#5A096B" d="M364.265,5.505l-6.354-4.357c0.016-0.032,0.031-0.065,0.049-0.093l6.35,4.354
						C364.295,5.44,364.28,5.472,364.265,5.505"/>
					<path fill="#5E096F" d="M364.309,5.411l-6.35-4.354c0.012-0.024,0.027-0.046,0.042-0.066l6.354,4.355
						C364.337,5.366,364.326,5.388,364.309,5.411"/>
					<path fill="#610973" d="M364.354,5.346l-6.354-4.355c0.016-0.02,0.032-0.037,0.048-0.053l6.354,4.356
						C364.385,5.311,364.37,5.327,364.354,5.346"/>
					<path fill="#640A77" d="M364.402,5.294l-6.354-4.356c0.018-0.015,0.034-0.032,0.052-0.046l6.354,4.356
						C364.436,5.261,364.417,5.276,364.402,5.294"/>
					<path fill="#680A7B" d="M364.454,5.248l-6.354-4.356c0.022-0.017,0.045-0.031,0.07-0.044l6.353,4.355
						C364.499,5.215,364.477,5.231,364.454,5.248"/>
					<path fill="#6B0A7F" d="M364.523,5.203l-6.353-4.355c0.032-0.019,0.069-0.035,0.109-0.046l6.352,4.354
						C364.594,5.168,364.557,5.184,364.523,5.203"/>
					<path fill="#6E0B83" d="M364.632,5.155l-6.352-4.354c0.085-0.029,0.185-0.044,0.3-0.044l6.351,4.356
						C364.818,5.113,364.719,5.127,364.632,5.155"/>
				</g>
			</g>
			<g>
				<path fill="#CA27F2" d="M387.505,33.394c0.102,0.192,0.114,0.351,0.036,0.474c-0.074,0.126-0.215,0.187-0.42,0.187l-6.087-0.006
					c-0.205-0.001-0.409-0.062-0.612-0.188c-0.203-0.124-0.358-0.283-0.458-0.475l-4.044-7.854c-0.053-0.107-0.14-0.164-0.267-0.164
					l-4.556-0.004c-0.128,0-0.191,0.069-0.191,0.206l-0.016,7.684c-0.003,0.523-0.245,0.785-0.728,0.785l-5.285-0.005
					c-0.482-0.001-0.727-0.263-0.725-0.787l0.05-27.348c0-0.523,0.245-0.784,0.729-0.784l17.305,0.018
					c0.614,0.001,1.195,0.133,1.743,0.394c0.545,0.264,1.021,0.608,1.414,1.035c0.394,0.427,0.713,0.936,0.955,1.529
					c0.239,0.592,0.359,1.219,0.359,1.88l-0.022,10.866c0,1.046-0.287,1.99-0.863,2.827c-0.579,0.84-1.312,1.41-2.206,1.713
					l-0.115,0.042c-0.18,0.055-0.217,0.136-0.114,0.247l0.036,0.083L387.505,33.394z M379.914,18.886l0.012-7.023l-9.225-0.009
					l-0.014,7.024L379.914,18.886L379.914,18.886z"/>
			</g>
		</g>
	</g>
</g>
</svg>
