<?xml version="1.0" encoding="utf-8"?>
<!-- Generator: Adobe Illustrator 16.2.0, SVG Export Plug-In . SVG Version: 6.00 Build 0)  -->
<!DOCTYPE svg PUBLIC "-//W3C//DTD SVG 1.1//EN" "http://www.w3.org/Graphics/SVG/1.1/DTD/svg11.dtd">
<svg version="1.1" id="Layer_1" xmlns="http://www.w3.org/2000/svg" xmlns:xlink="http://www.w3.org/1999/xlink" x="0px" y="0px"
	 width="338px" height="296px" viewBox="0 0 338 296" enable-background="new 0 0 338 296" xml:space="preserve">
<polygon fill="#AAAAAA" points="209.825,277 122.175,277 129.088,237 202.912,237 "/>
<g>
	<linearGradient id="SVGID_1_" gradientUnits="userSpaceOnUse" x1="40.9292" y1="-14.0708" x2="296.0718" y2="241.0718">
		<stop  offset="0" style="stop-color:#8E2980"/>
		<stop  offset="1" style="stop-color:#44416E"/>
	</linearGradient>
	<path fill="url(#SVGID_1_)" d="M327,206c0,5.523-4.477,10-10,10H20c-5.523,0-10-4.477-10-10V21c0-5.523,4.477-10,10-10h297
		c5.523,0,10,4.477,10,10V206z"/>
	<path fill="#1E1E1E" d="M338,216H0V20.5C0,9.196,9.196,0,20.5,0h297C328.804,0,338,9.196,338,20.5V216z M21,195h296V21H21V195z"/>
</g>
<path fill="#C8C8C8" d="M317.5,253h-297C5.386,253,0,243.904,0,237.264V216h338v21.264C338,243.904,332.614,253,317.5,253z"/>
<g>
	<path fill="#D2D2D2" d="M105.784,291.436c-1.78,2.489,1.772,4.564,7.896,4.564H218.32c6.123,0,9.676-2.075,7.896-4.564L210.35,277
		H121.65L105.784,291.436z"/>
</g>
</svg>
